<?xml version="1.0" standalone="no"?>
<!DOCTYPE svg PUBLIC "-//W3C//DTD SVG 1.1//EN" "http://www.w3.org/Graphics/SVG/1.1/DTD/svg11.dtd" >
<svg xmlns="http://www.w3.org/2000/svg">
<metadata>
Created by FontPrep 20130207 at Thu Apr 16 22:28:16 2015
 By Aaron Hitchcock
Copyright  2004, Joshua Darden &#38; Phil's Fonts, Inc. All rights reserved. Published by Garagefonts USA 301-260-2285 www.garagefonts.com
</metadata>
<defs>
<font id="d9e64e66ba0f4be8f0ea154778490c10" horiz-adv-x='1024' >
  <font-face 
    font-family="FreightTextBook"
    font-weight="400"
    font-stretch="normal"
    units-per-em="2048"
    panose-1="2 0 6 3 6 0 0 2 0 4"
    ascent="1638"
    descent="-410"
    x-height="913"
    cap-height="1280"
    bbox="-131 -547 2271 1790"
    underline-thickness="40"
    underline-position="-231"
    unicode-range="U+0020-FB04"
  />
<missing-glyph horiz-adv-x="1024" 
 />
    <glyph glyph-name=".notdef" horiz-adv-x="1024" 
 />
    <glyph glyph-name=".null" horiz-adv-x="0" 
 />
    <glyph glyph-name="nonmarkingreturn" horiz-adv-x="327" 
 />
    <glyph glyph-name="space" unicode=" " horiz-adv-x="327" 
 />
    <glyph glyph-name="space" unicode="&#xa0;" horiz-adv-x="327" 
 />
    <glyph glyph-name="exclam" unicode="!" horiz-adv-x="575" 
d="M403 85q0 -46 -30.5 -81t-82.5 -35t-86 35t-34 81t34 80t86 34t82.5 -34t30.5 -80zM274 1309h31q55 0 70.5 -20.5t11.5 -55.5l-78 -827q-2 -12 -20.5 -12.5t-20.5 12.5l-75 827q-4 35 11 55.5t70 20.5z" />
    <glyph glyph-name="quotedbl" unicode="&#x22;" horiz-adv-x="727" 
d="M102 825h-67l215 500h2l151 -53zM424 825h-68l215 500h2l150 -53z" />
    <glyph glyph-name="numbersign" unicode="#" horiz-adv-x="1148" 
d="M817 831h-356l-107 -389h359zM1053 442v-71h-285l-104 -383h-74l104 383h-360l-103 -383h-73l102 383h-264v71h285l104 389h-264v72h282l107 389h74l-105 -389h357l106 389h74l-107 -389h267v-72h-285l-105 -389h267z" />
    <glyph glyph-name="dollar" unicode="$" horiz-adv-x="1019" 
d="M795 272q0 81 -21.5 125.5t-72.5 88.5t-177 89l-69 -253q-12 -47 -28 -101.5t-36 -132.5l-6 -22q91 -16 145 -14q111 3 188 71t77 149zM495 1223q-102 0 -165.5 -59.5t-63.5 -129.5q0 -116 62 -174.5t170 -99.5l118 448q-73 15 -121 15zM879 913h-74l-62 254
q-12 4 -26.5 10.5t-30.5 10.5l-121 -455q74 -29 223.5 -96.5t149.5 -290.5q0 -156 -128 -266.5t-335 -110.5q-59 0 -115 6l-84 -315h-73l86 324q-91 17 -160 45l-27 358h68l94 -281q19 -12 53 -20l140 516q-169 67 -249.5 142t-80.5 219t110 244t306 100h39q39 0 61 -2
l55 206h76l-29 -106q-27 -109 -30 -109q40 -5 55 -10l109 31v-404z" />
    <glyph glyph-name="percent" unicode="%" horiz-adv-x="1527" 
d="M1153 541q-110 0 -177 -73.5t-67 -178.5q0 -104 63.5 -178t180.5 -74t180.5 74t63.5 178t-67 178t-177 74zM375 1241q-117 0 -180.5 -73.5t-63.5 -178.5t66.5 -178.5t177 -73.5t177 73t66.5 178t-63 179t-180 74zM1399 46.5q-94 -97.5 -246 -97.5t-246 97.5t-94 241.5
q0 143 94.5 242t245.5 99t245.5 -98.5t94.5 -242.5t-94 -241.5zM297 -31h-107l1045 1340h104zM620.5 747.5q-94.5 -98.5 -245.5 -98.5t-245.5 98.5t-94.5 242.5q0 143 94 241t246 98t246 -97.5t94 -241.5t-94.5 -242.5z" />
    <glyph glyph-name="ampersand" unicode="&#x26;" horiz-adv-x="1413" 
d="M205 360q0 -110 82 -188t202 -78q82 0 167 53.5t159 155.5q-100 195 -218 257.5t-181 88.5q-211 -108 -211 -289zM705 1012q0 142 -77 179.5t-124 37.5q-98 0 -154.5 -60.5t-56.5 -152.5q0 -177 229 -273q183 85 183 269zM854 229q-200 -260 -448 -260q-155 0 -254 98
t-99 229t84.5 235.5t216.5 154.5q-88 41 -142 116t-54 157q0 152 104.5 250t259.5 98q156 0 243 -80.5t87 -183.5q0 -225 -262 -330q96 -41 183 -119t140 -170q146 206 146 231q2 33 -45 39l-72 11l-4 67h428l-8 -67l-66 -11q-98 -24 -155 -104q-92 -118 -137.5 -175
t-45.5 -59q73 -147 129 -206.5t121.5 -59.5t175.5 66l31 -54q-126 -135 -256 -135q-104 0 -172 65.5t-129 196.5z" />
    <glyph glyph-name="quotesingle" unicode="'" horiz-adv-x="405" 
d="M102 825h-67l215 500h2l151 -53z" />
    <glyph glyph-name="parenleft" unicode="(" horiz-adv-x="808" 
d="M190 428q0 186 54.5 342t135.5 275.5t176 202.5t177 124l25 -33q24 -29 24 -36q-76 -41 -163 -121t-158.5 -192.5t-119.5 -254t-48 -307.5t48 -307t119.5 -254t159 -193t162.5 -118q0 -9 -49 -72q-82 41 -177 124t-176 202.5t-135.5 275.5t-54.5 342z" />
    <glyph glyph-name="parenright" unicode=")" horiz-adv-x="808" 
d="M516 428q0 166 -48 307.5t-120 254t-158 192.5t-163 121q0 5 26 36l25 33q82 -41 176 -124t175 -202.5t135 -275.5t54 -342t-54 -342t-135 -275.5t-175 -202.5t-176 -124l-25 33q-26 31 -26 37q78 41 163.5 120.5t157.5 192.5t120 254t48 307z" />
    <glyph glyph-name="asterisk" unicode="*" horiz-adv-x="710" 
d="M588 893l-182 63l-21 -26l115 -152l-17 -127l-43 -10l-86 94l4 189l-30 8l-107 -150l-125 -26l-28 37l65 116l176 49v35l-176 54l-67 110l24 37l131 -25l107 -155l32 10v190l82 93l45 -15l17 -127l-119 -151l21 -27l182 62l112 -56v-45z" />
    <glyph glyph-name="plus" unicode="+" horiz-adv-x="983" 
d="M545 430v-381h-105v381h-374l6 100h368v379h105v-379h366l7 -100h-373z" />
    <glyph glyph-name="comma" unicode="," horiz-adv-x="462" 
d="M240 -51q0 72 -52.5 107.5t-76 46t-23.5 12.5q0 47 34 80.5t81 33.5q82 0 138 -52.5t56 -124.5q0 -124 -76.5 -215.5t-207.5 -190.5l-45 32q172 130 172 271z" />
    <glyph glyph-name="hyphen" unicode="-" horiz-adv-x="671" 
d="M70 428l6 104h524l6 -104h-536z" />
    <glyph glyph-name="period" unicode="." horiz-adv-x="466" 
d="M360 96q0 -49 -34.5 -88t-90.5 -39t-92.5 39t-36.5 88t36 86t92 37t91 -37t35 -86z" />
    <glyph glyph-name="slash" unicode="/" horiz-adv-x="571" 
d="M457 1358h92l-438 -1790h-93z" />
    <glyph glyph-name="zero" unicode="0" horiz-adv-x="1146" 
d="M948 479q0 88 -27.5 161t-77.5 125t-119 82t-153 30t-152.5 -29t-117.5 -81t-76.5 -124t-27.5 -160t27.5 -161.5t77.5 -127t120 -83t153.5 -29.5t152.5 29.5t118 82t75.5 125t26.5 160.5zM217.5 110.5q-137.5 141.5 -137.5 367.5t138.5 368.5t355.5 142.5t354 -139
t137 -366t-139.5 -371t-355 -144t-353 141.5z" />
    <glyph glyph-name="one" unicode="1" horiz-adv-x="749" 
d="M461 127q0 -31 37 -37l149 -20l6 -70h-522l6 70l146 20q35 12 34 37v725l-231 12l6 60l369 59v-856z" />
    <glyph glyph-name="two" unicode="2" horiz-adv-x="954" 
d="M529 801q-59 57 -147 57q-87 0 -149.5 -43t-101.5 -98l-39 24q47 117 141.5 182.5t218.5 65.5t214 -75.5t90 -205.5t-107.5 -231.5t-209 -175.5t-232.5 -166v-10h117q295 0 356 15.5t82.5 38t36.5 59.5l37 92h63l-25 -330h-798l-8 106q106 82 201.5 156t207 181
t111.5 204t-59 154z" />
    <glyph glyph-name="three" unicode="3" horiz-adv-x="856" 
d="M330 862q-137 0 -244 -143q-2 0 -9 4t-24 12t-8 8q47 117 150.5 181.5t227.5 64.5t208 -74t84 -183t-67.5 -192t-209.5 -167v-4q154 0 254.5 -85.5t100.5 -226.5q0 -181 -160.5 -325t-370.5 -144q-113 0 -175 43t-62 93t27.5 76t75.5 26t88 -46t50 -102q29 -6 72 -6
t98.5 22.5t125 89t69.5 194.5q0 129 -73 203.5t-184 74.5t-186 -37l-22 53q192 121 250.5 170.5t92.5 99.5t34 101q0 97 -59 158t-154 61z" />
    <glyph glyph-name="four" unicode="4" horiz-adv-x="952" 
d="M590 760h-6l-443 -590h449v590zM735 47v-424h-145v424h-570l-6 72l652 862h69v-811h230l-15 -123h-215z" />
    <glyph glyph-name="five" unicode="5" horiz-adv-x="858" 
d="M23 -282q0 102 105 102q48 0 86 -43t48 -101q16 -4 19 -4h38q127 0 216.5 91.5t89.5 222.5q0 276 -521 415l144 562h540l-4 -154h-489l-72 -287q285 -78 412 -199.5t127 -273.5q0 -92 -40 -176t-152 -184.5t-312 -100.5q-104 0 -169.5 39t-65.5 91z" />
    <glyph glyph-name="six" unicode="6" horiz-adv-x="1024" 
d="M710 589q-81 97 -202 97q-78 0 -142.5 -30.5t-105.5 -69.5q-18 -22 -18 -115q0 -182 84.5 -306t206.5 -124t190 89t68 226q0 136 -81 233zM942 391q0 -88 -34 -169t-126 -170t-284 -89t-306 148.5t-114 336.5q0 187 70.5 339.5t191.5 269.5t279.5 190.5t332.5 87.5
l15 -59q-275 -38 -455 -205.5t-246 -406.5l4 -2q59 55 140.5 90.5t165.5 35.5t152.5 -30.5t116.5 -83.5t72.5 -124t24.5 -159z" />
    <glyph glyph-name="seven" unicode="7" horiz-adv-x="946" 
d="M782 819h-360q-164 0 -192.5 -7t-44 -25.5t-39 -82t-25.5 -67.5h-66l41 326h803l10 -89l-635 -1253h-106l614 1188v10z" />
    <glyph glyph-name="eight" unicode="8" horiz-adv-x="997" 
d="M691.5 457q-88.5 66 -275.5 155q-78 -55 -131.5 -132.5t-53.5 -151.5q0 -138 82 -215.5t206 -77.5q123 0 192 67t69 178t-88.5 177zM725 956q0 193 -97.5 241t-151.5 48q-101 0 -163.5 -66.5t-62.5 -141.5q0 -74 26.5 -120.5t81.5 -91t215 -123.5q152 106 152 254z
M870 989q0 -202 -241 -311v-2q138 -70 188.5 -123t74 -105t23.5 -124q0 -153 -119 -254t-303 -101t-297.5 97t-113.5 235q0 214 283 336v2q-125 66 -168 116t-63.5 98t-20.5 146t107 203t274 105t271.5 -91.5t104.5 -226.5z" />
    <glyph glyph-name="nine" unicode="9" horiz-adv-x="1024" 
d="M780 489q0 178 -82.5 303.5t-207.5 125.5t-191 -89.5t-66 -228.5t82 -233.5t199 -94.5q78 0 142.5 32t105.5 71q18 23 18 114zM448 172q-169 0 -268.5 113t-99.5 291t124.5 298.5t316.5 120.5t307.5 -145t115.5 -336q0 -190 -70.5 -342t-191.5 -268.5t-278.5 -190
t-333.5 -88.5l-15 60q275 38 454 204.5t249 407.5l-6 2q-59 -57 -140.5 -92t-163.5 -35z" />
    <glyph glyph-name="colon" unicode=":" horiz-adv-x="462" 
d="M360 96q0 -49 -34.5 -88t-90.5 -39t-92.5 39t-36.5 88t36 86t92 37t91 -37t35 -86zM360 731q0 -49 -34.5 -87t-90.5 -38t-92.5 38t-36.5 87t36 86t92 37t91 -37t35 -86z" />
    <glyph glyph-name="semicolon" unicode=";" horiz-adv-x="462" 
d="M240 -51q0 72 -52.5 107.5t-76 46t-23.5 12.5q0 47 34 80.5t81 33.5q82 0 138 -52.5t56 -124.5q0 -124 -76.5 -215.5t-207.5 -190.5l-45 32q172 130 172 271zM360 731q0 -49 -34.5 -87t-90.5 -38t-92.5 38t-36.5 87t36 86t92 37t91 -37t35 -86z" />
    <glyph glyph-name="less" unicode="&#x3c;" horiz-adv-x="983" 
d="M59 457v49l820 385l24 -92l-667 -312v-10l667 -313l-24 -92z" />
    <glyph glyph-name="equal" unicode="=" horiz-adv-x="983" 
d="M86 250l6 104h799l6 -104h-811zM92 606l-6 105h811l-6 -105h-799z" />
    <glyph glyph-name="greater" unicode="&#x3e;" horiz-adv-x="983" 
d="M104 72l-24 92l668 313v10l-668 312l24 92l820 -385v-49z" />
    <glyph glyph-name="question" unicode="?" horiz-adv-x="731" 
d="M426 85q0 -46 -32 -81t-84 -35t-84.5 35t-32.5 81t32.5 80t84.5 34t84 -34t32 -80zM109 1206q0 43 41.5 73t117.5 30t146.5 -29t123 -77t82 -108.5t29.5 -150t-55.5 -143t-125.5 -80.5q-124 -47 -166 -78.5t-42 -85.5q0 -55 31 -97t76 -83h-62q-64 57 -102.5 110.5
t-38.5 112.5q0 101 54 148t133 82q79 34 148.5 64.5t69.5 96.5t-87 114t-228 48q-58 0 -127 -12q-18 22 -18 65z" />
    <glyph glyph-name="at" unicode="@" horiz-adv-x="1708" 
d="M840 866q-45 0 -76 -30q-61 -60 -116.5 -227t-55.5 -254t36 -120.5t68 -33.5t99.5 74t230.5 362q10 20 17.5 49t7.5 33q-45 89 -105.5 118t-105.5 29zM818 -258q-149 0 -287 59.5t-237 165t-153.5 250.5t-47.5 313t75 310.5t178.5 247t257 164t304.5 55.5t295.5 -57.5
t237 -147.5t155.5 -223t48 -265q-14 -249 -144 -393.5t-310 -144.5q-133 0 -177.5 50.5t-27.5 106.5l72 314h-27q-155 -304 -241.5 -372.5t-128.5 -68.5q-82 0 -144.5 62t-62.5 130t19.5 145t71.5 200t146 217t201 94q74 0 128 -45t77 -116h22l51 137h97l-117 -334l-45 -365
q-6 -35 20 -59.5t94 -24.5q138 0 235.5 128.5t105.5 292.5q15 298 -174 478.5t-478 188.5q-145 4 -275 -51.5t-229.5 -150.5t-160 -223t-67.5 -278t42 -282.5t138 -229t213 -150.5t257 -54t260 41l21 -68q-139 -47 -288 -47z" />
    <glyph glyph-name="A" unicode="A" horiz-adv-x="1222" 
d="M582 1122h-11l-194 -575h387zM729 0l6 70l117 14q40 8 42 36.5t-28 117.5l-75 225h-443l-74 -223q-29 -84 -29.5 -116t36.5 -40l102 -14l6 -70h-422l6 70l82 14q49 13 79 61t93 232l285 803v65l170 72l395 -1188q10 -33 51 -39l121 -20l6 -70h-526z" />
    <glyph glyph-name="B" unicode="B" horiz-adv-x="1181" 
d="M926 340q0 133 -103 205.5t-276 72.5h-127v-516l160 -28l59 2q196 14 241.5 106t45.5 158zM549 1206h-129v-512l162 2q140 0 217.5 75.5t77.5 185.5t-78 179.5t-250 69.5zM1104 348q0 -172 -133 -260t-371 -88h-514l6 70l107 12q53 6 53 29v1060q0 12 -10.5 17.5
t-42.5 9.5l-107 12l-6 70h522q236 0 342.5 -79t106.5 -203q0 -123 -85.5 -214.5t-226.5 -115.5v-9q186 -20 272.5 -108t86.5 -203z" />
    <glyph glyph-name="C" unicode="C" horiz-adv-x="1359" 
d="M94 624q0 308 201.5 496.5t505.5 188.5q159 0 284 -39l156 33v-416h-86l-53 266q-130 76 -314 76q-222 0 -364.5 -162.5t-142.5 -425.5q0 -262 140 -428t390 -166q151 0 264 62l86 276h90l-49 -387l-94 20q-315 -99 -582 -7.5t-349.5 274t-82.5 339.5z" />
    <glyph glyph-name="D" unicode="D" horiz-adv-x="1390" 
d="M954.5 1046.5q-159.5 159.5 -456.5 159.5h-78v-1104l164 -26q245 4 387.5 157t142.5 404q0 250 -159.5 409.5zM1099 190.5q-199 -190.5 -560 -190.5h-453l6 70l107 12q53 6 53 29v1060q0 12 -10.5 17.5t-42.5 9.5l-107 12l-6 70l455 6q345 4 551 -170t206 -454
q0 -281 -199 -471.5z" />
    <glyph glyph-name="E" unicode="E" horiz-adv-x="1193" 
d="M252 111v1060q0 12 -10.5 17.5t-42.5 9.5l-107 12l-6 70h983v-371h-88l-45 207q-8 31 -21.5 48.5t-66 28.5t-350.5 11h-78v-514h78q130 0 157 5t36 12.5t14 21.5l45 137h71l-43 -426h-67l-17 131q0 26 -32.5 35.5t-167.5 9.5h-74v-540h55q315 0 377.5 12t78 29.5
t25.5 46.5l52 198h100l-39 -362h-983l6 70l107 12q53 6 53 29z" />
    <glyph glyph-name="F" unicode="F" horiz-adv-x="1140" 
d="M483 1204h-63v-526h94q172 0 186.5 12t20.5 27l47 137h70l-43 -426h-68l-14 131q-4 26 -35.5 35.5t-167.5 9.5h-90v-495q0 -12 11 -17.5t42 -9.5l148 -12l6 -70h-541l6 70l107 12q53 6 53 29v1060q0 12 -10.5 17.5t-42.5 9.5l-107 12l-6 70h969v-371h-90l-43 207
q-8 31 -22.5 48.5t-67 28.5t-349.5 11z" />
    <glyph glyph-name="G" unicode="G" horiz-adv-x="1449" 
d="M1065 457q0 12 -10.5 17t-42.5 9l-129 13l-6 67h520l-6 -67l-107 -13q-53 -8 -53 -30v-320l119 -10l4 -53q-298 -101 -559 -101q-308 0 -504.5 176t-196.5 482t207 494t512 188q163 0 283 -39l155 33v-416h-86l-53 266q-130 76 -315 76q-219 0 -367.5 -163.5
t-148.5 -425.5t137.5 -427.5t393.5 -165.5q134 0 253 51v359z" />
    <glyph glyph-name="H" unicode="H" horiz-adv-x="1501" 
d="M1081 111v503h-661v-505q0 -12 11 -17.5t42 -9.5l107 -12l6 -70h-500l6 70l107 12q53 6 53 29v1060q0 12 -10.5 17.5t-42.5 9.5l-107 12l-6 70h500l-6 -70l-107 -12q-53 -6 -53 -29v-471h661v473q0 14 -10 18.5t-43 8.5l-106 12l-7 70h500l-6 -70l-106 -12
q-53 -6 -54 -29v-1060q0 -12 10.5 -17.5t43.5 -9.5l106 -12l6 -70h-500l7 70l106 12q53 6 53 29z" />
    <glyph glyph-name="I" unicode="I" horiz-adv-x="718" 
d="M276 111v1060q0 12 -10 17.5t-43 9.5l-127 12l-6 70h541l-6 -70l-127 -12q-53 -6 -54 -29v-1060q0 -20 54 -27l127 -12l6 -70h-541l6 70l127 12q53 6 53 29z" />
    <glyph glyph-name="J" unicode="J" horiz-adv-x="796" 
d="M96 184q110 0 150 -145h2q81 21 117 110t36 324v698q0 14 -10 18.5t-43 8.5l-141 12l-6 70h549l-7 -70l-118 -12q-31 -4 -42.5 -10t-11.5 -19v-665q0 -258 -96 -396.5t-276 -138.5q-90 0 -143.5 36t-53.5 84t26.5 71.5t67.5 23.5z" />
    <glyph glyph-name="K" unicode="K" horiz-adv-x="1296" 
d="M420 109q0 -12 11 -17.5t42 -9.5l107 -12l6 -70h-500l6 70l107 12q53 6 53 29v1060q0 12 -10.5 17.5t-42.5 9.5l-107 12l-6 70h500l-6 -70l-107 -12q-53 -6 -53 -29v-561l440 443q80 78 85 110.5t-42 36.5l-104 12l-6 70h489l-6 -70l-86 -10q-35 -6 -67.5 -26.5
t-86.5 -73.5l-364 -363l440 -590q29 -39 46.5 -51t47.5 -16l74 -10l6 -70h-452l6 70l80 12q23 8 0 45l-361 508l-139 -137v-389z" />
    <glyph glyph-name="L" unicode="L" horiz-adv-x="1157" 
d="M252 111v1060q0 12 -10.5 17.5t-42.5 9.5l-107 12l-6 70h518l-6 -70l-125 -12q-53 -6 -53 -29v-1093h51q296 0 356 12t75.5 29.5t23.5 46.5l61 244h94l-45 -408h-950l6 70l107 12q53 6 53 29z" />
    <glyph glyph-name="M" unicode="M" horiz-adv-x="1728" 
d="M1151 0l6 70l133 10q25 4 31.5 76.5t-0.5 214.5l-29 794h-14l-412 -1124h-86l-399 1083h-21l-34 -747q-4 -98 -6.5 -156.5t-1 -97.5t25.5 -39l135 -14l6 -70h-456l8 70l137 14q12 2 20.5 10t18 43.5t23.5 239.5l34 674q6 121 -59 137l-145 22l-7 70h439l362 -987h10
l355 987h428l-4 -70l-152 -10q-31 -3 -37 -49l29 -780q5 -242 22 -265.5t27 -25.5l129 -10l6 -70h-522z" />
    <glyph glyph-name="N" unicode="N" horiz-adv-x="1507" 
d="M1264 903v-919h-99l-805 1126h-8v-733q0 -193 8.5 -232t21.5 -47t36 -12l123 -16l6 -70h-471l6 70l123 16q23 4 36 12t21 48t8 231v676q0 66 -14 94.5t-49 44.5l-117 18l-6 70h354l738 -1032h6v655q0 193 -8.5 232t-21.5 47t-36 12l-123 16l-6 70h473l-6 -70l-123 -16
q-23 -4 -36 -12t-22 -46.5t-9 -232.5z" />
    <glyph glyph-name="O" unicode="O" horiz-adv-x="1513" 
d="M1233 626q0 272 -141 439.5t-340 167.5t-335 -157t-136 -431t141.5 -439t338.5 -165t334.5 156.5t137.5 428.5zM1419 650q0 -142 -50 -265t-139 -215t-211 -146.5t-264 -54.5q-285 0 -473 184t-188 476q0 137 50.5 260t191.5 270.5t424 147.5q282 0 420.5 -135.5
t188.5 -257.5t50 -264z" />
    <glyph glyph-name="P" unicode="P" horiz-adv-x="1146" 
d="M907 898q0 144 -89 226t-243 80h-108q-25 0 -47 -2v-592q78 -20 166 -20q147 0 234 82t87 226zM609 518q-87 0 -189 10v-419q0 -12 11 -17.5t42 -9.5l145 -12l7 -70h-539l6 70l107 12q53 6 53 29v1060q0 12 -10.5 17.5t-42.5 9.5l-107 12l-6 70h496q243 0 374 -98
t131 -252q0 -191 -105 -274t-195.5 -110.5t-177.5 -27.5z" />
    <glyph glyph-name="Q" unicode="Q" horiz-adv-x="1513" 
d="M1233 626q0 272 -141 439.5t-340 167.5t-335 -157t-136 -431t141.5 -439t338.5 -165t334.5 156.5t137.5 428.5zM94 629q0 137 50.5 260t191.5 270.5t424 147.5q282 0 470.5 -184.5t188.5 -477.5q0 -233 -136 -414.5t-355 -238.5q146 -253 317.5 -262t272.5 4l6 -66
q-114 -37 -236 -37q-222 0 -342.5 79.5t-212.5 258.5q-271 4 -455 188t-184 472z" />
    <glyph glyph-name="R" unicode="R" horiz-adv-x="1210" 
d="M508 565h-88v-456q0 -12 11 -17.5t42 -9.5l117 -12l6 -70h-510l6 70l107 12q53 6 53 29v1060q0 12 -10.5 17.5t-42.5 9.5l-107 12l-6 70h524q233 0 342 -87t109 -226.5t-83 -229.5t-220 -137l278 -430q37 -53 56.5 -67.5t42.5 -18.5l84 -14l6 -70h-301l-78 141l-250 426
q-49 -2 -88 -2zM879 932q0 137 -79 207.5t-243 60.5h-7l-130 -4v-545l174 -14q129 14 207 86t78 209z" />
    <glyph glyph-name="S" unicode="S" horiz-adv-x="1032" 
d="M885 913h-82l-58 263q-113 51 -233 51t-184 -62t-64 -137t23.5 -118.5t66.5 -76t100.5 -57t130.5 -52.5t218 -93.5t145 -284.5q0 -155 -129 -266t-340 -111q-173 -3 -358 56l-31 362h82l86 -283q122 -55 253 -55t208.5 71.5t77.5 179.5t-75.5 168.5t-246.5 123.5
q-184 72 -243.5 123t-87 108.5t-27.5 131.5t25.5 137t77.5 110t132 77t197 32t229 -25l107 31v-404z" />
    <glyph glyph-name="T" unicode="T" horiz-adv-x="1253" 
d="M725 1204h-14v-1095q0 -12 11 -17.5t42 -9.5l139 -12l6 -70h-565l6 70l139 12q53 6 54 29v1093h-15q-204 0 -249.5 -12t-58.5 -29.5t-21 -46.5l-56 -229h-92l35 393h1096v-393h-88l-45 215q-6 29 -17.5 48t-60 36.5t-246.5 17.5z" />
    <glyph glyph-name="U" unicode="U" horiz-adv-x="1456" 
d="M1210 903v-479q0 -212 -131.5 -333.5t-421.5 -121.5t-355.5 174t-65.5 297v731q0 12 -10.5 17.5t-43.5 9.5l-106 12l-6 70h499l-6 -70l-106 -12q-53 -6 -54 -29v-708q0 -303 147.5 -345t227.5 -42q174 0 262 99t88 261v469q0 191 -8 231t-21.5 48t-35.5 12l-123 16l-6 70
h471l-6 -70l-121 -16q-23 -4 -36 -12t-22.5 -46t-9.5 -233z" />
    <glyph glyph-name="V" unicode="V" horiz-adv-x="1257" 
d="M1284 1210l-80 -14q-25 -6 -43 -16.5t-39 -45.5t-92 -231l-315 -907h-168l-404 1155q-8 32 -49 39l-123 20l-6 70h527l-7 -70l-116 -14q-20 -4 -29.5 -11t-8.5 -26t34 -117l301 -899h18l256 760q83 240 49.5 267.5t-61.5 29.5l-78 10l-6 70h446z" />
    <glyph glyph-name="W" unicode="W" horiz-adv-x="1880" 
d="M1898 1210l-73 -14q-25 -8 -40.5 -17.5t-36 -46t-85.5 -229.5l-287 -907h-119l-296 885h-5l-309 -885h-121l-381 1155q-8 32 -49 39l-121 20l-6 70h527l-7 -70l-116 -14q-39 -6 -37 -34.5t33 -119.5l256 -831h8l278 790l-49 150q-8 32 -51 39l-117 20l-6 70h520l-6 -70
l-121 -14q-35 -6 -33.5 -37t29.5 -117l271 -833l6 2l207 692q60 185 58.5 225.5t-17 50t-41.5 15.5l-107 16l-6 70h457z" />
    <glyph glyph-name="X" unicode="X" horiz-adv-x="1265" 
d="M762 0l6 70l102 12q47 6 34 40t-68 118l-228 342h-8l-256 -387q-72 -98 6 -111l90 -14l9 -70h-447l6 70l92 14q37 10 62.5 33.5t62.5 72.5l326 453l-356 508q-25 35 -58 39l-106 20l-8 70h509l-6 -70l-100 -12q-51 -8 -38 -41t67 -117l198 -295h9l225 342q68 98 -4 111
l-95 12l-6 70h443l-6 -70l-91 -14q-37 -10 -64.5 -33.5t-62.5 -72.5l-290 -408l391 -553q22 -30 57 -39l107 -20l6 -70h-510z" />
    <glyph glyph-name="Y" unicode="Y" horiz-adv-x="1228" 
d="M709 109q0 -12 10 -17.5t43 -9.5l139 -12l6 -70h-567l6 70l141 12q53 6 54 29v426l-381 602q-35 46 -84 57l-84 14l-6 70h499l-6 -70l-102 -12q-35 -4 -31 -39t55 -119l246 -407h10l267 454q60 97 -17 113l-78 10l-6 70h414l-6 -70l-62 -10q-41 -12 -71.5 -32.5
t-67.5 -77.5l-321 -533v-448z" />
    <glyph glyph-name="Z" unicode="Z" horiz-adv-x="1136" 
d="M68 0v70l806 1126v8h-231q-257 0 -316 -18.5t-73 -41t-25 -57.5l-41 -186h-82v379h967v-72l-805 -1126l-2 -8l234 2q280 0 344.5 16.5t80 37t25.5 50.5l51 203h95l-43 -383h-985z" />
    <glyph glyph-name="bracketleft" unicode="[" horiz-adv-x="753" 
d="M195 -451v1784h516v-86h-416v-1612h416v-86h-516z" />
    <glyph glyph-name="backslash" unicode="\" horiz-adv-x="571" 
d="M459 -432l-439 1790h93l438 -1790h-92z" />
    <glyph glyph-name="bracketright" unicode="]" horiz-adv-x="753" 
d="M43 -365h416v1612h-416v86h516v-1784h-516v86z" />
    <glyph glyph-name="asciicircum" unicode="^" 
d="M621 1040l-209 252h-4l-209 -252h-56l228 398h78l227 -398h-55z" />
    <glyph glyph-name="underscore" unicode="_" horiz-adv-x="962" 
d="M-16 -106l6 104h983l6 -104h-995z" />
    <glyph glyph-name="grave" unicode="`" 
d="M465 1040l-338 377h186l197 -377h-45z" />
    <glyph glyph-name="a" unicode="a" horiz-adv-x="913" 
d="M225 226q0 -58 44.5 -100t104.5 -42t108 29.5t100 76.5l12 308q-291 -77 -330 -145.5t-39 -126.5zM582 121q-142 -152 -245 -152q-116 0 -188.5 69t-72.5 169q0 126 119.5 207t402.5 149v19q0 228 -80 252t-119 24t-67.5 -5t-52 -13.5t-38 -17.5t-14.5 -17t20.5 -31.5
t20.5 -60.5t-27.5 -66t-71.5 -29t-71.5 25t-27.5 64q0 77 128.5 158t232.5 81t162 -19.5t109 -86.5t41 -293l-16 -391q-4 -72 45 -72q33 0 105 57l34 -45q-101 -127 -190 -127q-55 0 -93 36t-38 116h-8z" />
    <glyph glyph-name="b" unicode="b" horiz-adv-x="1050" 
d="M303 162q118 -113 236 -113t200 104.5t82 277.5t-76.5 276.5t-205.5 103.5t-236 -123v-526zM513 -31q-101 0 -237 47h-4l-92 -59h-22v1262q0 33 -21 38l-153 46l6 51l313 73v-639h8q55 59 132 102.5t163 43.5q168 0 270.5 -127.5t102.5 -329.5t-94 -313t-182.5 -153
t-189.5 -42z" />
    <glyph glyph-name="c" unicode="c" horiz-adv-x="905" 
d="M498 -29q-194 0 -311 129.5t-117 340.5t139.5 357t337.5 146q131 0 212 -56.5t81 -124.5t-34 -91t-80 -23t-77 51.5t-8 128.5v5q-52 36 -121 36q-132 0 -213.5 -103t-81.5 -272t91.5 -282t239.5 -113q147 0 253 125l41 -24q-55 -111 -151.5 -170.5t-200.5 -59.5z" />
    <glyph glyph-name="d" unicode="d" horiz-adv-x="1077" 
d="M748 737q-120 119 -230 119q-134 0 -211.5 -102.5t-77.5 -275.5t80 -278.5t207 -105.5t232 94v549zM551 938q102 0 192 -37h5v359q0 31 -19 36l-160 37l9 49l315 45v-1300q0 -33 20 -39l146 -33l-6 -49l-305 -37v137h-7q-125 -135 -289 -135t-273 131t-109 338t99 312.5
t189.5 145.5t192.5 40z" />
    <glyph glyph-name="e" unicode="e" horiz-adv-x="935" 
d="M467 610h223q8 121 -44 191.5t-142 70.5t-167.5 -73t-100.5 -191q131 2 231 2zM498 -29q-194 0 -311 129.5t-117 339.5t136 357t333 147q145 0 230 -82t85 -215q0 -53 -10 -108l-617 8q-2 -6 -2 -11v-38q0 -177 91.5 -287.5t238.5 -110.5q148 0 254 125l41 -24
q-55 -111 -151.5 -170.5t-200.5 -59.5z" />
    <glyph glyph-name="f" unicode="f" horiz-adv-x="638" 
d="M342 977v-66h285l-15 -94h-270v-711q0 -25 57 -28l136 -8l6 -70h-488l6 70l86 8q51 2 52 31v704l-172 8l12 90h149l2 52q8 202 132.5 333t291.5 131q72 0 125.5 -33.5t53.5 -82.5t-26 -74t-66 -25t-78 36.5t-50 101.5l-51 4q-178 -72 -178 -377z" />
    <glyph glyph-name="g" unicode="g" horiz-adv-x="940" 
d="M160 -219q0 -59 23.5 -99t63.5 -68t94 -42t150 -14t178.5 63.5t82.5 159.5q0 175 -222 182h-12l-225 -4q-45 -17 -89 -68t-44 -110zM639 614q0 145 -74 213q-55 51 -139 51t-140.5 -68.5t-56.5 -160.5q0 -169 88 -248q53 -43 127 -43t121 45q74 66 74 211zM317 305
q-96 -47 -96 -117q0 -30 36 -57t93 -27h32l206 5q136 0 218.5 -76.5t82.5 -171.5q0 -176 -143 -277.5t-363 -101.5q-166 0 -264.5 67.5t-98.5 176.5q0 158 193 241v8q-57 10 -94 53.5t-37 99.5t50 108.5t116 82.5q0 6 2 7q-76 34 -125 106t-49 160q0 156 102 254t260 98
q114 0 230 -51l278 -2v-119l-219 39v-10q64 -77 64 -164q0 -151 -105 -247.5t-256 -96.5q-71 0 -113 12z" />
    <glyph glyph-name="h" unicode="h" horiz-adv-x="1081" 
d="M659 944q107 0 177 -70t71 -223v-542q0 -12 10.5 -19.5t51.5 -11.5l80 -8l6 -70h-434l6 70l84 8q33 2 42 9t9 22v446q0 152 -52.5 208t-157.5 56t-230 -102v-611q0 -25 55 -28l94 -8l6 -70h-442l6 70l82 8q51 2 51 31v1105q0 37 -22 43l-144 46l6 51l308 73v-630h10
q174 147 327 147z" />
    <glyph glyph-name="i" unicode="i" horiz-adv-x="544" 
d="M201 109v575q0 72 -10.5 89.5t-23.5 23.5t-36 12l-82 12l4 56l293 67v-838q0 -25 57 -28l86 -8l7 -70h-439l6 70l87 8q51 2 51 31zM356 1244q0 -46 -25.5 -81t-78.5 -35t-79 35t-26 80t26 80t79 35t78.5 -34t25.5 -80z" />
    <glyph glyph-name="j" unicode="j" horiz-adv-x="516" 
d="M195 -164v848q0 70 -10.5 88.5t-24 24.5t-35.5 12l-82 12l4 56l293 67v-1012q-11 -209 -107.5 -338t-216.5 -129q-59 0 -103 30t-44 81t30.5 79t67.5 28q94 0 129 -121q99 30 99 274zM350 1244q0 -46 -25.5 -81t-78.5 -35t-79 35t-26 80t26 80t79 35t78.5 -34t25.5 -80z
" />
    <glyph glyph-name="k" unicode="k" horiz-adv-x="993" 
d="M322 106q0 -12 10 -18t45 -10l80 -8l6 -70h-428l6 70l82 8q29 4 40 9t11 22v1105q0 37 -22 43l-144 46l6 51l308 73v-964l217 203q47 43 80.5 77.5t33.5 54.5q0 32 -57 42l-66 6l-6 67h426l-6 -67l-51 -8q-58 -6 -209 -142l-166 -151l293 -400q23 -29 40 -47t40 -20
l80 -8l6 -70h-264l-107 174l-192 277l-92 -84v-261z" />
    <glyph glyph-name="l" unicode="l" horiz-adv-x="546" 
d="M199 1214q0 37 -23 43l-149 46l6 51l311 73v-1321q0 -25 57 -28l86 -8l7 -70h-439l6 70l86 8q51 2 52 31v1105z" />
    <glyph glyph-name="m" unicode="m" horiz-adv-x="1654" 
d="M1225 944q105 0 177 -70q71 -70 71 -219v-546q0 -12 9 -19.5t50 -11.5l80 -8l6 -70h-430l6 70l80 8q33 2 42 9t9 22v452q0 205 -73.5 231.5t-125.5 26.5t-114 -32.5t-105 -71.5l1 -15l1 -591q0 -12 9.5 -19.5t50.5 -11.5l86 -8l6 -70h-436l6 70l80 8q33 2 42 9t9 22v452
q0 206 -74 232t-115 26q-110 0 -227 -100v-613q0 -25 55 -28l99 -8l6 -70h-447l7 70l81 8q51 2 52 31v575q0 72 -10.5 89.5t-23.5 23.5t-34 12l-82 12l2 56l295 67v-147h6q169 147 314 147q100 0 165 -61q41 -41 60 -101h8q176 162 326 162z" />
    <glyph glyph-name="n" unicode="n" horiz-adv-x="1110" 
d="M684 944q105 0 177 -70q71 -70 71 -223v-542q0 -12 10 -19.5t51 -11.5l82 -8l6 -70h-436l6 70l84 8q33 2 42 9t9 22v446q0 152 -52 208t-157 56t-231 -102v-611q0 -25 55 -28l95 -8l6 -70h-443l7 70l81 8q51 2 52 31v579q0 71 -11.5 90t-52.5 31l-86 12l2 56l295 67v-147
h10q174 147 328 147z" />
    <glyph glyph-name="o" unicode="o" horiz-adv-x="1060" 
d="M831 430q0 98 -26.5 195.5t-69.5 141.5q-97 99 -217 99t-202.5 -103t-82.5 -265q0 -250 113 -367q82 -82 201 -82t201.5 101.5t82.5 279.5zM991 475q0 -104 -35.5 -197.5t-99 -162t-151 -107.5t-187.5 -39t-183 37t-141.5 101.5t-90 152.5t-31.5 192.5t36.5 194.5
t101 156.5t152 103.5t185.5 37t180 -35t140.5 -97t91 -147.5t32.5 -189.5z" />
    <glyph glyph-name="p" unicode="p" horiz-adv-x="1073" 
d="M844 478q0 216 -106.5 274.5t-168.5 58.5q-136 0 -243 -123v-526q118 -113 236 -113t200 106.5t82 322.5zM532 -31q-107 0 -202 37h-4v-403q0 -26 57 -29l106 -8l7 -70h-459l6 70l84 8q51 2 51 31v1083q0 71 -10.5 89.5t-52.5 31.5l-86 12l4 56l293 67v-156h8
q55 59 132 102.5t163 43.5q169 0 270.5 -128t101.5 -330q0 -203 -130 -355t-339 -152z" />
    <glyph glyph-name="q" unicode="q" horiz-adv-x="1052" 
d="M748 737q-120 119 -230 119q-134 0 -211.5 -102.5t-77.5 -275.5t80 -278.5t207 -105.5t232 94v549zM559 938q110 0 215 -49h4l92 57h23v-1341q0 -12 10 -19.5t51 -11.5l82 -8l6 -70h-458l6 70l106 8q33 2 42.5 9t9.5 22v501h-7q-125 -135 -289 -135t-273 131t-109 338
t137 352.5t352 145.5z" />
    <glyph glyph-name="r" unicode="r" horiz-adv-x="757" 
d="M645 737q-55 0 -90 66q-42 -24 -108 -94.5t-101 -141.5v-461q0 -25 55 -28l109 -8l6 -70h-457l7 70l81 8q51 2 52 31v579q0 71 -11.5 90t-52.5 31l-84 12l4 56l291 67v-266h8q90 148 137.5 194t79 60t75.5 14t74 -30.5t30 -73.5t-25 -74t-80 -31z" />
    <glyph glyph-name="s" unicode="s" horiz-adv-x="823" 
d="M437 948q89 0 188 -33l61 21l16 -287h-90l-39 178q-76 50 -159 50q-82 0 -130 -41.5t-48 -91.5t16 -76.5t52 -52t122 -57.5q162 -59 235.5 -120t73.5 -181q0 -119 -95 -203.5t-257 -84.5t-270 43l-13 264h93l43 -182q74 -53 160 -53t148 49t62 134t-92 122t-140 54
q-121 43 -194.5 104.5t-73.5 174.5t86.5 191t244.5 78z" />
    <glyph glyph-name="t" unicode="t" horiz-adv-x="702" 
d="M662 86q-112 -117 -279 -117q-86 0 -151.5 62.5t-63.5 204.5l12 577l-162 8l2 60l140 84l96 129l72 -9l-2 -174h331l-14 -94h-317l-13 -545q-7 -186 160 -186q78 0 176 53z" />
    <glyph glyph-name="u" unicode="u" horiz-adv-x="1077" 
d="M523 94q107 0 229 105v608q0 14 -10.5 20.5t-45.5 10.5l-102 8l-6 67h311v-786q0 -33 19 -39l147 -33l-6 -49l-307 -37v150h-11q-177 -150 -327 -150q-106 0 -172 68q-76 72 -76 225l4 545q0 23 -12.5 23.5t-53.5 7.5l-77 8l-7 67h306l-15 -553q0 -154 52.5 -210
t159.5 -56z" />
    <glyph glyph-name="v" unicode="v" horiz-adv-x="942" 
d="M971 846l-68 -15q-34 -4 -51 -22.5t-41 -85.5l-283 -737h-102l-311 786q-14 33 -28.5 43t-51.5 16l-64 13l-8 69h428l-6 -67l-76 -10q-25 -4 -36 -15.5t-1 -40.5l242 -626l211 577q18 51 15 73.5t-44 26.5l-80 15l-6 67h367z" />
    <glyph glyph-name="w" unicode="w" horiz-adv-x="1413" 
d="M1438 846l-64 -10q-35 -4 -54 -25t-42 -88l-238 -737h-100l-223 596l-236 -596h-100l-270 786q-10 33 -24.5 45t-47.5 17l-62 10l-6 69h410l-6 -67l-68 -10q-58 -9 -39 -60l207 -614l199 524l-31 86q-12 33 -27.5 44t-50.5 15l-63 15l-6 67h415l-6 -67l-65 -10
q-60 -9 -41 -60l221 -618l172 563q16 55 9 81.5t-54 33.5l-64 10l-6 67h367z" />
    <glyph glyph-name="x" unicode="x" horiz-adv-x="974" 
d="M561 0l6 68l60 12q35 8 36 25.5t-30 62.5l-166 227h-2l-174 -225q-35 -47 -36 -66.5t40 -23.5l67 -12l7 -68h-375l6 68l70 12q33 4 56.5 25.5t70.5 74.5l221 269l-221 286q-41 53 -66 72.5t-59 23.5l-60 15l-6 67h418l-6 -67l-60 -12q-35 -4 -33.5 -22.5t33.5 -63.5
l148 -203h2l154 200q35 45 35.5 64.5t-40.5 24.5l-67 12l-6 67h379l-7 -67l-69 -12q-39 -4 -61.5 -25t-67.5 -74l-203 -243l238 -312q41 -53 65.5 -72.5t54.5 -25.5l58 -12l6 -70h-416z" />
    <glyph glyph-name="y" unicode="y" horiz-adv-x="925" 
d="M180 -328q80 0 117 -73q47 21 90 157l78 224v2l-356 790q-14 31 -26.5 42t-51.5 17l-60 13l-8 69h422l-6 -67l-70 -10q-56 -5 -35 -56l254 -604l195 555q16 53 9 74.5t-48 25.5l-76 15l-6 67h371l-6 -67l-68 -15q-33 -4 -50.5 -23.5t-43.5 -84.5l-250 -680l-98 -311
q-43 -133 -96 -201t-129 -68t-112 30t-36 75t23.5 74.5t72.5 29.5z" />
    <glyph glyph-name="z" unicode="z" horiz-adv-x="917" 
d="M328 72q223 0 280.5 14t79 35.5t35.5 54.5l76 170h86l-82 -346h-746v61l592 783h-65q-228 0 -279 -15.5t-67.5 -36t-22.5 -53.5l-33 -172h-90v346h737v-61l-589 -780h88z" />
    <glyph glyph-name="braceleft" unicode="{" horiz-adv-x="681" 
d="M227 -170q0 66 18.5 116t40 94t39 88t17.5 92q0 85 -77.5 122.5t-190.5 42.5l-23 57l23 56q268 11 268 159q0 53 -17.5 97.5t-39 89.5t-40 95t-18.5 116q0 137 100.5 216t288.5 91v-68q-123 -10 -187 -65t-64 -117t18 -106.5t57 -127t39 -155.5q0 -119 -86 -192.5
t-176 -77.5v-25q89 -4 175.5 -79.5t86.5 -168.5t-39 -174.5t-57 -125.5t-18 -87q0 -84 68.5 -140t182.5 -67v-63q-188 10 -288.5 90t-100.5 217z" />
    <glyph glyph-name="bar" unicode="|" horiz-adv-x="567" 
d="M238 1409h90v-1790h-90v1790z" />
    <glyph glyph-name="braceright" unicode="}" horiz-adv-x="681" 
d="M340 220q0 -48 18.5 -92t57.5 -124t39 -174q0 -137 -100.5 -217t-288.5 -90v63q121 10 186 68t65 120t-17 106t-57 127.5t-40 152.5q0 112 86.5 188t175.5 80v25q-90 4 -176 78t-86 171q0 66 18.5 117t40 96.5t38.5 90t17 106.5t-65.5 117t-185.5 65v68
q188 -12 288.5 -91t100.5 -216q0 -93 -39 -174.5t-57.5 -125t-18.5 -93.5q0 -153 268 -164l23 -56l-23 -57q-268 -11 -268 -165z" />
    <glyph glyph-name="asciitilde" unicode="~" 
d="M274 594q73 0 141 -50t102 -74t64 -24t53 27t54 107h53q-20 -117 -67 -178.5t-122 -61.5t-145.5 51t-103.5 73.5t-63 22.5t-54 -26.5t-55 -106.5h-53q40 240 196 240z" />
    <glyph glyph-name="exclamdown" unicode="&#xa1;" horiz-adv-x="575" 
d="M305 -31h-31q-55 0 -70.5 21.5t-10.5 54.5l75 829q2 12 20.5 12.5t20.5 -12.5l78 -829q4 -33 -11.5 -54.5t-70.5 -21.5zM403 1193q0 -46 -30.5 -80t-82.5 -34t-86 34t-34 80t34 81t86 35t82.5 -35t30.5 -81z" />
    <glyph glyph-name="cent" unicode="&#xa2;" horiz-adv-x="903" 
d="M225 482q0 -108 53.5 -208t143.5 -145l190 715q-43 22 -104 22t-112.5 -24.5t-89.5 -70.5t-59.5 -113.5t-21.5 -175.5zM555 98q146 0 256 127l41 -22q-59 -113 -153.5 -173.5t-209.5 -60.5h-13q-13 0 -21 2l-84 -311h-74l86 326q-138 35 -225.5 165.5t-87.5 294.5
q0 218 140 358t337 140q48 0 90 -8q3 0 98 364h74l-102 -385q129 -59 129 -159q0 -41 -27 -65.5t-55 -24.5q-68 0 -99 59l-166 -619q27 -8 66 -8z" />
    <glyph glyph-name="sterling" unicode="&#xa3;" horiz-adv-x="946" 
d="M266 830q0 204 108.5 332t297.5 128q100 0 159.5 -41t59.5 -112q0 -41 -28.5 -69t-73.5 -28t-76 40t-19 104q-42 26 -87 26q-93 0 -141 -73t-48 -252q0 -65 10 -275h334l6 -80h-338q2 -23 2 -28v-62q-4 -159 -70 -272v-10q29 -6 135.5 -41t179.5 -35t103 35q46 46 88 155
l45 -12q5 -124 -58 -216.5t-189 -92.5q-125 0 -220.5 73.5t-123.5 92.5q-104 -131 -291 -172l-23 69q154 47 214.5 140.5t60.5 228.5q0 71 -4 147h-207l6 80h196q-8 122 -8 220z" />
    <glyph glyph-name="currency" unicode="&#xa4;" horiz-adv-x="1056" 
d="M164 603q0 43 4 87h-125l6 80h129q40 231 183.5 372.5t345.5 141.5q128 0 217.5 -50t89.5 -120q0 -39 -24.5 -65.5t-71.5 -26.5t-78 46t-39 101q-53 33 -129 33q-143 0 -232.5 -117.5t-111.5 -314.5h424l6 -80h-436v-49q0 -68 6 -127h424l6 -80h-416q41 -174 137 -260
t217 -86q163 0 289 152l41 -23q-129 -248 -381 -248q-171 0 -296.5 125.5t-168.5 339.5h-137l6 80h119q-4 46 -4 89z" />
    <glyph glyph-name="yen" unicode="&#xa5;" horiz-adv-x="1253" 
d="M715 545v-174h381l6 -82h-387v-162q0 -31 37 -37l159 -20l7 -70h-564l6 70l160 20q37 6 37 37v162h-377l6 82h371v174h-377l6 82h332l-321 512q-28 45 -84 57l-86 14l-7 70h488l-6 -70l-103 -12q-35 -4 -30.5 -39t57.5 -119l233 -389h9l247 436q29 53 24 79t-42 34
l-78 10l-6 70h412l-6 -70l-60 -10q-41 -12 -71.5 -32.5t-65.5 -77.5l-272 -463h346l6 -82h-387z" />
    <glyph glyph-name="brokenbar" unicode="&#xa6;" horiz-adv-x="962" 
d="M362 45q240 0 240 344v764q0 31 -35 37l-159 20l-7 70h549l-6 -70l-137 -20q-35 -6 -35 -37v-723q0 -231 -115 -347t-289 -116t-266 68.5t-92 159.5q0 57 33 89.5t76 32.5t72.5 -25.5t29.5 -77.5t-39 -89q16 -27 60.5 -53.5t119.5 -26.5z" />
    <glyph glyph-name="section" unicode="&#xa7;" horiz-adv-x="880" 
d="M172 731q0 -76 56 -130t126 -99t139.5 -89t118.5 -100q95 58 95 148t-90 159t-196 133t-153 119q-39 -23 -67.5 -61.5t-28.5 -79.5zM817 510q0 -72 -51 -135.5t-123 -100.5q43 -62 43 -126q0 -116 -89 -198.5t-224 -82.5q-88 0 -157 40t-69 107q0 41 26 66.5t70 25.5
q91 0 122 -145q29 -14 85 -14t89.5 36.5t33.5 90.5q0 87 -60 143t-145 109t-196 125t-111 206q0 91 51.5 154t123.5 100q-43 69 -43 129q0 109 87.5 189t213.5 80q89 0 157 -40.5t68 -107.5q0 -41 -25.5 -66.5t-69.5 -25.5t-76 38t-46 107q-31 14 -78 14t-83 -32.5
t-36 -84.5q0 -84 60 -139.5t145 -108.5q86 -54 134 -86t87 -68.5t62.5 -81.5t23.5 -117z" />
    <glyph glyph-name="dieresis" unicode="&#xa8;" 
d="M317 1223q0 -47 -29.5 -84t-82.5 -37t-83 37t-30 84t30 83.5t83 36.5t82.5 -36.5t29.5 -83.5zM727 1223q0 -47 -29.5 -84t-83 -37t-83 37t-29.5 84t29.5 83.5t83 36.5t83 -36.5t29.5 -83.5z" />
    <glyph glyph-name="copyright" unicode="&#xa9;" horiz-adv-x="1503" 
d="M778 258q-182 0 -285.5 103.5t-103.5 270.5t106.5 277.5t276.5 110.5q101 0 166 -23l92 23v-260h-53l-43 151q-65 43 -146 43q-137 0 -210.5 -80t-73.5 -222t74.5 -236t214.5 -94q83 0 129 32l63 162h55l-26 -242l-58 13q-84 -29 -178 -29zM1348 639q0 123 -47.5 233.5
t-128 192.5t-189.5 130t-231.5 48t-231 -48t-189.5 -130t-128 -192.5t-47 -233.5t47 -232.5t128 -191.5t189.5 -130t231 -48t231.5 48t189.5 130t128 191.5t47.5 232.5zM1421 639q0 -139 -52 -261t-143 -213t-213 -143.5t-261.5 -52.5t-261 52.5t-213 143.5t-143.5 213
t-52 261t52 261t143.5 213t213 144.5t261 53.5t261.5 -53.5t213 -144.5t143 -213t52 -261z" />
    <glyph glyph-name="ordfeminine" unicode="&#xaa;" horiz-adv-x="692" 
d="M190 799q0 -53 29 -84t70 -31q77 0 149 64l6 200q-254 -53 -254 -149zM227 586q-63 0 -115.5 43t-52.5 116q0 98 100.5 157t286.5 93l3 68q6 80 -43.5 126t-103.5 46t-86 -15.5t-32 -25.5q0 -4 12.5 -22.5t12.5 -46.5t-19.5 -46t-54.5 -18t-56.5 20.5t-21.5 52.5
q0 59 102.5 115t211.5 56t160 -60.5t47 -163.5l-13 -327q-2 -39 9.5 -57.5t44 -18.5t71.5 22l6 -36q-23 -31 -63.5 -54.5t-85.5 -23.5q-94 0 -107 106h-4q-115 -106 -209 -106z" />
    <glyph glyph-name="guillemotleft" unicode="&#xab;" horiz-adv-x="997" 
d="M512 115l-444 295v86l444 295l18 -41l-297 -297l297 -297zM895 94l-442 316v86l442 315l18 -41l-315 -317l315 -318z" />
    <glyph glyph-name="logicalnot" unicode="&#xac;" horiz-adv-x="913" 
d="M225 226q0 -58 44.5 -100t104.5 -42t108 29.5t100 76.5l12 308q-291 -77 -330 -145.5t-39 -126.5zM582 121q-142 -152 -245 -152q-116 0 -188.5 69t-72.5 169q0 126 119.5 207t402.5 149v19q0 228 -80 252t-119 24t-67.5 -5t-52 -13.5t-38 -17.5t-14.5 -17t20.5 -31.5
t20.5 -60.5t-27.5 -66t-71.5 -29t-71.5 25t-27.5 64q0 77 128.5 158t232.5 81t162 -19.5t109 -86.5t41 -293l-16 -391q-4 -72 45 -72q33 0 105 57l34 -45q-101 -127 -190 -127q-55 0 -93 36t-38 116h-8z" />
    <glyph glyph-name="registered" unicode="&#xae;" horiz-adv-x="1503" 
d="M911 803q0 150 -198 141l-62 -2v-287l94 -10q72 6 119 44t47 114zM1030 821q0 -154 -178 -211l145 -221q27 -33 52 -41l69 -8l6 -59h-190l-45 81l-141 224l-97 4v-215q0 -20 21 -23l88 -12l4 -59h-324l6 59l76 12q20 2 21 23v538q0 20 -21 23l-76 12l-6 60h324
q132 0 199 -54.5t67 -132.5zM1348 639q0 123 -47.5 233.5t-128 192.5t-189.5 130t-231.5 48t-231 -48t-189.5 -130t-128 -192.5t-47 -233.5t47 -232.5t128 -191.5t189.5 -130t231 -48t231.5 48t189.5 130t128 191.5t47.5 232.5zM1421 639q0 -139 -52 -261t-143 -213
t-213 -143.5t-261.5 -52.5t-261 52.5t-213 143.5t-143.5 213t-52 261t52 261t143.5 213t213 144.5t261 53.5t261.5 -53.5t213 -144.5t143 -213t52 -261z" />
    <glyph glyph-name="macron" unicode="&#xaf;" 
d="M160 1104l6 84h493l7 -84h-506z" />
    <glyph glyph-name="degree" unicode="&#xb0;" horiz-adv-x="841" 
d="M240.5 1172q-66.5 -73 -66.5 -181t66 -183t179.5 -75t181 76t67.5 182t-68.5 180t-180.5 74t-178.5 -73zM665.5 747.5q-94.5 -98.5 -245.5 -98.5t-245.5 98.5t-94.5 242.5q0 143 94 241t246 98t246 -97.5t94 -241.5t-94.5 -242.5z" />
    <glyph glyph-name="plusminus" unicode="&#xb1;" horiz-adv-x="1503" 
d="M956 784.5q0 77.5 -51 119.5t-143 40h-66v-317q63 -11 90 -11q78 0 124 45.5t46 123zM790 557q-56 0 -94 6v-188q0 -18 21 -23l98 -12l2 -59h-330l5 59l77 12q20 2 21 23v540q0 18 -21 21l-77 14l-5 58h293q147 0 217 -57.5t70 -156.5t-82.5 -168t-194.5 -69zM1348 639
q0 123 -47.5 233.5t-128 192.5t-189.5 130t-231.5 48t-231 -48t-189.5 -130t-128 -192.5t-47 -233.5t47 -232.5t128 -191.5t189.5 -130t231 -48t231.5 48t189.5 130t128 191.5t47.5 232.5zM1421 639q0 -139 -52 -261t-143 -213t-213 -143.5t-261.5 -52.5t-261 52.5
t-213 143.5t-143.5 213t-52 261t52 261t143.5 213t213 144.5t261 53.5t261.5 -53.5t213 -144.5t143 -213t52 -261z" />
    <glyph glyph-name="acute" unicode="&#xb4;" 
d="M354 1040h-47l193 377h192z" />
    <glyph glyph-name="mu" unicode="&#xb5;" horiz-adv-x="940" 
d="M160 -219q0 -59 23.5 -99t63.5 -68t94 -42t150 -14t178.5 63.5t82.5 159.5q0 175 -222 182h-12l-225 -4q-45 -17 -89 -68t-44 -110zM639 614q0 145 -74 213q-55 51 -139 51t-140.5 -68.5t-56.5 -160.5q0 -169 88 -248q53 -43 127 -43t121 45q74 66 74 211zM317 305
q-96 -47 -96 -117q0 -30 36 -57t93 -27h32l206 5q136 0 218.5 -76.5t82.5 -171.5q0 -176 -143 -277.5t-363 -101.5q-166 0 -264.5 67.5t-98.5 176.5q0 158 193 241v8q-57 10 -94 53.5t-37 99.5t50 108.5t116 82.5q0 6 2 7q-76 34 -125 106t-49 160q0 156 102 254t260 98
q114 0 230 -51l278 -2v-119l-219 39v-10q64 -77 64 -164q0 -151 -105 -247.5t-256 -96.5q-71 0 -113 12z" />
    <glyph glyph-name="paragraph" unicode="&#xb6;" horiz-adv-x="1011" 
d="M536 532q-217 0 -335.5 105.5t-118.5 277.5q0 173 119.5 269t322.5 96h312v-1346h-99v627q-97 -29 -201 -29z" />
    <glyph glyph-name="periodcentered" unicode="&#xb7;" horiz-adv-x="462" 
d="M360 465q0 -49 -34.5 -88t-90.5 -39t-92.5 39t-36.5 88t36 86t92 37t91 -37t35 -86z" />
    <glyph glyph-name="cedilla" unicode="&#xb8;" 
d="M376 -211q-66 0 -140 -10v35l213 225h81l-151 -160q117 4 190.5 -43t73.5 -141t-107.5 -159.5t-310.5 -82.5l-16 45q319 45 319 180q0 49 -43 80t-109 31z" />
    <glyph glyph-name="ordmasculine" unicode="&#xba;" horiz-adv-x="788" 
d="M596 892q0 208 -84 292q-57 57 -136 57t-132.5 -69.5t-53.5 -177.5q0 -206 89 -294q49 -49 130 -49t134 67.5t53 173.5zM148.5 1200q99.5 105 249.5 105t244.5 -102.5t94.5 -254t-96.5 -257t-251 -105.5t-247.5 104t-93 254.5t99.5 255.5z" />
    <glyph glyph-name="guillemotright" unicode="&#xbb;" horiz-adv-x="997" 
d="M106 94l-20 41l315 318l-315 317l20 41l441 -315v-86zM487 115l-18 41l299 297l-299 297l18 41l445 -295v-86z" />
    <glyph glyph-name="onequarter" unicode="&#xbc;" horiz-adv-x="1228" 
d="M342 956v-45h432l2 52q12 203 134 333.5t292 130.5q72 0 125 -33.5t53 -82.5t-25.5 -74t-65.5 -25t-78 35t-50 103l-53 4q-176 -72 -176 -377v-66h282l-14 -94h-268v-711q0 -25 57 -28l133 -8l6 -70h-485l6 70l84 8q51 6 51 31v710h-442v-692q0 -33 37 -39l162 -18l6 -70
h-494l6 70l103 18q35 6 35 39v686l-172 8l12 90h149l2 33q20 208 140.5 335.5t283.5 127.5q72 0 125.5 -34t53.5 -83t-26 -73.5t-66 -24.5t-77.5 35t-50.5 102l-51 4q-178 -72 -178 -377z" />
    <glyph glyph-name="onehalf" unicode="&#xbd;" horiz-adv-x="1722" 
d="M932 977v-66h442v285q-6 -2 -20 -2q-103 0 -129 129l-117 23q-176 -72 -176 -369zM342 956v-45h432l2 52q12 209 137.5 336.5t323.5 127.5q78 0 143 -38l140 38v-1321q0 -25 57 -28l86 -8l6 -70h-438l6 70l86 8q51 2 51 31v708h-442v-711q0 -25 57 -28l133 -8l6 -70h-485
l6 70l84 8q51 6 51 31v710h-442v-692q0 -33 37 -39l162 -18l6 -70h-494l6 70l103 18q35 6 35 39v686l-172 8l12 90h149l2 33q20 208 140.5 335.5t283.5 127.5q72 0 125.5 -34t53.5 -83t-26 -73.5t-66 -24.5t-77.5 37t-50.5 100l-51 4q-178 -72 -178 -377z" />
    <glyph glyph-name="threequarters" unicode="&#xbe;" horiz-adv-x="1718" 
d="M932 977v-66h356l232 31v-836q0 -25 57 -28l86 -8l6 -70h-438l6 70l86 8q51 2 51 31v708h-442v-711q0 -25 57 -28l133 -8l6 -70h-485l6 70l84 8q51 6 51 31v710h-442v-692q0 -33 37 -39l162 -18l6 -70h-494l6 70l103 18q35 6 35 39v686l-172 8l12 90h149l2 33
q20 208 140.5 335.5t283.5 127.5q72 0 125.5 -34t53.5 -83t-26 -73.5t-66 -24.5t-77.5 37t-50.5 100l-51 4q-178 -72 -178 -377v-45h432l2 52q12 209 137.5 336.5t323.5 127.5q79 0 143 -38t64 -103q0 -41 -25.5 -66.5t-64.5 -25.5q-103 0 -129 129l-117 23
q-176 -72 -176 -369z" />
    <glyph glyph-name="questiondown" unicode="&#xbf;" horiz-adv-x="731" 
d="M543 1193q0 -46 -34 -80t-86 -34t-84 34t-32 80t32 81t84 35t86 -35t34 -81zM625 74q0 -44 -41 -74.5t-118 -30.5t-147.5 30t-123 77t-81 107.5t-28.5 149.5t53 141.5t125 80.5q123 48 167 79.5t44 86.5t-31.5 97t-76.5 83h61q143 -111 143 -238t-92 -170t-133 -61
q-104 -44 -143 -71t-39 -72q0 -68 87 -116t230 -48q59 0 125 12q19 -19 19 -63z" />
    <glyph glyph-name="Agrave" unicode="&#xc0;" horiz-adv-x="1202" 
d="M616 1386l-337 377h186l197 -377h-46zM582 1122h-11l-194 -575h387zM729 0l6 70l117 14q40 8 42 36.5t-28 117.5l-75 225h-443l-74 -223q-29 -84 -29.5 -116t36.5 -40l102 -14l6 -70h-422l6 70l82 14q49 13 79 61t93 232l285 803v65l170 72l395 -1188q10 -33 51 -39
l121 -20l6 -70h-526z" />
    <glyph glyph-name="Aacute" unicode="&#xc1;" horiz-adv-x="1202" 
d="M571 1386h-47l193 377h192zM582 1122h-11l-194 -575h387zM729 0l6 70l117 14q40 8 42 36.5t-28 117.5l-75 225h-443l-74 -223q-29 -84 -29.5 -116t36.5 -40l102 -14l6 -70h-422l6 70l82 14q49 13 79 61t93 232l285 803v65l170 72l395 -1188q10 -33 51 -39l121 -20l6 -70
h-526z" />
    <glyph glyph-name="Acircumflex" unicode="&#xc2;" horiz-adv-x="1202" 
d="M811 1386l-209 252h-4l-209 -252h-55l227 398h78l227 -398h-55zM582 1122h-11l-194 -575h387zM729 0l6 70l117 14q40 8 42 36.5t-28 117.5l-75 225h-443l-74 -223q-29 -84 -29.5 -116t36.5 -40l102 -14l6 -70h-422l6 70l82 14q49 13 79 61t93 232l285 803v65l170 72
l395 -1188q10 -33 51 -39l121 -20l6 -70h-526z" />
    <glyph glyph-name="Atilde" unicode="&#xc3;" horiz-adv-x="1202" 
d="M430 1559q-31 0 -54.5 -27t-53.5 -107h-54q20 119 67.5 179.5t123.5 60.5t145.5 -50t103 -73.5t63.5 -23.5t53.5 26.5t54.5 106.5h53q-41 -240 -197 -240q-68 0 -138.5 51t-103 74t-63.5 23zM582 1122h-11l-194 -575h387zM729 0l6 70l117 14q40 8 42 36.5t-28 117.5
l-75 225h-443l-74 -223q-29 -84 -29.5 -116t36.5 -40l102 -14l6 -70h-422l6 70l82 14q49 13 79 61t93 232l285 803v65l170 72l395 -1188q10 -33 51 -39l121 -20l6 -70h-526z" />
    <glyph glyph-name="Adieresis" unicode="&#xc4;" horiz-adv-x="1202" 
d="M508 1556.5q0 -47.5 -29.5 -84t-83 -36.5t-83 36.5t-29.5 84t29.5 84t83 36.5t83 -36.5t29.5 -84zM918 1556.5q0 -47.5 -30 -84t-83 -36.5t-83 36.5t-30 84t30 84t83 36.5t83 -36.5t30 -84zM582 1122h-11l-194 -575h387zM729 0l6 70l117 14q40 8 42 36.5t-28 117.5
l-75 225h-443l-74 -223q-29 -84 -29.5 -116t36.5 -40l102 -14l6 -70h-422l6 70l82 14q49 13 79 61t93 232l285 803v65l170 72l395 -1188q10 -33 51 -39l121 -20l6 -70h-526z" />
    <glyph glyph-name="Aring" unicode="&#xc5;" horiz-adv-x="1202" 
d="M582 1124h-11l-194 -577h387zM535 1241q-109 43 -109 179q0 66 48 120.5t134 54.5t134.5 -54t48.5 -130q0 -108 -86 -162l372 -1120q10 -33 51 -39l121 -20l6 -70h-526l6 70l117 14q40 8 42 36.5t-28 117.5l-75 225h-443l-74 -223q-29 -84 -29.5 -116t36.5 -40l102 -14
l6 -70h-422l6 70l82 14q49 13 79 61t93 232zM731 1410q0 52 -31.5 91t-89.5 39t-90.5 -39t-32.5 -91t32 -91t90 -39t90 39t32 91z" />
    <glyph glyph-name="AE" unicode="&#xc6;" horiz-adv-x="1646" 
d="M756 1194h-19l-334 -647h353v647zM756 127v336h-396l-102 -201q-53 -108 -57 -133t4 -32t22 -11l103 -16l6 -70h-442l6 70l86 14q53 13 92.5 61t134.5 234l381 725q43 80 -41 94l-88 12l-6 70h1079v-371h-80l-45 207q-8 31 -20.5 48.5t-65 28.5t-352.5 11h-62v-514h60
q134 0 161 5t35.5 12.5t12.5 21.5l47 137h65l-41 -426h-65l-14 131q-2 12 -7.5 20.5t-33 16.5t-164.5 8h-56v-540h35q320 0 383.5 12t78.5 29.5t24 46.5l51 198h92l-39 -362h-950l6 70l125 20q37 6 37 37z" />
    <glyph glyph-name="Ccedilla" unicode="&#xc7;" horiz-adv-x="1366" 
d="M740 -211q-65 0 -142 -10v35l147 157q-282 12 -466.5 186t-184.5 475q0 300 201.5 488.5t505.5 188.5q159 0 284 -39l156 33v-416h-86l-53 266q-130 76 -314 76q-222 0 -364.5 -162.5t-142.5 -425.5q0 -262 140 -428t390 -166q151 0 264 62l86 276h90l-49 -387l-94 20
q-132 -41 -281 -49l-86 -90q117 4 191 -43t74 -141t-107.5 -159.5t-310.5 -82.5l-17 45q320 45 320 180q0 49 -43 80t-108 31z" />
    <glyph glyph-name="Egrave" unicode="&#xc8;" horiz-adv-x="1193" 
d="M639 1386l-338 377h186l197 -377h-45zM252 111v1060q0 12 -10.5 17.5t-42.5 9.5l-107 12l-6 70h983v-371h-88l-45 207q-8 31 -21.5 48.5t-66 28.5t-350.5 11h-78v-514h78q130 0 157 5t36 12.5t14 21.5l45 137h71l-43 -426h-67l-17 131q0 26 -32.5 35.5t-167.5 9.5h-74
v-540h55q315 0 377.5 12t78 29.5t25.5 46.5l52 198h100l-39 -362h-983l6 70l107 12q53 6 53 29z" />
    <glyph glyph-name="Eacute" unicode="&#xc9;" horiz-adv-x="1193" 
d="M586 1386h-47l192 377h193zM252 111v1060q0 12 -10.5 17.5t-42.5 9.5l-107 12l-6 70h983v-371h-88l-45 207q-8 31 -21.5 48.5t-66 28.5t-350.5 11h-78v-514h78q130 0 157 5t36 12.5t14 21.5l45 137h71l-43 -426h-67l-17 131q0 26 -32.5 35.5t-167.5 9.5h-74v-540h55
q315 0 377.5 12t78 29.5t25.5 46.5l52 198h100l-39 -362h-983l6 70l107 12q53 6 53 29z" />
    <glyph glyph-name="Ecircumflex" unicode="&#xca;" horiz-adv-x="1193" 
d="M809 1386l-209 252h-4l-209 -252h-55l227 398h78l227 -398h-55zM252 111v1060q0 12 -10.5 17.5t-42.5 9.5l-107 12l-6 70h983v-371h-88l-45 207q-8 31 -21.5 48.5t-66 28.5t-350.5 11h-78v-514h78q130 0 157 5t36 12.5t14 21.5l45 137h71l-43 -426h-67l-17 131
q0 26 -32.5 35.5t-167.5 9.5h-74v-540h55q315 0 377.5 12t78 29.5t25.5 46.5l52 198h100l-39 -362h-983l6 70l107 12q53 6 53 29z" />
    <glyph glyph-name="Edieresis" unicode="&#xcb;" horiz-adv-x="1193" 
d="M506 1556.5q0 -47.5 -30 -84t-83 -36.5t-82.5 36.5t-29.5 84t29.5 84t82.5 36.5t83 -36.5t30 -84zM915 1556.5q0 -47.5 -29.5 -84t-82.5 -36.5t-83 36.5t-30 84t30 84t83 36.5t82.5 -36.5t29.5 -84zM252 111v1060q0 12 -10.5 17.5t-42.5 9.5l-107 12l-6 70h983v-371h-88
l-45 207q-8 31 -21.5 48.5t-66 28.5t-350.5 11h-78v-514h78q130 0 157 5t36 12.5t14 21.5l45 137h71l-43 -426h-67l-17 131q0 26 -32.5 35.5t-167.5 9.5h-74v-540h55q315 0 377.5 12t78 29.5t25.5 46.5l52 198h100l-39 -362h-983l6 70l107 12q53 6 53 29z" />
    <glyph glyph-name="Igrave" unicode="&#xcc;" horiz-adv-x="718" 
d="M354 1386l-338 377h187l196 -377h-45zM276 111v1060q0 12 -10 17.5t-43 9.5l-127 12l-6 70h541l-6 -70l-127 -12q-53 -6 -54 -29v-1060q0 -20 54 -27l127 -12l6 -70h-541l6 70l127 12q53 6 53 29z" />
    <glyph glyph-name="Iacute" unicode="&#xcd;" horiz-adv-x="718" 
d="M369 1386h-47l192 377h193zM276 111v1060q0 12 -10 17.5t-43 9.5l-127 12l-6 70h541l-6 -70l-127 -12q-53 -6 -54 -29v-1060q0 -20 54 -27l127 -12l6 -70h-541l6 70l127 12q53 6 53 29z" />
    <glyph glyph-name="Icircumflex" unicode="&#xce;" horiz-adv-x="718" 
d="M569 1386l-209 252h-4l-209 -252h-55l227 398h78l228 -398h-56zM276 111v1060q0 12 -10 17.5t-43 9.5l-127 12l-6 70h541l-6 -70l-127 -12q-53 -6 -54 -29v-1060q0 -20 54 -27l127 -12l6 -70h-541l6 70l127 12q53 6 53 29z" />
    <glyph glyph-name="Idieresis" unicode="&#xcf;" horiz-adv-x="718" 
d="M266 1563q0 -47 -29.5 -84t-83 -37t-83 37t-29.5 84t29.5 83.5t83 36.5t83 -36.5t29.5 -83.5zM676 1563q0 -47 -30 -84t-83 -37t-82.5 37t-29.5 84t29.5 83.5t82.5 36.5t83 -36.5t30 -83.5zM276 111v1060q0 12 -10 17.5t-43 9.5l-127 12l-6 70h541l-6 -70l-127 -12
q-53 -6 -54 -29v-1060q0 -20 54 -27l127 -12l6 -70h-541l6 70l127 12q53 6 53 29z" />
    <glyph glyph-name="Eth" unicode="&#xd0;" horiz-adv-x="1370" 
d="M252 694v459q0 31 -37 37l-125 20l-6 70l444 6q338 4 548 -171t210 -461t-193.5 -470t-566.5 -184h-442l6 70l125 20q37 6 37 37v487h-184l6 80h178zM410 614v-512l165 -26q247 -4 393 148t146 407t-163 415t-464 160h-77v-512h254l6 -80h-260z" />
    <glyph glyph-name="Ntilde" unicode="&#xd1;" horiz-adv-x="1505" 
d="M925 1518q30 0 53 26.5t54 106.5h53q-20 -117 -67 -178.5t-122 -61.5t-145.5 51t-103.5 74t-63 23t-54 -27t-55 -107h-53q40 240 196 240q73 0 141 -50t102 -73.5t64 -23.5zM1264 903v-919h-99l-805 1126h-8v-733q0 -193 8.5 -232t21.5 -47t36 -12l123 -16l6 -70h-471
l6 70l123 16q23 4 36 12t21 48t8 231v676q0 66 -14 94.5t-49 44.5l-117 18l-6 70h354l738 -1032h6v655q0 193 -8.5 232t-21.5 47t-36 12l-123 16l-6 70h473l-6 -70l-123 -16q-23 -4 -36 -12t-22 -46.5t-9 -232.5z" />
    <glyph glyph-name="Ograve" unicode="&#xd2;" horiz-adv-x="1513" 
d="M791 1386l-338 377h186l197 -377h-45zM1233 626q0 272 -141 439.5t-340 167.5t-335 -157t-136 -431t141.5 -439t338.5 -165t334.5 156.5t137.5 428.5zM1419 650q0 -142 -50 -265t-139 -215t-211 -146.5t-264 -54.5q-285 0 -473 184t-188 476q0 137 50.5 260t191.5 270.5
t424 147.5q282 0 420.5 -135.5t188.5 -257.5t50 -264z" />
    <glyph glyph-name="Oacute" unicode="&#xd3;" horiz-adv-x="1513" 
d="M700 1386h-47l193 377h192zM1233 626q0 272 -141 439.5t-340 167.5t-335 -157t-136 -431t141.5 -439t338.5 -165t334.5 156.5t137.5 428.5zM1419 650q0 -142 -50 -265t-139 -215t-211 -146.5t-264 -54.5q-285 0 -473 184t-188 476q0 137 50.5 260t191.5 270.5t424 147.5
q282 0 420.5 -135.5t188.5 -257.5t50 -264z" />
    <glyph glyph-name="Ocircumflex" unicode="&#xd4;" horiz-adv-x="1513" 
d="M967 1386l-209 252h-4l-209 -252h-56l228 398h78l227 -398h-55zM1233 626q0 272 -141 439.5t-340 167.5t-335 -157t-136 -431t141.5 -439t338.5 -165t334.5 156.5t137.5 428.5zM1419 650q0 -142 -50 -265t-139 -215t-211 -146.5t-264 -54.5q-285 0 -473 184t-188 476
q0 137 50.5 260t191.5 270.5t424 147.5q282 0 420.5 -135.5t188.5 -257.5t50 -264z" />
    <glyph glyph-name="Otilde" unicode="&#xd5;" horiz-adv-x="1513" 
d="M1087 1651q-41 -240 -189 -240q-75 0 -145.5 51t-103.5 74t-63 23t-54 -27t-55 -107h-53q20 119 67.5 179.5t124.5 60.5t145 -50t102 -73.5t64 -23.5t53.5 26.5t53.5 106.5h53zM1233 626q0 272 -141 439.5t-340 167.5t-335 -157t-136 -431t141.5 -439t338.5 -165
t334.5 156.5t137.5 428.5zM1419 650q0 -142 -50 -265t-139 -215t-211 -146.5t-264 -54.5q-285 0 -473 184t-188 476q0 137 50.5 260t191.5 270.5t424 147.5q282 0 420.5 -135.5t188.5 -257.5t50 -264z" />
    <glyph glyph-name="Odieresis" unicode="&#xd6;" horiz-adv-x="1513" 
d="M664 1556.5q0 -47.5 -30 -84t-83 -36.5t-83 36.5t-30 84t30 84t83 36.5t83 -36.5t30 -84zM1073 1556.5q0 -47.5 -29.5 -84t-83 -36.5t-83 36.5t-29.5 84t29.5 84t83 36.5t83 -36.5t29.5 -84zM1233 626q0 272 -141 439.5t-340 167.5t-335 -157t-136 -431t141.5 -439
t338.5 -165t334.5 156.5t137.5 428.5zM1419 650q0 -142 -50 -265t-139 -215t-211 -146.5t-264 -54.5q-285 0 -473 184t-188 476q0 137 50.5 260t191.5 270.5t424 147.5q282 0 420.5 -135.5t188.5 -257.5t50 -264z" />
    <glyph glyph-name="multiply" unicode="&#xd7;" horiz-adv-x="995" 
d="M846 57l-344 346l-346 -346l-76 76l346 346l-346 344l76 76l346 -346l346 348l76 -76l-349 -346l347 -346z" />
    <glyph glyph-name="Oslash" unicode="&#xd8;" horiz-adv-x="1513" 
d="M1217 624q0 142 -48.5 262t-126.5 199q-158 -267 -326.5 -560t-201.5 -347l-25 -41q119 -82 261 -82q204 0 335.5 151t131.5 418zM719 1227q-201 0 -333 -153.5t-132 -407.5q0 -302 176 -478l553 949q-115 90 -264 90zM86 603q0 307 180 506.5t469 199.5q170 0 307 -72
l99 172h90l-121 -209q127 -86 200.5 -226t73.5 -300t-45 -283t-129 -216t-204.5 -149.5t-276.5 -56.5t-297 68q-14 -27 -108 -189h-91l132 228q-129 84 -204 225t-75 302z" />
    <glyph glyph-name="Ugrave" unicode="&#xd9;" horiz-adv-x="1456" 
d="M760 1386l-338 377h186l197 -377h-45zM1210 903v-479q0 -212 -131.5 -333.5t-421.5 -121.5t-355.5 174t-65.5 297v731q0 12 -10.5 17.5t-43.5 9.5l-106 12l-6 70h499l-6 -70l-106 -12q-53 -6 -54 -29v-708q0 -303 147.5 -345t227.5 -42q174 0 262 99t88 261v469
q0 191 -8 231t-21.5 48t-35.5 12l-123 16l-6 70h471l-6 -70l-121 -16q-23 -4 -36 -12t-22.5 -46t-9.5 -233z" />
    <glyph glyph-name="Uacute" unicode="&#xda;" horiz-adv-x="1456" 
d="M731 1386h-47l193 377h192zM1210 903v-479q0 -212 -131.5 -333.5t-421.5 -121.5t-355.5 174t-65.5 297v731q0 12 -10.5 17.5t-43.5 9.5l-106 12l-6 70h499l-6 -70l-106 -12q-53 -6 -54 -29v-708q0 -303 147.5 -345t227.5 -42q174 0 262 99t88 261v469q0 191 -8 231
t-21.5 48t-35.5 12l-123 16l-6 70h471l-6 -70l-121 -16q-23 -4 -36 -12t-22.5 -46t-9.5 -233z" />
    <glyph glyph-name="Ucircumflex" unicode="&#xdb;" horiz-adv-x="1456" 
d="M967 1386l-209 252h-4l-209 -252h-56l228 398h78l227 -398h-55zM1210 903v-479q0 -212 -131.5 -333.5t-421.5 -121.5t-355.5 174t-65.5 297v731q0 12 -10.5 17.5t-43.5 9.5l-106 12l-6 70h499l-6 -70l-106 -12q-53 -6 -54 -29v-708q0 -303 147.5 -345t227.5 -42
q174 0 262 99t88 261v469q0 191 -8 231t-21.5 48t-35.5 12l-123 16l-6 70h471l-6 -70l-121 -16q-23 -4 -36 -12t-22.5 -46t-9.5 -233z" />
    <glyph glyph-name="Udieresis" unicode="&#xdc;" horiz-adv-x="1456" 
d="M635 1556.5q0 -47.5 -30 -84t-83 -36.5t-82.5 36.5t-29.5 84t29.5 84t82.5 36.5t83 -36.5t30 -84zM1044 1556.5q0 -47.5 -29.5 -84t-82.5 -36.5t-83 36.5t-30 84t30 84t83 36.5t82.5 -36.5t29.5 -84zM1210 903v-479q0 -212 -131.5 -333.5t-421.5 -121.5t-355.5 174
t-65.5 297v731q0 12 -10.5 17.5t-43.5 9.5l-106 12l-6 70h499l-6 -70l-106 -12q-53 -6 -54 -29v-708q0 -303 147.5 -345t227.5 -42q174 0 262 99t88 261v469q0 191 -8 231t-21.5 48t-35.5 12l-123 16l-6 70h471l-6 -70l-121 -16q-23 -4 -36 -12t-22.5 -46t-9.5 -233z" />
    <glyph glyph-name="Yacute" unicode="&#xdd;" horiz-adv-x="1239" 
d="M565 1393h-47l193 376h192zM709 109q0 -12 10 -17.5t43 -9.5l139 -12l6 -70h-567l6 70l141 12q53 6 54 29v426l-381 602q-35 46 -84 57l-84 14l-6 70h499l-6 -70l-102 -12q-35 -4 -31 -39t55 -119l246 -407h10l267 454q60 97 -17 113l-78 10l-6 70h414l-6 -70l-62 -10
q-41 -12 -71.5 -32.5t-67.5 -77.5l-321 -533v-448z" />
    <glyph glyph-name="Thorn" unicode="&#xde;" horiz-adv-x="1181" 
d="M600 344q147 0 227 79t80 225t-99 228t-282 78h-106v-589q90 -21 180 -21zM610 270q-86 0 -190 11v-172q0 -12 11 -17.5t42 -9.5l145 -12l7 -70h-539l6 70l107 12q53 6 53 29v1060q0 12 -10.5 17.5t-42.5 9.5l-107 12l-6 70h500l-6 -70l-107 -12q-53 -7 -53 -29v-137h162
q244 0 374.5 -98.5t130.5 -271.5t-105 -255.5t-195.5 -109.5t-176.5 -27z" />
    <glyph glyph-name="germandbls" unicode="&#xdf;" horiz-adv-x="1349" 
d="M953 948q91 0 184 -33l63 21l17 -287h-93l-39 178q-76 50 -158 50q-81 0 -129 -41.5t-48 -91.5t16 -76.5t54.5 -54t120.5 -56.5q158 -56 233 -119t75 -181q0 -119 -95 -203.5t-256 -84.5t-273 43l-13 264h93l45 -182q74 -53 160 -53t148 49t62 134t-92 122t-140 54
q-121 43 -194 104t-73 175q0 113 86 191t246 78zM342 977v-871q0 -25 57 -28l99 -8l6 -70h-451l6 70l86 8q51 2 52 31v704l-172 8l12 90h149l2 52q8 202 132.5 333t291.5 131q72 0 125.5 -33.5t53.5 -82.5t-26 -74t-66 -25t-78 36.5t-50 101.5l-51 4q-178 -72 -178 -377z
" />
    <glyph glyph-name="agrave" unicode="&#xe0;" horiz-adv-x="899" 
d="M225 226q0 -58 44.5 -100t104.5 -42t108 29.5t100 76.5l12 308q-291 -77 -330 -145.5t-39 -126.5zM582 121q-142 -152 -245 -152q-116 0 -188.5 69t-72.5 169q0 126 119.5 207t402.5 149v19q0 228 -80 252t-119 24t-67.5 -5t-52 -13.5t-38 -17.5t-14.5 -17t20.5 -31.5
t20.5 -60.5t-27.5 -66t-71.5 -29t-71.5 25t-27.5 64q0 77 128.5 158t232.5 81t162 -19.5t109 -86.5t41 -293l-16 -391q-4 -72 45 -72q33 0 105 57l34 -45q-101 -127 -190 -127q-55 0 -93 36t-38 116h-8zM467 1040l-338 377h186l197 -377h-45z" />
    <glyph glyph-name="aacute" unicode="&#xe1;" horiz-adv-x="899" 
d="M395 1040h-47l193 377h192zM225 226q0 -58 44.5 -100t104.5 -42t108 29.5t100 76.5l12 308q-291 -77 -330 -145.5t-39 -126.5zM582 121q-142 -152 -245 -152q-116 0 -188.5 69t-72.5 169q0 126 119.5 207t402.5 149v19q0 228 -80 252t-119 24t-67.5 -5t-52 -13.5
t-38 -17.5t-14.5 -17t20.5 -31.5t20.5 -60.5t-27.5 -66t-71.5 -29t-71.5 25t-27.5 64q0 77 128.5 158t232.5 81t162 -19.5t109 -86.5t41 -293l-16 -391q-4 -72 45 -72q33 0 105 57l34 -45q-101 -127 -190 -127q-55 0 -93 36t-38 116h-8z" />
    <glyph glyph-name="acircumflex" unicode="&#xe2;" horiz-adv-x="899" 
d="M625 1040l-209 252h-4l-209 -252h-56l228 398h78l227 -398h-55zM225 226q0 -58 44.5 -100t104.5 -42t108 29.5t100 76.5l12 308q-291 -77 -330 -145.5t-39 -126.5zM582 121q-142 -152 -245 -152q-116 0 -188.5 69t-72.5 169q0 126 119.5 207t402.5 149v19q0 228 -80 252
t-119 24t-67.5 -5t-52 -13.5t-38 -17.5t-14.5 -17t20.5 -31.5t20.5 -60.5t-27.5 -66t-71.5 -29t-71.5 25t-27.5 64q0 77 128.5 158t232.5 81t162 -19.5t109 -86.5t41 -293l-16 -391q-4 -72 45 -72q33 0 105 57l34 -45q-101 -127 -190 -127q-55 0 -93 36t-38 116h-8z" />
    <glyph glyph-name="atilde" unicode="&#xe3;" horiz-adv-x="899" 
d="M248 1212q-31 0 -54.5 -26.5t-54.5 -106.5h-53q20 119 67.5 179.5t123.5 60.5t145.5 -50t103 -74t63.5 -24t53.5 27t53.5 107h54q-41 -240 -197 -240q-68 0 -138.5 51t-103 73.5t-63.5 22.5zM225 226q0 -58 44.5 -100t104.5 -42t108 29.5t100 76.5l12 308
q-291 -77 -330 -145.5t-39 -126.5zM582 121q-142 -152 -245 -152q-116 0 -188.5 69t-72.5 169q0 126 119.5 207t402.5 149v19q0 228 -80 252t-119 24t-67.5 -5t-52 -13.5t-38 -17.5t-14.5 -17t20.5 -31.5t20.5 -60.5t-27.5 -66t-71.5 -29t-71.5 25t-27.5 64q0 77 128.5 158
t232.5 81t162 -19.5t109 -86.5t41 -293l-16 -391q-4 -72 45 -72q33 0 105 57l34 -45q-101 -127 -190 -127q-55 0 -93 36t-38 116h-8z" />
    <glyph glyph-name="adieresis" unicode="&#xe4;" horiz-adv-x="899" 
d="M338 1223q0 -47 -29.5 -84t-83 -37t-83 37t-29.5 84t29.5 83.5t83 36.5t83 -36.5t29.5 -83.5zM748 1223q0 -47 -30 -84t-83 -37t-83 37t-30 84t30 83.5t83 36.5t83 -36.5t30 -83.5zM225 226q0 -58 44.5 -100t104.5 -42t108 29.5t100 76.5l12 308q-291 -77 -330 -145.5
t-39 -126.5zM582 121q-142 -152 -245 -152q-116 0 -188.5 69t-72.5 169q0 126 119.5 207t402.5 149v19q0 228 -80 252t-119 24t-67.5 -5t-52 -13.5t-38 -17.5t-14.5 -17t20.5 -31.5t20.5 -60.5t-27.5 -66t-71.5 -29t-71.5 25t-27.5 64q0 77 128.5 158t232.5 81t162 -19.5
t109 -86.5t41 -293l-16 -391q-4 -72 45 -72q33 0 105 57l34 -45q-101 -127 -190 -127q-55 0 -93 36t-38 116h-8z" />
    <glyph glyph-name="aring" unicode="&#xe5;" horiz-adv-x="899" 
d="M563 1240q0 52 -31.5 91t-89 39t-89 -39t-31.5 -91t31.5 -91t89 -39t89 39t31.5 91zM625 1239q0 -76 -48.5 -130t-134.5 -54t-134 54t-48 130t48 130t134 54t134.5 -54t48.5 -130zM225 226q0 -58 44.5 -100t104.5 -42t108 29.5t100 76.5l12 308q-291 -77 -330 -145.5
t-39 -126.5zM582 121q-142 -152 -245 -152q-116 0 -188.5 69t-72.5 169q0 126 119.5 207t402.5 149v19q0 228 -80 252t-119 24t-67.5 -5t-52 -13.5t-38 -17.5t-14.5 -17t20.5 -31.5t20.5 -60.5t-27.5 -66t-71.5 -29t-71.5 25t-27.5 64q0 77 128.5 158t232.5 81t162 -19.5
t109 -86.5t41 -293l-16 -391q-4 -72 45 -72q33 0 105 57l34 -45q-101 -127 -190 -127q-55 0 -93 36t-38 116h-8z" />
    <glyph glyph-name="ae" unicode="&#xe6;" horiz-adv-x="1456" 
d="M625 225q-37 109 -37 173t6 100q-291 -77 -330 -145.5t-39 -126.5t45 -100t143.5 -42t211.5 141zM1002 -29q-118 0 -209 55.5t-144 151.5q-96 -142 -187 -175.5t-139 -33.5q-102 0 -174.5 69t-72.5 169q0 127 124 208t398 148v25q16 208 -72 239t-127 31t-67.5 -5
t-52 -13.5t-38 -17.5t-14.5 -17t20.5 -31.5t20.5 -60.5t-27.5 -66t-71.5 -29t-71.5 25t-27.5 64q0 77 128.5 158t250.5 81q229 0 274 -153q138 151 336 151q145 0 230 -82t85 -215q0 -64 -12 -108l-617 8l-2 -49q0 -176 92 -287t241 -111t251 125l41 -24
q-55 -111 -151.5 -170.5t-214.5 -59.5zM985 610h225q6 121 -45 191.5t-142 70.5t-168.5 -73t-100.5 -191q131 2 231 2z" />
    <glyph glyph-name="ccedilla" unicode="&#xe7;" horiz-adv-x="897" 
d="M449 -211q-65 0 -142 -10v35l150 157q-173 12 -280 139.5t-107 334.5t139.5 353t337.5 146q131 0 212 -56.5t81 -124.5t-34 -91t-80 -23t-77 51.5t-8 128.5v5q-52 36 -121 36q-132 0 -213.5 -103t-81.5 -272t91.5 -282t239.5 -113q147 0 253 125l41 -24
q-47 -96 -127 -153.5t-180 -72.5l-92 -96q117 4 190.5 -43t73.5 -141t-107.5 -159.5t-310.5 -82.5l-16 45q319 45 319 180q0 49 -43 80t-108 31z" />
    <glyph glyph-name="egrave" unicode="&#xe8;" horiz-adv-x="933" 
d="M467 610h223q8 121 -44 191.5t-142 70.5t-167.5 -73t-100.5 -191q131 2 231 2zM498 -29q-194 0 -311 129.5t-117 339.5t136 357t333 147q145 0 230 -82t85 -215q0 -53 -10 -108l-617 8q-2 -6 -2 -11v-38q0 -177 91.5 -287.5t238.5 -110.5q148 0 254 125l41 -24
q-55 -111 -151.5 -170.5t-200.5 -59.5zM520 1040l-338 377h187l196 -377h-45z" />
    <glyph glyph-name="eacute" unicode="&#xe9;" horiz-adv-x="933" 
d="M422 1040h-47l192 377h193zM467 610h223q8 121 -44 191.5t-142 70.5t-167.5 -73t-100.5 -191q131 2 231 2zM498 -29q-194 0 -311 129.5t-117 339.5t136 357t333 147q145 0 230 -82t85 -215q0 -53 -10 -108l-617 8q-2 -6 -2 -11v-38q0 -177 91.5 -287.5t238.5 -110.5
q148 0 254 125l41 -24q-55 -111 -151.5 -170.5t-200.5 -59.5z" />
    <glyph glyph-name="ecircumflex" unicode="&#xea;" horiz-adv-x="933" 
d="M686 1040l-209 252h-4l-209 -252h-55l227 398h78l227 -398h-55zM467 610h223q8 121 -44 191.5t-142 70.5t-167.5 -73t-100.5 -191q131 2 231 2zM498 -29q-194 0 -311 129.5t-117 339.5t136 357t333 147q145 0 230 -82t85 -215q0 -53 -10 -108l-617 8q-2 -6 -2 -11v-38
q0 -177 91.5 -287.5t238.5 -110.5q148 0 254 125l41 -24q-55 -111 -151.5 -170.5t-200.5 -59.5z" />
    <glyph glyph-name="edieresis" unicode="&#xeb;" horiz-adv-x="933" 
d="M383 1223q0 -47 -29.5 -84t-83 -37t-83 37t-29.5 84t29.5 83.5t83 36.5t83 -36.5t29.5 -83.5zM793 1223q0 -47 -30 -84t-83 -37t-83 37t-30 84t30 83.5t83 36.5t83 -36.5t30 -83.5zM467 610h223q8 121 -44 191.5t-142 70.5t-167.5 -73t-100.5 -191q131 2 231 2zM498 -29
q-194 0 -311 129.5t-117 339.5t136 357t333 147q145 0 230 -82t85 -215q0 -53 -10 -108l-617 8q-2 -6 -2 -11v-38q0 -177 91.5 -287.5t238.5 -110.5q148 0 254 125l41 -24q-55 -111 -151.5 -170.5t-200.5 -59.5z" />
    <glyph glyph-name="igrave" unicode="&#xec;" horiz-adv-x="544" 
d="M201 109v575q0 72 -10.5 89.5t-23.5 23.5t-36 12l-82 12l4 56l293 67v-838q0 -25 57 -28l86 -8l7 -70h-439l6 70l87 8q51 2 51 31zM303 1040l-338 377h187l196 -377h-45z" />
    <glyph glyph-name="iacute" unicode="&#xed;" horiz-adv-x="544" 
d="M201 109v575q0 72 -10.5 89.5t-23.5 23.5t-36 12l-82 12l4 56l293 67v-838q0 -25 57 -28l86 -8l7 -70h-439l6 70l87 8q51 2 51 31zM217 1040h-47l192 377h193z" />
    <glyph glyph-name="icircumflex" unicode="&#xee;" horiz-adv-x="544" 
d="M479 1040l-209 252h-4l-209 -252h-55l227 398h78l228 -398h-56zM201 109v575q0 72 -10.5 89.5t-23.5 23.5t-36 12l-82 12l4 56l293 67v-838q0 -25 57 -28l86 -8l7 -70h-439l6 70l87 8q51 2 51 31z" />
    <glyph glyph-name="idieresis" unicode="&#xef;" horiz-adv-x="544" 
d="M201 109v575q0 72 -10.5 89.5t-23.5 23.5t-36 12l-82 12l4 56l293 67v-838q0 -25 57 -28l86 -8l7 -70h-439l6 70l87 8q51 2 51 31zM176 1223q0 -47 -29.5 -84t-83 -37t-83 37t-29.5 84t29.5 83.5t83 36.5t83 -36.5t29.5 -83.5zM586 1223q0 -47 -30 -84t-83 -37t-83 37
t-30 84t30 83.5t83 36.5t83 -36.5t30 -83.5z" />
    <glyph glyph-name="eth" unicode="&#xf0;" horiz-adv-x="1024" 
d="M973 543q0 -245 -124.5 -409.5t-333.5 -164.5t-335.5 141.5t-126.5 347.5t128.5 343t299.5 137q96 0 182.5 -49t139.5 -152q-60 264 -238 418l-303 -100v84l225 75q-102 68 -229 103l31 53q159 -30 301 -123q0 3 97 34t171 56v-84l-188 -63q141 -117 222 -284t81 -363z
M215 508q0 -119 34.5 -219.5t104.5 -170.5t184 -69q114 0 192.5 92t78.5 267q0 117 -32 215t-91 157q-84 84 -200 84t-193.5 -91t-77.5 -265z" />
    <glyph glyph-name="ntilde" unicode="&#xf1;" horiz-adv-x="1110" 
d="M385 1212q-31 0 -54.5 -26.5t-54.5 -106.5h-53q20 119 67.5 179.5t123.5 60.5t145.5 -50t103 -74t63.5 -24t53.5 27t54.5 107h53q-41 -240 -197 -240q-68 0 -138.5 51t-103 73.5t-63.5 22.5zM684 944q105 0 177 -70q71 -70 71 -223v-542q0 -12 10 -19.5t51 -11.5l82 -8
l6 -70h-436l6 70l84 8q33 2 42 9t9 22v446q0 152 -52 208t-157 56t-231 -102v-611q0 -25 55 -28l95 -8l6 -70h-443l7 70l81 8q51 2 52 31v579q0 71 -11.5 90t-52.5 31l-86 12l2 56l295 67v-147h10q174 147 328 147z" />
    <glyph glyph-name="ograve" unicode="&#xf2;" horiz-adv-x="1060" 
d="M831 430q0 98 -26.5 195.5t-69.5 141.5q-97 99 -217 99t-202.5 -103t-82.5 -265q0 -250 113 -367q82 -82 201 -82t201.5 101.5t82.5 279.5zM991 475q0 -104 -35.5 -197.5t-99 -162t-151 -107.5t-187.5 -39t-183 37t-141.5 101.5t-90 152.5t-31.5 192.5t36.5 194.5
t101 156.5t152 103.5t185.5 37t180 -35t140.5 -97t91 -147.5t32.5 -189.5zM571 1040l-338 377h187l196 -377h-45z" />
    <glyph glyph-name="oacute" unicode="&#xf3;" horiz-adv-x="1060" 
d="M489 1040h-47l193 377h192zM831 430q0 98 -26.5 195.5t-69.5 141.5q-97 99 -217 99t-202.5 -103t-82.5 -265q0 -250 113 -367q82 -82 201 -82t201.5 101.5t82.5 279.5zM991 475q0 -104 -35.5 -197.5t-99 -162t-151 -107.5t-187.5 -39t-183 37t-141.5 101.5t-90 152.5
t-31.5 192.5t36.5 194.5t101 156.5t152 103.5t185.5 37t180 -35t140.5 -97t91 -147.5t32.5 -189.5z" />
    <glyph glyph-name="ocircumflex" unicode="&#xf4;" horiz-adv-x="1060" 
d="M741 1040l-209 252h-4l-209 -252h-55l228 398h77l228 -398h-56zM831 430q0 98 -26.5 195.5t-69.5 141.5q-97 99 -217 99t-202.5 -103t-82.5 -265q0 -250 113 -367q82 -82 201 -82t201.5 101.5t82.5 279.5zM991 475q0 -104 -35.5 -197.5t-99 -162t-151 -107.5t-187.5 -39
t-183 37t-141.5 101.5t-90 152.5t-31.5 192.5t36.5 194.5t101 156.5t152 103.5t185.5 37t180 -35t140.5 -97t91 -147.5t32.5 -189.5z" />
    <glyph glyph-name="otilde" unicode="&#xf5;" horiz-adv-x="1060" 
d="M862 1305q-41 -240 -190 -240q-76 0 -145.5 51t-102.5 73.5t-64 22.5t-54 -26.5t-54 -106.5h-53q20 119 67 179.5t123 60.5t145.5 -50t103.5 -74t64 -24t53 27t54 107h53zM831 430q0 98 -26.5 195.5t-69.5 141.5q-97 99 -217 99t-202.5 -103t-82.5 -265q0 -250 113 -367
q82 -82 201 -82t201.5 101.5t82.5 279.5zM991 475q0 -104 -35.5 -197.5t-99 -162t-151 -107.5t-187.5 -39t-183 37t-141.5 101.5t-90 152.5t-31.5 192.5t36.5 194.5t101 156.5t152 103.5t185.5 37t180 -35t140.5 -97t91 -147.5t32.5 -189.5z" />
    <glyph glyph-name="odieresis" unicode="&#xf6;" horiz-adv-x="1060" 
d="M438 1223q0 -47 -29.5 -84t-83 -37t-83 37t-29.5 84t29.5 83.5t83 36.5t83 -36.5t29.5 -83.5zM848 1223q0 -47 -30 -84t-83 -37t-82.5 37t-29.5 84t29.5 83.5t82.5 36.5t83 -36.5t30 -83.5zM831 430q0 98 -26.5 195.5t-69.5 141.5q-97 99 -217 99t-202.5 -103t-82.5 -265
q0 -250 113 -367q82 -82 201 -82t201.5 101.5t82.5 279.5zM991 475q0 -104 -35.5 -197.5t-99 -162t-151 -107.5t-187.5 -39t-183 37t-141.5 101.5t-90 152.5t-31.5 192.5t36.5 194.5t101 156.5t152 103.5t185.5 37t180 -35t140.5 -97t91 -147.5t32.5 -189.5z" />
    <glyph glyph-name="divide" unicode="&#xf7;" horiz-adv-x="995" 
d="M606 766q0 -41 -29.5 -74t-76.5 -33t-76 33t-29 74t29 73.5t76 32.5t76.5 -32.5t29.5 -73.5zM606 192.5q0 -40.5 -28.5 -73.5t-75.5 -33t-77 33t-30 73.5t30 72.5t77 32t75.5 -32t28.5 -72.5zM84 426l6 111h817l6 -111h-829z" />
    <glyph glyph-name="oslash" unicode="&#xf8;" horiz-adv-x="1060" 
d="M373 117q80 -68 192 -68t188 95.5t76 282.5t-96 312zM494 864q-115 0 -192 -92t-77 -279t101 -323l358 623q-75 71 -190 71zM539 944q103 0 204 -49l162 279h78l-182 -318q86 -66 133 -170t47 -216q0 -218 -133 -359.5t-326 -141.5q-102 0 -207 49l-141 -247h-80l164 282
q-86 66 -134 171.5t-48 219.5t34.5 202.5t96 154t145.5 104.5t187 39z" />
    <glyph glyph-name="ugrave" unicode="&#xf9;" horiz-adv-x="1077" 
d="M523 94q107 0 229 105v608q0 14 -10.5 20.5t-45.5 10.5l-102 8l-6 67h311v-786q0 -33 19 -39l147 -33l-6 -49l-307 -37v150h-11q-177 -150 -327 -150q-106 0 -172 68q-76 72 -76 225l4 545q0 23 -12.5 23.5t-53.5 7.5l-77 8l-7 67h306l-15 -553q0 -154 52.5 -210
t159.5 -56zM553 1040l-338 377h186l197 -377h-45z" />
    <glyph glyph-name="uacute" unicode="&#xfa;" horiz-adv-x="1077" 
d="M489 1040h-47l193 377h192zM523 94q107 0 229 105v608q0 14 -10.5 20.5t-45.5 10.5l-102 8l-6 67h311v-786q0 -33 19 -39l147 -33l-6 -49l-307 -37v150h-11q-177 -150 -327 -150q-106 0 -172 68q-76 72 -76 225l4 545q0 23 -12.5 23.5t-53.5 7.5l-77 8l-7 67h306
l-15 -553q0 -154 52.5 -210t159.5 -56z" />
    <glyph glyph-name="ucircumflex" unicode="&#xfb;" horiz-adv-x="1077" 
d="M725 1040l-209 252h-4l-209 -252h-55l227 398h78l227 -398h-55zM523 94q107 0 229 105v608q0 14 -10.5 20.5t-45.5 10.5l-102 8l-6 67h311v-786q0 -33 19 -39l147 -33l-6 -49l-307 -37v150h-11q-177 -150 -327 -150q-106 0 -172 68q-76 72 -76 225l4 545q0 23 -12.5 23.5
t-53.5 7.5l-77 8l-7 67h306l-15 -553q0 -154 52.5 -210t159.5 -56z" />
    <glyph glyph-name="udieresis" unicode="&#xfc;" horiz-adv-x="1077" 
d="M416 1223q0 -47 -30 -84t-83 -37t-83 37t-30 84t30 83.5t83 36.5t83 -36.5t30 -83.5zM827 1223q0 -47 -29.5 -84t-82.5 -37t-83 37t-30 84t30 83.5t83 36.5t82.5 -36.5t29.5 -83.5zM523 94q107 0 229 105v608q0 14 -10.5 20.5t-45.5 10.5l-102 8l-6 67h311v-786
q0 -33 19 -39l147 -33l-6 -49l-307 -37v150h-11q-177 -150 -327 -150q-106 0 -172 68q-76 72 -76 225l4 545q0 23 -12.5 23.5t-53.5 7.5l-77 8l-7 67h306l-15 -553q0 -154 52.5 -210t159.5 -56z" />
    <glyph glyph-name="yacute" unicode="&#xfd;" horiz-adv-x="925" 
d="M408 1040h-48l193 377h192zM180 -328q80 0 117 -73q47 21 90 157l78 224v2l-356 790q-14 31 -26.5 42t-51.5 17l-60 13l-8 69h422l-6 -67l-70 -10q-56 -5 -35 -56l254 -604l195 555q16 53 9 74.5t-48 25.5l-76 15l-6 67h371l-6 -67l-68 -15q-33 -4 -50.5 -23.5
t-43.5 -84.5l-250 -680l-98 -311q-43 -133 -96 -201t-129 -68t-112 30t-36 75t23.5 74.5t72.5 29.5z" />
    <glyph glyph-name="thorn" unicode="&#xfe;" horiz-adv-x="1050" 
d="M303 162q113 -113 233 -113t201.5 108t81.5 272t-75.5 271t-198.5 107q-74 0 -137.5 -38t-104.5 -89v-518zM311 784q140 150 302 150t264 -124t102 -326t-131 -358.5t-346 -156.5q-105 0 -195 35h-4v-401q0 -26 57 -29l107 -8l6 -70h-459l6 70l86 8q51 2 52 31v1609
q0 37 -23 43l-151 46l6 51l313 73v-643h8z" />
    <glyph glyph-name="ydieresis" unicode="&#xff;" horiz-adv-x="925" 
d="M389 1223q0 -47 -29.5 -84t-83 -37t-83 37t-29.5 84t29.5 83.5t83 36.5t83 -36.5t29.5 -83.5zM799 1223q0 -47 -30 -84t-83 -37t-83 37t-30 84t30 83.5t83 36.5t83 -36.5t30 -83.5zM180 -328q80 0 117 -73q47 21 90 157l78 224v2l-356 790q-14 31 -26.5 42t-51.5 17
l-60 13l-8 69h422l-6 -67l-70 -10q-56 -5 -35 -56l254 -604l195 555q16 53 9 74.5t-48 25.5l-76 15l-6 67h371l-6 -67l-68 -15q-33 -4 -50.5 -23.5t-43.5 -84.5l-250 -680l-98 -311q-43 -133 -96 -201t-129 -68t-112 30t-36 75t23.5 74.5t72.5 29.5z" />
    <glyph glyph-name="dotlessi" unicode="&#x131;" horiz-adv-x="544" 
d="M201 109v575q0 72 -10.5 89.5t-23.5 23.5t-36 12l-82 12l4 56l293 67v-838q0 -25 57 -28l86 -8l7 -70h-439l6 70l87 8q51 2 51 31z" />
    <glyph glyph-name="Lslash" unicode="&#x141;" horiz-adv-x="1157" 
d="M252 1153q0 31 -37 37l-123 20l-6 70h518l-6 -70l-141 -20q-37 -6 -37 -37v-604l233 61v-86l-233 -61v-387h51q296 0 356 12t75.5 29.5t23.5 46.5l61 244h94l-45 -408h-950l6 70l123 20q37 6 37 37v293l-176 -47v84l176 47v649z" />
    <glyph glyph-name="lslash" unicode="&#x142;" horiz-adv-x="546" 
d="M344 127q0 -33 37 -39l121 -18l6 -70h-453l6 70l103 18q35 12 35 39v291l-172 -47v84l172 47v706q0 35 -23 41l-149 45l6 52l311 81v-886l168 47v-86l-168 -45v-330z" />
    <glyph glyph-name="OE" unicode="&#x152;" horiz-adv-x="1910" 
d="M429.5 238q163.5 -158 463.5 -158h78v1098l-166 32q-251 -4 -395 -156.5t-144 -404.5q0 -253 163.5 -411zM850 0q-343 0 -549.5 171t-206.5 451t196 470t564 190l932 -2v-371h-82l-45 207q-8 31 -20.5 48.5t-65 28.5t-352.5 11h-93v-514h91q134 0 161 5t35 12.5t12 21.5
l48 137h65l-41 -426h-65l-15 131q-2 12 -7 20.5t-31 16.5t-164 8h-89v-540h66q321 0 383.5 12t78 29.5t23.5 46.5l52 198h92l-39 -362h-934z" />
    <glyph glyph-name="oe" unicode="&#x153;" horiz-adv-x="1697" 
d="M922 737q134 207 392 207q130 0 216 -82t86 -215q0 -64 -12 -108l-617 8q-2 -6 -2 -11v-38q0 -177 91.5 -287.5t240.5 -110.5q150 0 252 125l41 -24q-55 -111 -151.5 -170.5t-212.5 -59.5t-206 52.5t-143 144.5q-63 -92 -161 -145.5t-208 -53.5t-193 37t-142.5 101.5
t-91 153.5t-28.5 245t138.5 297t335.5 141q125 0 221 -55t154 -152zM534 49q131 0 212 99.5t83 238.5q4 279 -108 395q-84 84 -203 84t-200.5 -98t-84.5 -266q-2 -115 27 -213.5t72 -142.5t89.5 -70.5t112.5 -26.5zM1227 610h223q8 121 -44 191.5t-142 70.5t-167 -72.5
t-102 -191.5q131 2 232 2z" />
    <glyph glyph-name="Scaron" unicode="&#x160;" horiz-adv-x="1034" 
d="M555 1393h-78l-227 397h55l209 -252h4l209 252h55zM885 913h-82l-58 263q-113 51 -233 51t-184 -62t-64 -137t23.5 -118.5t66.5 -76t100.5 -57t130.5 -52.5t218 -93.5t145 -284.5q0 -155 -129 -266t-340 -111q-173 -3 -358 56l-31 362h82l86 -283q122 -55 253 -55
t208.5 71.5t77.5 179.5t-75.5 168.5t-246.5 123.5q-184 72 -243.5 123t-87 108.5t-27.5 131.5t25.5 137t77.5 110t132 77t197 32t229 -25l107 31v-404z" />
    <glyph glyph-name="scaron" unicode="&#x161;" horiz-adv-x="815" 
d="M446 1040h-77l-228 398h56l209 -252h4l208 252h56zM437 948q89 0 188 -33l61 21l16 -287h-90l-39 178q-76 50 -159 50q-82 0 -130 -41.5t-48 -91.5t16 -76.5t52 -52t122 -57.5q162 -59 235.5 -120t73.5 -181q0 -119 -95 -203.5t-257 -84.5t-270 43l-13 264h93l43 -182
q74 -53 160 -53t148 49t62 134t-92 122t-140 54q-121 43 -194.5 104.5t-73.5 174.5t86.5 191t244.5 78z" />
    <glyph glyph-name="Ydieresis" unicode="&#x178;" horiz-adv-x="1239" 
d="M555 1565q0 -47 -29.5 -84t-83 -37t-83 37t-29.5 84t29.5 84t83 37t83 -37t29.5 -84zM965 1565q0 -47 -30 -84t-83 -37t-83 37t-30 84t30 84t83 37t83 -37t30 -84zM709 109q0 -12 10 -17.5t43 -9.5l139 -12l6 -70h-567l6 70l141 12q53 6 54 29v426l-381 602
q-35 46 -84 57l-84 14l-6 70h499l-6 -70l-102 -12q-35 -4 -31 -39t55 -119l246 -407h10l267 454q60 97 -17 113l-78 10l-6 70h414l-6 -70l-62 -10q-41 -12 -71.5 -32.5t-67.5 -77.5l-321 -533v-448z" />
    <glyph glyph-name="Zcaron" unicode="&#x17d;" horiz-adv-x="1140" 
d="M608 1393h-78l-227 397h55l209 -252h4l209 252h56zM68 0v70l806 1126v8h-231q-257 0 -316 -18.5t-73 -41t-25 -57.5l-41 -186h-82v379h967v-72l-805 -1126l-2 -8l234 2q280 0 344.5 16.5t80 37t25.5 50.5l51 203h95l-43 -383h-985z" />
    <glyph glyph-name="zcaron" unicode="&#x17e;" horiz-adv-x="888" 
d="M483 1040h-77l-228 398h55l209 -252h4l209 252h56zM328 72q223 0 280.5 14t79 35.5t35.5 54.5l76 170h86l-82 -346h-746v61l592 783h-65q-228 0 -279 -15.5t-67.5 -36t-22.5 -53.5l-33 -172h-90v346h737v-61l-589 -780h88z" />
    <glyph glyph-name="florin" unicode="&#x192;" horiz-adv-x="999" 
d="M1016 1168q0 -50 -25.5 -81.5t-71.5 -31.5t-76 37.5t-34 97.5l-121 -31q-46 -76 -100 -364h252l8 -93h-268q-68 -351 -139 -506t-162 -192t-149 -37t-101 34t-43 82t25.5 76.5t70.5 28.5t74.5 -38.5t33.5 -92.5l123 58q52 120 95 387l30 194l-178 9l6 57l193 43
q61 267 168 383q47 47 113 74.5t128 27.5t105 -36t43 -86z" />
    <glyph glyph-name="circumflex" unicode="&#x2c6;" 
d="M621 1040l-209 252h-4l-209 -252h-56l228 398h78l227 -398h-55z" />
    <glyph glyph-name="caron" unicode="&#x2c7;" 
d="M449 1040h-78l-228 398h56l209 -252h4l209 252h55z" />
    <glyph glyph-name="breve" unicode="&#x2d8;" 
d="M382 1034q-99 0 -158 105t-95 278h47q58 -144 92.5 -190.5t67.5 -69t90 -22.5t110.5 72.5t106.5 209.5h47q-35 -172 -75 -242.5t-87 -105.5t-146 -35z" />
    <glyph glyph-name="dotaccent" unicode="&#x2d9;" 
d="M524 1234q0 -48 -30.5 -86t-84.5 -38t-85 38t-31 86t30.5 86t84.5 38t85 -38t31 -86z" />
    <glyph glyph-name="ring" unicode="&#x2da;" 
d="M530 1240q0 52 -31.5 91t-89 39t-89 -39t-31.5 -91t31.5 -91t89 -39t89 39t31.5 91zM592 1239q0 -76 -48 -130t-134 -54t-134.5 54t-48.5 130t48.5 130t134.5 54t134 -54t48 -130z" />
    <glyph glyph-name="ogonek" unicode="&#x2db;" 
d="M633 -412q-95 -73 -194 -73t-168.5 60t-69.5 154t77.5 173.5t204.5 130.5h95q-262 -129 -263 -293q0 -63 45.5 -107.5t114.5 -44.5t141 45z" />
    <glyph glyph-name="tilde" unicode="&#x2dc;" 
d="M274 1319q73 0 141 -50t102 -74t64 -24t53 27t54 107h53q-20 -117 -67 -178.5t-122 -61.5t-145.5 51t-103.5 73.5t-63 22.5t-54 -26.5t-55 -106.5h-53q40 240 196 240z" />
    <glyph glyph-name="hungarumlaut" unicode="&#x2dd;" 
d="M201 1040h-45l178 377h170zM510 1040h-45l178 377h170z" />
    <glyph glyph-name="endash" unicode="&#x2013;" horiz-adv-x="962" 
d="M53 424l6 100h848l6 -100h-860z" />
    <glyph glyph-name="emdash" unicode="&#x2014;" horiz-adv-x="1921" 
d="M53 424l6 100h1805l6 -100h-1817z" />
    <glyph glyph-name="quoteleft" unicode="&#x2018;" horiz-adv-x="462" 
d="M227 1063q0 -95 77 -129.5t77 -36.5q0 -47 -34 -81t-81 -34q-81 0 -137.5 53t-56.5 125q0 124 76.5 215.5t207.5 190.5l45 -33q-174 -132 -174 -270z" />
    <glyph glyph-name="quoteright" unicode="&#x2019;" horiz-adv-x="462" 
d="M240 1067q0 98 -76 132t-76 36q0 47 34 81t81 34q81 0 137.5 -53t56.5 -125q0 -126 -76.5 -217.5t-207.5 -190.5l-45 33q172 130 172 270z" />
    <glyph glyph-name="quotesinglbase" unicode="&#x201a;" horiz-adv-x="462" 
d="M240 -53q0 98 -76 132t-76 36q0 47 34 80.5t81 33.5q82 0 138 -52.5t56 -124.5q0 -126 -76.5 -217.5t-207.5 -190.5l-45 32q172 130 172 271z" />
    <glyph glyph-name="quotedblleft" unicode="&#x201c;" horiz-adv-x="868" 
d="M227 1063q0 -95 77 -129.5t77 -36.5q0 -47 -34 -81t-81 -34q-81 0 -137.5 53t-56.5 125q0 124 76.5 215.5t207.5 190.5l45 -33q-174 -132 -174 -270zM655 1063q0 -96 76 -130t76 -36q0 -47 -34 -81t-81 -34q-81 0 -137.5 53t-56.5 125q0 124 76.5 215.5t207.5 190.5
l45 -33q-172 -130 -172 -270z" />
    <glyph glyph-name="quotedblright" unicode="&#x201d;" horiz-adv-x="868" 
d="M240 1067q0 98 -76 132t-76 36q0 47 34 81t81 34q81 0 137.5 -53t56.5 -125q0 -126 -76.5 -217.5t-207.5 -190.5l-45 33q172 130 172 270zM668 1067q0 98 -76 132t-76 36q0 47 33 81t81 34q82 0 138.5 -53t56.5 -125q0 -126 -76.5 -217.5t-207.5 -190.5l-45 33
q172 130 172 270z" />
    <glyph glyph-name="quotedblbase" unicode="&#x201e;" horiz-adv-x="868" 
d="M240 -53q0 98 -76 132t-76 36q0 47 34 80.5t81 33.5q82 0 138 -52.5t56 -124.5q0 -126 -76.5 -217.5t-207.5 -190.5l-45 32q172 130 172 271zM668 -53q0 98 -76 132t-76 36q0 47 33 80.5t81 33.5q83 0 139 -52.5t56 -124.5q0 -126 -76.5 -217.5t-207.5 -190.5l-45 32
q172 130 172 271z" />
    <glyph glyph-name="dagger" unicode="&#x2020;" horiz-adv-x="962" 
d="M522 805v-1124h-78v1124h-366l-8 80h374v395h78v-395h377l-8 -80h-369z" />
    <glyph glyph-name="daggerdbl" unicode="&#x2021;" horiz-adv-x="962" 
d="M522 43v-362h-78v362h-374l8 80h366v713h-366l-8 79h374v365h78v-365h377l-8 -79h-369v-713h369l8 -80h-377z" />
    <glyph glyph-name="bullet" unicode="&#x2022;" horiz-adv-x="931" 
d="M860 475.5q0 -43.5 -42.5 -148t-64.5 -125.5q-42 -40 -142.5 -81t-132.5 -41q-57 0 -156.5 40.5t-123.5 65.5t-44.5 63t-39 81t-30.5 83t-12 74.5t43 134.5t66 124q36 38 139.5 80t136.5 42q53 0 158 -42.5t130 -71.5q30 -26 72.5 -130.5t42.5 -148z" />
    <glyph glyph-name="ellipsis" unicode="&#x2026;" horiz-adv-x="1392" 
d="M360 96q0 -49 -34.5 -88t-90.5 -39t-92.5 39t-36.5 88t36 86t92 37t91 -37t35 -86zM823 96q0 -49 -33.5 -88t-89.5 -39t-92.5 39t-36.5 88t36 86t92 37t90 -37t34 -86zM1288 96q0 -49 -35 -88t-91 -39t-92 39t-36 88t36 86t92 37t91 -37t35 -86z" />
    <glyph glyph-name="perthousand" unicode="&#x2030;" horiz-adv-x="2306" 
d="M1688 290q0 -105 63.5 -179t180 -74t180 74t63.5 178t-66.5 178t-177 74t-177 -73t-66.5 -178zM2177 46.5q-94 -97.5 -246 -97.5t-246 97.5t-94 241.5q0 143 94.5 242t245.5 99t245.5 -98.5t94.5 -242.5t-94 -241.5zM1153 541q-110 0 -177 -73.5t-67 -178.5
q0 -104 63.5 -178t180.5 -74t180.5 74t63.5 178t-67 178t-177 74zM375 1241q-117 0 -180.5 -73.5t-63.5 -178.5t66.5 -178.5t177 -73.5t177 73t66.5 178t-63 179t-180 74zM1399 46.5q-94 -97.5 -246 -97.5t-246 97.5t-94 241.5q0 143 94.5 242t245.5 99t245.5 -98.5
t94.5 -242.5t-94 -241.5zM297 -31h-107l1045 1340h104zM620.5 747.5q-94.5 -98.5 -245.5 -98.5t-245.5 98.5t-94.5 242.5q0 143 94 241t246 98t246 -97.5t94 -241.5t-94.5 -242.5z" />
    <glyph glyph-name="guilsinglleft" unicode="&#x2039;" horiz-adv-x="634" 
d="M520 94l-440 316v86l440 315l21 -41l-303 -317l303 -318z" />
    <glyph glyph-name="guilsinglright" unicode="&#x203a;" horiz-adv-x="634" 
d="M115 94l-19 41l303 318l-303 317l19 41l442 -315v-86z" />
    <glyph glyph-name="fraction" unicode="&#x2044;" horiz-adv-x="1110" 
d="M119 -33h-113l987 1340h111z" />
    <glyph glyph-name="Euro" unicode="&#x20ac;" horiz-adv-x="1056" 
d="M164 603q0 43 4 87h-125l6 80h129q40 231 183.5 372.5t345.5 141.5q128 0 217.5 -50t89.5 -120q0 -39 -24.5 -65.5t-71.5 -26.5t-78 46t-39 101q-53 33 -129 33q-143 0 -232.5 -117.5t-111.5 -314.5h424l6 -80h-436v-49q0 -68 6 -127h424l6 -80h-416q41 -174 137 -260
t217 -86q163 0 289 152l41 -23q-129 -248 -381 -248q-171 0 -296.5 125.5t-168.5 339.5h-137l6 80h119q-4 46 -4 89z" />
    <glyph glyph-name="trademark" unicode="&#x2122;" horiz-adv-x="1865" 
d="M750 1012h-60l-14 71q-25 91 -60.5 115.5t-146.5 24.5h-6v-615q0 -20 18 -22l105 -13l2 -55h-371l4 55l105 13q20 2 20 22v615h-8q-98 0 -129 -21.5t-45 -49.5t-29 -69l-18 -71h-56l17 268h672v-268zM1018 657.5q0 -28.5 2.5 -47t17.5 -26.5l82 -11l4 -55h-286l4 55
l80 11q25 0 28.5 51t5.5 100l15 453q0 23 -17 24l-88 13l-4 55h289l156 -586h18l199 586h288l-4 -55l-84 -13q-23 -2 -22 -24l12 -510q3 -83 31 -92l80 -13l4 -55h-336l4 55l78 13q14 4 17 21.5t3 70.5l-12 520h-20l-228 -655h-92l-186 659h-21l-16 -467q-2 -49 -2 -77.5z
" />
    <glyph glyph-name="Delta" unicode="&#x2206;" horiz-adv-x="962" 
d="M362 45q240 0 240 344v764q0 31 -35 37l-159 20l-7 70h549l-6 -70l-137 -20q-35 -6 -35 -37v-723q0 -231 -115 -347t-289 -116t-266 68.5t-92 159.5q0 57 33 89.5t76 32.5t72.5 -25.5t29.5 -77.5t-39 -89q16 -27 60.5 -53.5t119.5 -26.5z" />
    <glyph glyph-name="minus" unicode="&#x2212;" horiz-adv-x="995" 
d="M84 426l6 111h817l6 -111h-829z" />
    <glyph glyph-name="apple" unicode="&#xf8ff;" horiz-adv-x="1552" 
d="M1087 782l103 285l-285 -102l-129 272l-129 -272l-285 102l105 -285l-274 -129l274 -129l-105 -282l285 104l127 -276l131 276l285 -104l-103 286l271 127zM1194 483l141 -387l-387 142l-174 -371l-172 369l-383 -140l139 383l-370 176l370 170l-139 387l383 -141
l176 371l170 -371l387 141l-141 -387l369 -168z" />
    <glyph glyph-name="ff" unicode="&#xfb00;" horiz-adv-x="1228" 
d="M342 956v-45h432l2 52q12 203 134 333.5t292 130.5q72 0 125 -33.5t53 -82.5t-25.5 -74t-65.5 -25t-78 35t-50 103l-53 4q-176 -72 -176 -377v-66h282l-14 -94h-268v-711q0 -25 57 -28l133 -8l6 -70h-485l6 70l84 8q51 6 51 31v710h-442v-692q0 -33 37 -39l162 -18l6 -70
h-494l6 70l103 18q35 6 35 39v686l-172 8l12 90h149l2 33q20 208 140.5 335.5t283.5 127.5q72 0 125.5 -34t53.5 -83t-26 -73.5t-66 -24.5t-77.5 35t-50.5 102l-51 4q-178 -72 -178 -377z" />
    <glyph glyph-name="fi" unicode="&#xfb01;" horiz-adv-x="1130" 
d="M342 977v-66h358l232 31v-836q0 -25 57 -28l86 -8l6 -70h-438l6 70l84 8q51 2 51 31v708h-442v-711q0 -25 57 -28l136 -8l6 -70h-488l6 70l86 8q51 2 52 31v704l-172 8l12 90h149l2 52q12 209 137.5 336.5t323.5 127.5q79 0 143 -38t64 -103q0 -41 -25.5 -66.5
t-66.5 -25.5q-101 0 -127 129l-119 23q-176 -72 -176 -369z" />
    <glyph glyph-name="fl" unicode="&#xfb02;" horiz-adv-x="1134" 
d="M342 977v-66h442v285q-6 -2 -20 -2q-101 0 -127 129l-119 23q-176 -72 -176 -369zM342 817v-711q0 -25 57 -28l136 -8l6 -70h-488l6 70l86 8q51 2 52 31v704l-172 8l12 90h149l2 52q12 209 137.5 336.5t323.5 127.5q78 0 144 -38l139 38v-1321q0 -25 57 -28l86 -8l6 -70
h-438l6 70l84 8q51 2 51 31v708h-442z" />
    <glyph glyph-name="ffi" unicode="&#xfb03;" horiz-adv-x="1718" 
d="M932 977v-66h356l232 31v-836q0 -25 57 -28l86 -8l6 -70h-438l6 70l86 8q51 2 51 31v708h-442v-711q0 -25 57 -28l133 -8l6 -70h-485l6 70l84 8q51 6 51 31v710h-442v-692q0 -33 37 -39l162 -18l6 -70h-494l6 70l103 18q35 6 35 39v686l-172 8l12 90h149l2 33
q20 208 140.5 335.5t283.5 127.5q72 0 125.5 -34t53.5 -83t-26 -73.5t-66 -24.5t-77.5 37t-50.5 100l-51 4q-178 -72 -178 -377v-45h432l2 52q12 209 137.5 336.5t323.5 127.5q79 0 143 -38t64 -103q0 -41 -25.5 -66.5t-64.5 -25.5q-103 0 -129 129l-117 23
q-176 -72 -176 -369z" />
    <glyph glyph-name="ffl" unicode="&#xfb04;" horiz-adv-x="1722" 
d="M932 977v-66h442v285q-6 -2 -20 -2q-103 0 -129 129l-117 23q-176 -72 -176 -369zM342 956v-45h432l2 52q12 209 137.5 336.5t323.5 127.5q78 0 143 -38l140 38v-1321q0 -25 57 -28l86 -8l6 -70h-438l6 70l86 8q51 2 51 31v708h-442v-711q0 -25 57 -28l133 -8l6 -70h-485
l6 70l84 8q51 6 51 31v710h-442v-692q0 -33 37 -39l162 -18l6 -70h-494l6 70l103 18q35 6 35 39v686l-172 8l12 90h149l2 33q20 208 140.5 335.5t283.5 127.5q72 0 125.5 -34t53.5 -83t-26 -73.5t-66 -24.5t-77.5 37t-50.5 100l-51 4q-178 -72 -178 -377z" />
    </font>
</defs>
</svg>
