<?xml version="1.0" standalone="no"?>
<!DOCTYPE svg PUBLIC "-//W3C//DTD SVG 1.1//EN" "http://www.w3.org/Graphics/SVG/1.1/DTD/svg11.dtd" >
<svg xmlns="http://www.w3.org/2000/svg">
<metadata>Generated by IcoMoon</metadata>
<defs>
<font id="senate_icons" horiz-adv-x="1024">
<font-face units-per-em="1024" ascent="960" descent="-64" />
<missing-glyph horiz-adv-x="1024" />
<glyph unicode="&#x20;" d="" horiz-adv-x="512" />
<glyph unicode="&#x21;" d="M586.24 647.168h98.976v122.592h-98.976c-81.888 0-148.512-72.192-148.512-160.896v-61.824h-98.976v-123.008h98.976v-297.76h123.744v297.728h123.744v123.008h-123.744v63.008c0.032 21.28 13.12 37.152 24.768 37.152z" />
<glyph unicode="&#x23;" d="M441.809 672.209c47.686 0.837 73.119-16.648 97.38-38.986 20.58 1.757 47.352 13.386 63.080 21.417 5.103 2.844 10.207 5.605 15.31 8.45-9.035-24.512-21.166-43.671-39.99-58.311-4.183-3.263-8.282-7.613-13.553-9.705 0-0.084 0-0.167 0-0.335 26.771 0.251 48.774 12.465 69.689 18.991 0-0.084 0-0.167 0-0.335-10.959-17.652-25.851-35.472-41.746-48.356-6.442-5.103-12.8-10.29-19.242-15.393 0.335-28.528-0.418-55.718-5.689-79.728-30.787-139.378-112.272-233.997-241.276-274.489-46.348-14.557-121.224-20.497-174.264-7.278-26.353 6.609-50.112 14.055-72.45 23.843-12.382 5.438-23.843 11.378-34.886 18.154-3.597 2.175-7.195 4.434-10.792 6.609 11.963-0.335 26.018-3.681 39.404-1.506 12.131 2.008 24.010 1.422 35.137 3.932 27.859 6.191 52.622 14.306 73.956 26.855 10.29 6.107 26.018 13.218 33.38 22.086-13.804-0.251-26.353 3.012-36.643 6.609-39.822 14.139-62.996 40.241-78.139 79.393 12.047-1.339 46.85-4.518 54.965 2.426-15.226 0.837-29.783 9.705-40.241 16.314-32.042 20.246-58.227 54.128-57.976 106.332 4.183-2.008 8.45-4.016 12.633-6.024 8.031-3.43 16.23-5.271 25.851-7.278 4.099-0.837 12.131-3.263 16.816-1.506-0.167 0-0.418 0-0.586 0-6.191 7.278-16.314 12.131-22.505 19.911-20.58 25.767-39.822 65.422-27.608 112.607 3.095 11.963 8.031 22.588 13.218 32.293 0.167-0.084 0.418-0.167 0.586-0.335 2.426-5.020 7.697-8.784 11.127-12.967 10.541-13.135 23.425-24.931 36.643-35.305 45.009-35.472 85.501-57.224 150.505-73.37 16.481-4.099 35.556-7.195 55.299-7.278-5.522 16.23-3.765 42.583 0.586 58.311 10.959 39.571 34.803 68.099 69.689 83.325 8.366 3.681 17.652 6.275 27.357 8.45 4.936 0.92 9.956 1.59 14.975 2.175z" horiz-adv-x="663" />
<glyph unicode="&#x24;" d="M250.144 387.2c89.152 0 161.44-72.704 161.44-162.368 0-28.192-7.488-54.496-20.064-77.568l57.856-57.888c17.184-17.28 17.184-45.312 0-62.592-8.576-8.64-19.84-12.96-31.104-12.96s-22.528 4.32-31.104 12.96l-57.344 57.376c-23.552-13.568-50.56-21.728-79.648-21.728-89.152 0-161.44 72.704-161.44 162.368-0.032 89.696 72.256 162.4 161.408 162.4zM250.144 129.504c19.68 0 38.624 6.112 54.784 17.664l13.12 9.376 9.312 13.184c11.488 16.256 17.568 35.296 17.568 55.104 0 52.576-42.528 95.328-94.784 95.328s-94.784-42.784-94.784-95.328c0-52.576 42.528-95.328 94.784-95.328zM770.24 510.944v0c8.384 23.936 13.184 49.536 13.184 76.352 0 127.52-103.36 230.88-230.88 230.88s-230.88-103.36-230.88-230.88c0-0.096 0-0.192 0-0.288v0c0-0.672 0.096-1.312 0.096-1.984 0.064-6.368 0.352-12.704 0.96-18.944 0.416-4.64 1.12-9.152 1.824-13.696 0.288-1.888 0.512-3.776 0.864-5.664 1.056-5.952 2.368-11.776 3.84-17.536 0 0 0 0 0-0.032 25.696-99.456 115.776-173.056 223.296-173.056l-0.288 0.288c0.096 0 0.192 0 0.288 0 67.36 0 127.776 29.024 169.984 75.040 63.104-29.376 107.072-93.248 107.072-167.328v-92.416h-241.408c-25.248 0-45.728-20.48-45.728-45.728v-0.928c0-25.248 20.48-45.728 45.728-45.728h287.52c25.536 0 46.24 20.704 46.24 46.24v138.528c0 107.872-61.76 201.12-151.712 246.88zM552.544 448.736c-76.384 0-138.528 62.144-138.528 138.528s62.144 138.528 138.528 138.528c76.384 0 138.528-62.144 138.528-138.528s-62.144-138.528-138.528-138.528z" />
<glyph unicode="&#x2b;" d="M198.72 466.016c0 19.2 15.552 34.752 34.752 34.752h557.056c19.2 0 34.752-15.552 34.752-34.752v-36.064c0-19.2-15.552-34.752-34.752-34.752h-557.056c-19.2 0-34.752 15.552-34.752 34.752v36.064zM493.984 134.72c-19.2 0-34.752 15.552-34.752 34.752v557.056c0 19.2 15.552 34.752 34.752 34.752h36.064c19.2 0 34.752-15.552 34.752-34.752v-557.056c0-19.2-15.552-34.752-34.752-34.752h-36.064z" />
<glyph unicode="&#x2d;" d="M198.72 466.016c0 19.2 15.552 34.752 34.752 34.752h557.056c19.2 0 34.752-15.552 34.752-34.752v-36.064c0-19.2-15.552-34.752-34.752-34.752h-557.056c-19.2 0-34.752 15.552-34.752 34.752v36.064z" />
<glyph unicode="&#x2f;" d="M780.64 661.856l-27.744 23.040c-14.784 12.256-36.672 10.24-48.96-4.512l-285.952-344.192-107.232 85.792c-14.752 12.256-36.672 10.24-48.96-4.512l-23.040-27.744c-12.256-14.784-10.24-36.672 4.512-48.96l162.080-129.696c7.488-6.24 16.832-8.736 25.792-7.808 8.992 0.736 17.696 4.896 23.936 12.416l330.016 397.216c12.352 14.784 10.336 36.672-4.448 48.96z" />
<glyph unicode="&#x30;" d="M487.328 852.8h336.512c24.768 0 44.864-20.096 44.864-44.864v-727.68c0-24.768-20.096-44.864-44.864-44.864h-628.16c-24.768 0-44.864 20.096-44.864 44.864v434.624l336.512 337.92zM312.096 550.752h107.904c12.384 0 22.432 10.048 22.432 22.432v108.192l-41.344-41.696-88.992-88.928zM262.976 125.152h493.568c12.384 0 22.432 10.048 22.432 22.432v593.056c0 12.384-10.048 22.432-22.432 22.432h-224.352v-257.184c0-24.768-20.096-44.864-44.864-44.864h-246.784v-313.44c0-12.384 10.048-22.432 22.432-22.432z" />
<glyph unicode="&#x31;" d="M512 848c-220.896 0-400-179.040-400-400 0-220.896 179.104-400 400-400s400 179.104 400 400c0 220.96-179.104 400-400 400zM741.696 553.248l-271.040-337.056c-6.112-7.36-14.656-11.456-23.52-12.16-8.832-0.896-17.984 1.536-25.344 7.648l-159.168 127.36c-14.496 12.064-16.48 33.568-4.448 48.064l22.624 27.232c12.032 14.496 33.568 16.48 48.064 4.448l105.28-84.256 227.776 284.96c12.032 14.496 33.568 16.48 48.064 4.448l27.232-22.624c14.528-12.032 16.544-33.568 4.48-48.064z" />
<glyph unicode="&#x32;" d="M627.424 449.344c6.656 15.2 10.016 31.264 10.016 48.224-0.896 17.856-4.48 34.336-10.656 49.536-6.24 15.2-15.136 28.384-26.72 39.52-11.584 11.2-24.704 20.096-39.36 26.816-14.656 6.656-30.944 10.016-48.704 10.016-16.896 0-32.896-3.36-48.064-10.016-15.104-6.72-28.224-15.616-39.36-26.816-11.104-11.136-20-24.32-26.656-39.52s-10.016-31.68-10.016-49.536c0-16.96 3.36-33.024 10.016-48.224s15.584-28.384 26.656-39.52c11.136-11.136 24.256-20.096 39.36-26.784 15.136-6.72 31.584-10.016 49.376-10.016 16.896 0 32.896 3.296 48.064 10.016 15.104 6.656 28.224 15.616 39.36 26.784 11.104 11.136 20 24.32 26.688 39.52zM762.88 497.536c-0.896-8.896-1.824-17.6-2.656-26.144-0.896-8.48-2.496-16.96-4.704-25.44-2.24-8.48-4.224-16.736-6.016-24.736-1.76-8-4.864-16.096-9.344-24.096-8.896-22.336-26.016-47.776-51.36-76.384s-50.944-55.776-76.736-81.664c-25.76-25.92-49.12-47.584-70.016-64.96-20.896-17.44-30.944-26.144-30.016-26.144-0.896 0-11.136 8.704-30.656 26.144-19.584 17.376-42.72 39.040-69.376 64.96-26.72 25.856-52.256 53.344-76.736 82.336-24.544 29.056-42.080 54.272-52.768 75.712 0 2.656-0.704 5.12-2.016 7.36-1.344 2.24-2.24 4.224-2.656 6.016-0.416 1.76-1.12 3.776-1.984 6.016-0.896 2.176-1.344 4.704-1.344 7.36-2.656 6.24-4.48 12.256-5.344 18.080-0.896 5.824-2.016 11.776-3.36 18.080-1.344 6.24-2.24 12.48-2.656 18.72-0.48 6.24-1.12 12.544-2.016 18.784 0.896 34.816 7.776 67.424 20.704 97.824 12.896 30.304 30.944 56.896 54.080 79.68 23.104 22.784 49.536 40.576 79.36 53.536 29.824 12.896 62.496 19.424 98.080 19.424 32.896 0 64.704-6.496 95.424-19.424 30.656-12.96 57.12-30.784 79.424-53.536 22.176-22.784 40.224-49.376 54.016-79.68 13.76-30.4 20.224-62.976 19.36-97.824h1.312zM912 448c0 220.96-179.104 400-400 400s-400-179.040-400-400c0-220.896 179.104-400 400-400s400 179.104 400 400z" />
<glyph unicode="&#x33;" d="M512 848c-220.896 0-400-179.040-400-400 0-220.896 179.104-400 400-400s400 179.104 400 400c0 220.96-179.104 400-400 400zM502.144 164.768c-33.888 0-61.344 27.456-61.344 61.344s27.456 61.344 61.344 61.344c33.856 0 61.344-27.456 61.344-61.344s-27.488-61.344-61.344-61.344zM636.576 487.616l-69.376-72.864c-9.888-10.656-12.032-22.72-12.032-39.68v-14.88c0-13.44-10.624-24.736-24.768-24.736h-60.192c-13.408 0-24.768 11.296-24.768 24.736v29.088c0 26.144 2.848 45.984 23.392 66.496l69.376 71.552c13.472 14.176 14.144 29.728 14.144 45.28 0 26.208-6.368 49.568-41.792 49.568-26.208 0-38.944-20.544-38.944-44.608v-18.4c0-14.208-12.032-26.176-26.176-26.176h-59.456c-14.88 0-26.208 12-26.208 26.176v18.4c0 91.328 64.416 138.048 150.784 138.048 82.112 0 153.632-33.952 153.632-138.048 0-25.504-4.96-66.624-27.616-89.952z" />
<glyph unicode="&#x34;" d="M548.576 336.096h-205.952c-18.016-11.808-29.824-30.56-29.824-48.576v-17.824h265.632v17.824c-0.032 18.016-11.872 36.768-29.856 48.576zM558.432 538.752c6.336-2.016 12.992-3.424 20-3.424 36.608 0 66.4 29.792 66.4 66.4s-29.792 66.432-66.432 66.432c-36.608 0-66.4-29.792-66.4-66.4 0-7.008 1.376-13.632 3.424-20 17.44-10.816 32.16-25.536 43.008-43.008zM445.6 402.528c36.672 0 66.4 29.728 66.4 66.4s-29.728 66.4-66.4 66.4c-36.672 0-66.4-29.728-66.4-66.4 0-3.872 0.416-7.584 1.12-11.232 5.344-31.296 32.448-55.168 65.28-55.168zM512 848c-220.896 0-400-179.040-400-400 0-220.896 179.104-400 400-400s400 179.104 400 400c0 220.96-179.104 400-400 400zM777.632 369.312c0-11.648-15.296-33.216-29.056-33.216h-115.040c7.136-15.264 11.296-31.712 11.296-48.576v-51.040c0-11.648-15.296-33.216-29.056-33.216h-337.248c-13.76 0-32.16 21.568-32.16 33.216v51.040c0 48.416 32.384 93.792 79.68 115.008h4.64c-11.328 19.552-17.92 42.176-17.92 66.4 0 73.344 59.456 132.832 132.832 132.832 0 73.344 59.456 132.832 132.832 132.832s132.832-59.456 132.832-132.832c0-24.224-6.592-46.848-17.92-66.4h4.64c47.328-21.184 79.68-66.592 79.68-115.008v-51.040zM681.408 468.928h-102.976c0-24.224-6.592-46.848-17.92-66.4h150.752v17.824c-0.032 18.016-11.872 36.768-29.856 48.576z" />
<glyph unicode="&#x35;" d="M566.4 438.4c0 19.2-12.8 35.2-28.8 48h-108.8c0-22.4-6.4-44.8-16-64l3.2-9.6h150.4v25.6zM435.2 307.2c0 19.2-12.8 35.2-28.8 48h-217.6c-16-12.8-28.8-28.8-28.8-48v-25.6h275.2v25.6zM246.4 534.4c-22.4-22.4-25.6-44.8-22.4-60.8 6.4-41.6 44.8-70.4 89.6-60.8 25.6 6.4 48 28.8 54.4 54.4 12.8 48-25.6 92.8-70.4 92.8-19.2 0-35.2-9.6-51.2-25.6zM374.4 662.4c-22.4-28.8-22.4-51.2-16-70.4 19.2-12.8 35.2-28.8 48-48 19.2-6.4 41.6-6.4 70.4 16 16 12.8 25.6 28.8 28.8 48 3.2 44.8-35.2 83.2-80 80-22.4 0-38.4-9.6-51.2-25.6zM624 438.4v-51.2c0-12.8-16-32-28.8-32h-112c6.4-16 9.6-32 9.6-48v-51.2c0-12.8-16-32-28.8-32h-329.6c-12.8 0-32 22.4-32 32v51.2c0 48 32 92.8 76.8 112h3.2c-9.6 19.2-16 41.6-16 64 0 70.4 57.6 131.2 131.2 131.2 0 73.6 57.6 131.2 131.2 131.2 70.4 0 131.2-60.8 128-131.2 0-22.4-6.4-44.8-16-60.8h3.2c48-25.6 80-67.2 80-115.2zM908.8 435.2v0c-16 9.6-35.2 9.6-44.8-6.4l-32-38.4-83.2-108.8-38.4-51.2-86.4 67.2c-12.8 9.6-35.2 6.4-44.8-6.4v0c-9.6-12.8-6.4-35.2 6.4-44.8l115.2-86.4c12.8-9.6 35.2-6.4 44.8 6.4l76.8 102.4 80 105.6 3.2 3.2 9.6 12.8c9.6 12.8 6.4 35.2-6.4 44.8z" />
<glyph unicode="&#x36;" d="M126.159 714.876h467.158c18.405 0 33.38-14.892 33.38-33.38v-116.79c0-9.203-7.446-16.648-16.648-16.648h-33.38c-9.203 0-16.648 7.446-16.648 16.648v83.409h-400.481v-400.397h400.397v83.409c0 9.203 7.446 16.648 16.648 16.648h33.38c9.203 0 16.648-7.446 16.648-16.648v-116.79c0-18.405-14.892-33.38-33.38-33.38h-467.075c-18.405 0-33.38 14.892-33.38 33.38v467.158c0 18.489 14.892 33.38 33.38 33.38zM270.724 414.62h183.55v-56.554c0-9.872 8.868-13.135 16.648-7.195l110.85 86.337c7.78 5.94 7.948 15.644 0.167 21.584l-111.017 86.254c-7.864 5.94-16.648 2.761-16.648-7.195v-56.554h-183.55c-9.203 0-16.648-7.446-16.648-16.648v-33.38c0-9.203 7.446-16.648 16.648-16.648z" horiz-adv-x="663" />
<glyph unicode="&#x37;" d="M632.889 484.727c1.757-9.621 1.088-18.405-1.924-26.353-3.514-8.366-9.37-15.059-17.569-20.078l-132.936-79.142 54.714-151.341 1.924-4.434 1.924-4.35c0.418-1.255 0.669-2.928 0.669-5.020s0.251-3.765 0.669-5.020c-0.837-12.549-5.020-22.421-12.382-29.532-9.119-7.948-19.576-11.963-31.289-11.963-6.107 0-10.458 0.586-13.051 1.841-7.864 3.765-11.963 5.856-12.382 6.275l-138.123 100.476-136.784-100.476c-8.701-5.438-17.15-8.199-25.433-8.199-9.119 0-17.82 2.51-26.102 7.529-8.282 6.275-13.218 13.386-14.975 21.333-3.012 10.039-2.844 18.824 0.669 26.353l56.052 156.361-132.267 79.226c-6.944 3.765-12.8 10.458-17.569 20.078-2.175 5.020-3.263 9.454-3.263 13.218 0 2.928 0.418 7.362 1.339 13.218 3.932 10.039 9.119 17.401 15.644 22.003 8.282 5.438 16.899 8.199 26.018 8.199h164.225l52.12 162.050c1.757 7.111 6.944 14.055 15.644 20.748 6.944 5.438 15.226 8.199 24.763 8.199h0.669c9.119 0 17.569-2.761 25.433-8.199 7.78-5.438 12.8-12.382 14.975-20.748l52.12-162.050h164.141c9.119 0 17.82-2.761 26.102-8.199 4.267-3.346 9.705-10.708 16.23-22.003z" horiz-adv-x="663" />
<glyph unicode="&#x38;" d="M571.399 422.233c41.579-43.085 62.41-95.038 62.41-156.026 0-16.648-5.522-30.703-16.481-42.081-11.796-12.214-25.516-18.238-41.161-18.238-16.481 0-30.201 6.107-41.161 18.238-11.378 12.549-17.067 26.604-17.067 42.081 0 28.026-9.454 51.786-28.277 71.278s-41.746 29.281-68.852 29.281h-77.135v-120.638c0-8.115-2.008-15.059-5.856-20.748-4.35-6.525-9.621-11.545-15.895-15.226-0.418 0-1.004-0.167-1.757-0.586s-1.339-0.586-1.757-0.586l-4.685-1.841c-3.932-0.837-6.86-1.255-8.868-1.255-2.761 0-6.86 0.837-12.382 2.426-3.095 0.837-6.86 2.844-11.21 6.107l-231.906 180.455c-4.685 2.426-8.45 7.111-11.21 13.971-3.095 5.689-4.685 11.545-4.685 17.652 0 6.525 1.59 12.633 4.685 18.238 2.342 5.271 6.107 9.956 11.21 14.055l231.906 180.371c6.275 4.434 12.967 7.111 19.995 7.948 8.282 0.837 15.142-0.586 20.58-4.267 6.275-2.844 11.545-7.697 15.895-14.641 3.932-6.525 5.856-13.386 5.856-20.748v-120.638h77.135c58.897 0 109.093-21.501 150.672-64.586z" horiz-adv-x="663" />
<glyph unicode="&#x39;" d="M198.358 331.796h135.195c12.549 0 23.258-4.601 32.042-13.888 8.784-9.203 13.218-20.497 13.218-33.631 0-12.884-4.434-23.927-13.218-33.129s-19.493-13.888-32.042-13.888h-180.371c-12.214 0-22.756 4.601-31.54 13.888-8.784 9.203-13.218 20.329-13.218 33.129v142.139h-45.176c-5.020 0-10.207 1.673-15.561 4.936s-9.119 7.613-11.294 12.884-3.179 10.876-2.844 16.816c0.335 5.271 2.175 10.708 5.689 16.314l90.437 126.745c5.689 7.948 13.637 11.88 24.010 11.88 10.039 0 17.903-3.932 23.592-11.88l88.094-123.733c2.51-3.597 4.518-6.944 6.107-9.872 1.59-4.267 2.342-8.45 2.342-12.382 0-8.617-3.012-15.979-8.952-22.254s-13.051-9.37-21.166-9.37h-45.176v-94.703zM619.922 421.898c4.685-2.928 8.282-7.278 10.876-12.884 2.51-5.605 3.43-11.21 2.844-16.816-0.586-6.609-2.51-12.047-5.689-16.314l-90.437-126.243c-3.43-3.932-6.944-6.944-10.374-8.952-4.099-2.342-8.617-3.43-13.637-3.43s-9.286 1.171-12.716 3.43c-3.765 1.673-7.362 4.601-10.792 8.952l-90.52 126.243c-3.179 4.267-5.020 9.705-5.689 16.314-0.669 5.605 0.335 11.21 2.844 16.816 2.175 5.271 5.94 9.537 11.294 12.884 4.685 3.012 9.872 4.434 15.561 4.434h45.176v95.122h-135.111c-12.549 0-23.258 4.601-32.042 13.888-8.784 9.203-13.218 20.329-13.218 33.129 0 13.218 4.434 24.429 13.218 33.631s19.493 13.888 32.042 13.888h179.953c12.549 0 23.258-4.601 32.042-13.888 8.784-9.203 13.218-20.497 13.218-33.631v-142.055h45.176c5.94 0 11.294-1.506 15.979-4.518z" horiz-adv-x="663" />
<glyph unicode="&#x3c;" d="M438.848 448l244.384 244.224c18.080 18.048 18.080 47.328 0 65.408-18.080 18.048-47.36 18.048-65.44 0l-277.024-276.864c-9.056-9.056-13.568-20.928-13.536-32.8 0-11.84 4.48-23.712 13.536-32.768l277.024-276.864c18.080-18.048 47.36-18.048 65.44 0s18.080 47.328 0 65.408l-244.384 244.256z" />
<glyph unicode="&#x3e;" d="M683.232 480.8l-277.024 276.864c-18.080 18.048-47.36 18.048-65.44 0-18.080-18.080-18.080-47.328 0-65.408l244.384-244.256-244.384-244.256c-18.080-18.048-18.080-47.328 0-65.408 18.080-18.048 47.36-18.048 65.44 0l277.024 276.864c9.056 9.056 13.568 20.928 13.536 32.768 0.032 11.872-4.48 23.776-13.536 32.832z" />
<glyph unicode="&#x3f;" d="M867.072 678.112l-124.896 124.896c-8.608 8.608-19.936 12.928-31.232 12.928s-22.592-4.32-31.232-12.928l-330.944-319.040v-199.2h199.232l319.104 330.88c17.216 17.248 17.216 45.216-0.032 62.464zM510.336 373.312h-73.056v73.056l273.088 263.264 63.264-63.264-263.296-273.056zM808.064 345.632c-24.448 0-44.256-19.808-44.256-44.256v-110.656c0-12.224-9.92-22.144-22.144-22.144h-486.976c-12.224 0-22.144 9.92-22.144 22.144v486.912c0 12.224 9.92 22.144 22.144 22.144h110.688c24.448 0 44.288 19.808 44.288 44.256s-19.808 44.256-44.288 44.256h-177.12c-24.448 0-44.256-19.84-44.256-44.288v-619.68c0-24.448 19.808-44.256 44.256-44.256h619.808c24.448 0 44.256 19.808 44.256 44.256v177.056c0 24.448-19.808 44.256-44.256 44.256z" />
<glyph unicode="&#x40;" d="M571.712 442.88c0 31.296-25.472 56.768-56.768 56.768s-56.768-25.472-56.768-56.768c0-31.296 25.472-56.768 56.768-56.768 31.328 0.032 56.768 25.472 56.768 56.768zM632.96 650.848c0 8.832 7.168 16 15.968 16h49.408c8.8 0 16-7.168 16-16v-49.408c0-8.8-7.232-15.968-16-15.968h-49.408c-8.8 0-15.968 7.168-15.968 15.968v49.408zM514.944 579.616c29.504 0 56.8-9.408 79.136-25.344h205.92v40.128c0 79.36-64.544 143.968-143.936 143.968h-288.128c-79.328 0-143.936-64.576-143.936-143.968v-40.128h211.808c22.4 15.936 49.664 25.344 79.136 25.344zM651.712 442.88c0-75.424-61.376-136.736-136.736-136.736s-136.736 61.312-136.736 136.736c0 20.768 4.672 40.448 13.024 58.112h-167.264v-197.024c0-79.392 64.576-143.968 143.968-143.968h288.128c79.36 0 143.904 64.576 143.904 143.968v197.024h-161.28c8.288-17.664 12.992-37.312 12.992-58.112z" />
<glyph unicode="&#x42;" d="M497.28 860.608h329.728c25.504 0 46.208-20.672 46.208-46.208v-348.16c0-25.504-20.672-46.208-46.208-46.208-25.504 0-46.208 20.672-46.208 46.208v278.848c0 12.768-10.336 23.104-23.104 23.104h-214.24v-264.8c0-25.504-20.672-46.208-46.208-46.208h-254.048v-306.304c0-12.768 10.336-23.104 23.104-23.104h183.712c25.504 0 46.208-20.672 46.208-46.208 0-25.504-20.672-46.208-46.208-46.208h-253.024c-25.504 0-46.208 20.672-46.208 46.208v431.104l346.496 347.936zM427.968 549.6c12.768 0 23.104 10.336 23.104 23.104v111.392l-42.56-42.912-91.648-91.552h111.104zM663.168 310.784l65.664-65.664 65.664 65.664c17.856 17.856 46.816 17.856 64.672 0l0.64-0.64c17.856-17.856 17.856-46.816 0-64.672l-65.664-65.664 65.664-65.664c17.856-17.856 17.856-46.816 0-64.672l-0.64-0.64c-17.856-17.856-46.816-17.856-64.672 0l-65.664 65.664-65.664-65.664c-17.856-17.856-46.816-17.856-64.672 0l-0.64 0.64c-17.856 17.856-17.856 46.816 0 64.672l65.664 65.664-65.664 65.664c-17.856 17.856-17.856 46.816 0 64.672l0.64 0.64c17.856 17.856 46.784 17.856 64.672 0z" />
<glyph unicode="&#x43;" d="M651.136 266.336l-0.64-0.64c-17.856-17.856-17.856-46.816 0-64.672l65.664-65.664-65.664-65.664c-17.856-17.856-17.856-46.816 0-64.672l0.64-0.64c17.856-17.856 46.816-17.856 64.672 0l65.664 65.664 65.664-65.664c17.856-17.856 46.816-17.856 64.672 0l0.64 0.64c17.856 17.856 17.856 46.816 0 64.672l-65.664 65.664 65.664 65.664c17.856 17.856 17.856 46.816 0 64.672l-0.64 0.64c-17.856 17.856-46.816 17.856-64.672 0l-65.664-65.664-65.664 65.664c-17.856 17.856-46.816 17.856-64.672 0zM739.168 467.872v-71.008c0-16.192-21.248-46.208-40.416-46.208h-160.064c9.92-21.216 15.712-44.096 15.712-67.584v-71.008c0-16.192-21.248-46.208-40.416-46.208h-469.216c-19.168 0.032-44.768 30.016-44.768 46.208v71.008c0 67.36 45.056 130.496 110.88 160h6.432c-15.744 27.2-24.928 58.688-24.928 92.384 0 102.048 82.72 184.8 184.8 184.8 0 102.048 82.72 184.8 184.8 184.8s184.8-82.72 184.8-184.8c0-33.696-9.152-65.184-24.928-92.384h6.432c65.824-29.504 110.88-92.64 110.88-160zM369.568 720.256c0-9.76 1.92-18.976 4.736-27.808 24.288-15.072 44.768-35.552 59.84-59.84 8.832-2.816 18.048-4.736 27.808-4.736 50.944 0 92.384 41.44 92.384 92.384s-41.44 92.384-92.384 92.384c-50.912 0-92.384-41.44-92.384-92.384zM184.8 535.456c0-5.376 0.608-10.56 1.568-15.648 7.456-43.552 45.152-76.768 90.816-76.768 51.040 0 92.384 41.376 92.384 92.384 0 51.040-41.376 92.384-92.384 92.384-51.040 0.032-92.384-41.312-92.384-92.352zM461.984 283.072c0 25.088-16.48 51.136-41.504 67.584h-286.56c-25.056-16.448-41.504-42.528-41.504-67.584v-24.8h369.568v24.8zM646.752 467.872c0 25.088-16.48 51.136-41.504 67.584h-143.264c0-33.696-9.152-65.184-24.928-92.384h209.696v24.8z" />
<glyph unicode="&#x45;" d="M468.512 504.192v-168.448c0-24.736 20.032-44.8 44.8-44.8s44.8 20.064 44.8 44.8v168.448c0 24.736-20.032 44.8-44.8 44.8s-44.8-20.064-44.8-44.8zM968.704 118.912l-412.96 715.264c-9.088 15.744-25.888 25.44-44.064 25.44s-34.976-9.696-44.064-25.44l-416.544-721.504c-9.088-15.744-9.088-35.136 0-50.88s25.888-25.44 44.064-25.44h833.12c0.192 0.032 0.416 0 0.64 0 28.096 0 50.88 22.784 50.88 50.88-0.032 12-4.16 22.976-11.072 31.68zM183.264 138.112l328.416 568.864 328.416-568.864h-656.832zM557.952 215.776c0-24.654-19.986-44.64-44.64-44.64s-44.64 19.986-44.64 44.64c0 24.654 19.986 44.64 44.64 44.64s44.64-19.986 44.64-44.64z" />
<glyph unicode="&#x47;" d="M774.4 502.4v0-307.2c0-12.8-9.6-22.4-22.4-22.4h-483.2c-12.8 0-22.4 9.6-22.4 22.4v396.8c0 12.8 9.6 22.4 22.4 22.4h480c12.8 0 22.4-9.6 22.4-22.4v-89.6zM864 774.4c0 6.4-3.2 9.6-6.4 16-3.2 3.2-6.4 9.6-12.8 12.8s-16 6.4-25.6 6.4h-614.4c-25.6 0-44.8-22.4-44.8-44.8v-633.6c0-25.6 19.2-44.8 44.8-44.8h614.4c25.6 0 44.8 19.2 44.8 44.8v633.6c0 3.2 0 6.4 0 9.6zM406.4 435.2c0 0 0 0 0 0-3.2 3.2-3.2 3.2-3.2 3.2s-3.2 0-3.2 0h-96c-3.2 0-6.4-3.2-6.4-6.4v-76.8c0-3.2 3.2-6.4 6.4-6.4h96c3.2 0 6.4 3.2 6.4 6.4v80c3.2-3.2 0-3.2 0 0zM566.4 435.2c0 0 0 0 0 0-3.2 3.2-3.2 3.2-3.2 3.2s-3.2 0-3.2 0h-96c-3.2 0-6.4-3.2-6.4-6.4v-76.8c0-3.2 3.2-6.4 6.4-6.4h96c3.2 0 6.4 3.2 6.4 6.4v80c0-3.2 0-3.2 0 0zM726.4 435.2c0 0 0 0 0 0-3.2 3.2-3.2 3.2-3.2 3.2s-3.2 0-3.2 0h-96c-3.2 0-6.4-3.2-6.4-6.4v-76.8c0-3.2 3.2-6.4 6.4-6.4h96c3.2 0 6.4 3.2 6.4 6.4v80c0-3.2 0-3.2 0 0z" />
<glyph unicode="&#x48;" d="M908.8 460.8v0c-16 12.8-38.4 9.6-48-6.4l-32-41.6-89.6-115.2-41.6-54.4-64 48-28.8 22.4c-16 9.6-35.2 9.6-48-6.4v0c-12.8-16-9.6-35.2 6.4-48l54.4-38.4 67.2-51.2c16-12.8 38.4-9.6 48 6.4l83.2 108.8 86.4 112 3.2 3.2 9.6 12.8c9.6 12.8 6.4 35.2-6.4 48zM393.6 662.4l214.4-140.8c3.2-3.2 6.4-9.6 6.4-12.8v-89.6c0-19.2 16-35.2 35.2-35.2v0c19.2 0 35.2 16 35.2 35.2v115.2c0 9.6-6.4 22.4-16 28.8l-249.6 166.4c-6.4 3.2-12.8 6.4-19.2 6.4h-12.8c-6.4 0-12.8-3.2-19.2-6.4l-249.6-166.4c-9.6-6.4-16-16-16-28.8v-275.2c0-19.2 16-35.2 35.2-35.2h313.6c19.2 0 35.2 16 35.2 32v0c0 19.2-16 35.2-35.2 35.2h-262.4c-9.6 0-16 6.4-16 16v198.4c0 6.4 3.2 9.6 6.4 12.8l214.4 144z" />
<glyph unicode="&#x49;" d="M904.544 193.088l65.664 65.664c17.856 17.856 17.856 46.816 0 64.672l-0.64 0.64c-17.856 17.856-46.816 17.856-64.672 0l-65.664-65.664-65.664 65.664c-17.856 17.856-46.816 17.856-64.672 0l-0.64-0.64c-17.856-17.856-17.856-46.816 0-64.672l65.664-65.664-65.664-65.664c-17.856-17.856-17.856-46.816 0-64.672l0.64-0.64c17.856-17.856 46.816-17.856 64.672 0l65.664 65.664 65.664-65.664c17.856-17.856 46.816-17.856 64.672 0l0.64 0.64c17.856 17.856 17.856 46.816 0 64.672l-65.664 65.664zM665.6 450.144v-26.944c0-28.16 23.040-51.2 51.2-51.2s51.2 23.040 51.2 51.2v314.72c28.288 0 51.2 22.912 51.2 51.2v51.2h-614.4v-51.2c0-28.288 22.912-51.2 51.2-51.2v-409.6c-28.288 0-51.2-22.912-51.2-51.2v-51.2h256v-152.832c0-28.288 22.912-51.2 51.2-51.2s51.2 22.912 51.2 51.2v152.832h60.8c28.16 0 51.2 23.040 51.2 51.2s-23.040 51.2-51.2 51.2h-265.6v409.6h307.2v-287.776z" />
<glyph unicode="&#x4e;" d="M512 454.912l322.272 218.656c-7.104 12.16-20.16 20.416-35.264 20.416h-574.016c-14.912 0-27.872-8.064-35.040-20l322.048-219.072zM532.64 371.712c-6.368-3.808-13.504-5.696-20.64-5.696s-14.272 1.888-20.64 5.696l-307.36 208.192v-336.896c0-22.656 18.368-40.992 40.992-40.992h574.016c22.656 0 40.992 18.368 40.992 40.992v336.288l-307.36-207.584z" />
<glyph unicode="&#x50;" d="M331.584 792.064l457.824-344.064-457.824-344.064v688.128zM331.552 894.912c-15.648 0-31.392-3.584-45.92-10.848-34.848-17.408-56.896-53.024-56.896-92v-688.128c0-38.976 22.016-74.592 56.896-92 14.528-7.264 30.272-10.848 45.92-10.848 21.888 0 43.648 6.976 61.792 20.64l457.856 344.064c25.856 19.424 41.056 49.888 41.056 82.208s-15.2 62.784-41.056 82.208l-457.824 344.064c-18.176 13.664-39.936 20.64-61.824 20.64v0z" />
<glyph unicode="&#x5a;" d="M638.144 311.264l-0.64-0.64c-17.856-17.856-17.856-46.816 0-64.672l65.664-65.664-65.664-65.664c-17.856-17.856-17.856-46.816 0-64.672l0.64-0.64c17.856-17.856 46.816-17.856 64.672 0l65.664 65.664 65.664-65.664c17.856-17.856 46.816-17.856 64.672 0l0.64 0.64c17.856 17.856 17.856 46.816 0 64.672l-65.664 65.664 65.664 65.664c17.856 17.856 17.856 46.816 0 64.672l-0.64 0.64c-17.856 17.856-46.816 17.856-64.672 0l-65.664-65.664-65.664 65.664c-17.856 17.856-46.816 17.856-64.672 0zM453.536 231.584h-253.984v542.752c0 26.080-21.152 47.2-47.2 47.2s-47.232-21.152-47.232-47.2v-637.152h348.416c26.080 0 47.2 21.152 47.2 47.2 0 26.080-21.12 47.2-47.2 47.2zM869.6 737.152c-18.432 18.432-48.32 18.432-66.752 0l-201.536-201.504-124.928 124.928-178.944-178.976c-18.432-18.432-18.432-48.32 0-66.752 9.216-9.216 21.28-13.824 33.376-13.824 12.064 0 24.16 4.608 33.376 13.824l112.192 112.192 124.928-124.928 268.288 268.256c18.432 18.464 18.432 48.352 0 66.784z" />
<glyph unicode="&#x5e;" d="M821.632 342.208l-276.864 277.024c-9.056 9.056-20.928 13.568-32.8 13.536-11.872 0-23.712-4.48-32.768-13.536l-276.864-277.024c-18.048-18.080-18.048-47.36 0-65.44s47.328-18.080 65.408 0l244.256 244.384 244.224-244.384c18.048-18.080 47.328-18.080 65.408 0s18.080 47.36 0 65.44z" />
<glyph unicode="&#x61;" d="M742.976 817.568h-461.952c-25.504 0-46.208-20.672-46.208-46.208v-646.688c0-27.168 22.304-46.272 46.336-46.272 8.576 0 17.408 2.432 25.504 7.84l190.272 163.968c8.672 7.456 21.504 7.456 30.144 0l190.272-163.968c8.096-5.408 16.896-7.84 25.504-7.84 24.032 0 46.336 19.104 46.336 46.272v646.72c0 25.504-20.672 46.176-46.208 46.176zM696.8 225.952l-169.728 146.24c-8.672 7.456-21.504 7.456-30.144 0l-169.728-146.24v476.128c0 12.768 10.336 23.104 23.104 23.104h323.392c12.768 0 23.104-10.336 23.104-23.104v-476.128z" />
<glyph unicode="&#x62;" d="M497.28 860.608h329.728c25.504 0 46.208-20.672 46.208-46.208v-348.16c0-25.504-20.672-46.208-46.208-46.208-25.504 0-46.208 20.672-46.208 46.208v278.848c0 12.768-10.336 23.104-23.104 23.104h-214.24v-264.8c0-25.504-20.672-46.208-46.208-46.208h-254.048v-306.304c0-12.768 10.336-23.104 23.104-23.104h183.712c25.504 0 46.208-20.672 46.208-46.208 0-25.504-20.672-46.208-46.208-46.208h-253.024c-25.504 0-46.208 20.672-46.208 46.208v431.104l346.496 347.936zM427.968 549.6c12.768 0 23.104 10.336 23.104 23.104v111.392l-42.56-42.912-91.648-91.552h111.104zM549.344 266.4h92.864v92.864c0 25.248 20.48 45.728 45.728 45.728h0.928c25.248 0 45.728-20.48 45.728-45.728v-92.864h92.864c25.248 0 45.728-20.48 45.728-45.728v-0.928c0-25.248-20.48-45.728-45.728-45.728h-92.864v-92.864c0-25.248-20.48-45.728-45.728-45.728h-0.928c-25.248 0-45.728 20.48-45.728 45.728v92.864h-92.864c-25.248 0-45.728 20.48-45.728 45.728v0.928c0 25.248 20.48 45.728 45.728 45.728z" />
<glyph unicode="&#x63;" d="M654.432 193.568v-0.928c0-25.248 20.48-45.728 45.728-45.728h92.864v-92.864c0-25.248 20.48-45.728 45.728-45.728h0.928c25.248 0 45.728 20.48 45.728 45.728v92.864h92.864c25.248 0 45.728 20.48 45.728 45.728v0.928c0 25.248-20.48 45.728-45.728 45.728h-92.864v92.864c0 25.248-20.48 45.728-45.728 45.728h-0.928c-25.248 0-45.728-20.48-45.728-45.728v-92.864h-92.864c-25.248 0-45.728-20.48-45.728-45.728zM739.168 467.872v-71.008c0-16.192-21.248-46.208-40.416-46.208h-160.064c9.92-21.216 15.712-44.096 15.712-67.584v-71.008c0-16.192-21.248-46.208-40.416-46.208h-469.216c-19.168 0.032-44.768 30.016-44.768 46.208v71.008c0 67.36 45.056 130.496 110.88 160h6.432c-15.744 27.2-24.928 58.688-24.928 92.384 0 102.048 82.72 184.8 184.8 184.8 0 102.048 82.72 184.8 184.8 184.8s184.8-82.72 184.8-184.8c0-33.696-9.152-65.184-24.928-92.384h6.432c65.824-29.504 110.88-92.64 110.88-160zM369.568 720.256c0-9.76 1.92-18.976 4.736-27.808 24.288-15.072 44.768-35.552 59.84-59.84 8.832-2.816 18.048-4.736 27.808-4.736 50.944 0 92.384 41.44 92.384 92.384s-41.44 92.384-92.384 92.384c-50.912 0-92.384-41.44-92.384-92.384zM184.8 535.456c0-5.376 0.608-10.56 1.568-15.648 7.456-43.552 45.152-76.768 90.816-76.768 51.040 0 92.384 41.376 92.384 92.384 0 51.040-41.376 92.384-92.384 92.384-51.040 0.032-92.384-41.312-92.384-92.352zM461.984 283.072c0 25.088-16.48 51.136-41.504 67.584h-286.56c-25.056-16.448-41.504-42.528-41.504-67.584v-24.8h369.568v24.8zM646.752 467.872c0 25.088-16.48 51.136-41.504 67.584h-143.264c0-33.696-9.152-65.184-24.928-92.384h209.696v24.8z" />
<glyph unicode="&#x64;" d="M575.104 388.192h-36v144c0 11.36-9.216 20.576-20.576 20.576h-97.728c-11.36 0-20.576-9.216-20.576-20.576v-41.152c0-11.36 9.216-20.576 20.576-20.576h36v-82.272h-36c-11.36 0-20.576-9.216-20.576-20.576v-41.152c0-11.36 9.216-20.576 20.576-20.576h154.304c11.36 0 20.576 9.216 20.576 20.576v41.152c0 11.36-9.216 20.576-20.576 20.576zM929.12 204.672h-89.792v89.792c0 24.416-19.808 44.224-44.224 44.224h-0.896c-24.416 0-44.224-19.808-44.224-44.224v-89.792h-89.792c-24.416 0-44.224-19.808-44.224-44.224v-0.896c0-24.416 19.808-44.224 44.224-44.224h89.792v-89.792c0-24.416 19.808-44.224 44.224-44.224h0.896c24.416 0 44.224 19.808 44.224 44.224v89.792h89.792c24.416 0 44.224 19.808 44.224 44.224v0.896c0 24.416-19.808 44.224-44.224 44.224zM236.288 651.392h523.392c12.32 0 22.336-9.984 22.336-22.336v-185.12c0-24.416 19.808-44.224 44.224-44.224h0.896c24.416 0 44.224 19.808 44.224 44.224v358.496c0 24.672-20 44.672-44.672 44.672h-657.408c-24.672 0-44.672-20-44.672-44.672v-674.432c0-24.672 20-44.672 44.672-44.672h217.024l1.792 3.584v-3.584h107.424c24.416 0 44.224 19.808 44.224 44.224v0.896c0 24.416-19.808 44.224-44.224 44.224h-259.232c-12.32 0-22.336 9.984-22.336 22.336v434.048c0 12.32 9.984 22.336 22.336 22.336z" />
<glyph unicode="&#x65;" d="M821.632 619.232c-18.080 18.080-47.328 18.080-65.408 0l-244.224-244.384-244.256 244.384c-18.048 18.080-47.328 18.080-65.408 0-18.048-18.080-18.048-47.36 0-65.44l276.864-277.024c9.056-9.056 20.928-13.568 32.768-13.536 11.872-0.032 23.744 4.48 32.8 13.536l276.864 277.024c18.080 18.080 18.080 47.36 0 65.44z" />
<glyph unicode="&#x66;" d="M729.792 510.208v0c8.384 23.936 13.184 49.568 13.184 76.384 0 127.584-103.424 230.976-230.976 230.976-127.584 0-230.976-103.424-230.976-230.976 0-26.816 4.8-52.448 13.216-76.384v0c-90.016-45.792-151.808-139.040-151.808-246.944v-138.592c0-25.536 20.704-46.272 46.272-46.272h646.624c25.536 0 46.272 20.704 46.272 46.272v138.592c-0.032 107.904-61.824 201.152-151.808 246.944zM512 725.184c76.416 0 138.592-62.176 138.592-138.592s-62.176-138.592-138.592-138.592c-76.416 0-138.592 62.176-138.592 138.592s62.176 138.592 138.592 138.592zM789.184 170.816h-554.368v92.448c0 74.112 43.968 138.016 107.104 167.392 42.24-46.016 102.688-75.072 170.080-75.072s127.84 29.024 170.080 75.072c63.136-29.408 107.104-93.28 107.104-167.392v-92.448z" />
<glyph unicode="&#x67;" d="M774.4 502.4v0-307.2c0-12.8-9.6-22.4-22.4-22.4h-483.2c-12.8 0-22.4 9.6-22.4 22.4v396.8c0 12.8 9.6 22.4 22.4 22.4h480c12.8 0 22.4-9.6 22.4-22.4v-89.6zM864 774.4c0 6.4-3.2 9.6-6.4 16-3.2 3.2-6.4 9.6-12.8 12.8s-16 6.4-25.6 6.4h-614.4c-25.6 0-44.8-22.4-44.8-44.8v-633.6c0-25.6 19.2-44.8 44.8-44.8h614.4c25.6 0 44.8 19.2 44.8 44.8v633.6c0 3.2 0 6.4 0 9.6zM406.4 563.2c0 0 0 3.2 0 0-3.2 3.2-3.2 3.2-3.2 3.2s-3.2 0-3.2 0h-96c-3.2 0-6.4-3.2-6.4-6.4v-76.8c0-3.2 3.2-6.4 6.4-6.4h96c3.2 0 6.4 3.2 6.4 6.4v80c3.2 0 0 0 0 0zM566.4 563.2c0 0 0 3.2 0 0-3.2 3.2-3.2 3.2-3.2 3.2s-3.2 0-3.2 0h-96c-3.2 0-6.4-3.2-6.4-6.4v-76.8c0-3.2 3.2-6.4 6.4-6.4h96c3.2 0 6.4 3.2 6.4 6.4v80c0 0 0 0 0 0zM726.4 563.2c0 0 0 3.2 0 0-3.2 3.2-3.2 3.2-3.2 3.2s-3.2 0-3.2 0h-96c-3.2 0-6.4-3.2-6.4-6.4v-76.8c0-3.2 3.2-6.4 6.4-6.4h96c3.2 0 6.4 3.2 6.4 6.4v80c0 0 0 0 0 0zM406.4 435.2c0 0 0 0 0 0-3.2 3.2-3.2 3.2-3.2 3.2s-3.2 0-3.2 0h-96c-3.2 0-6.4-3.2-6.4-6.4v-76.8c0-3.2 3.2-6.4 6.4-6.4h96c3.2 0 6.4 3.2 6.4 6.4v80c3.2-3.2 0-3.2 0 0zM566.4 435.2c0 0 0 0 0 0-3.2 3.2-3.2 3.2-3.2 3.2s-3.2 0-3.2 0h-96c-3.2 0-6.4-3.2-6.4-6.4v-76.8c0-3.2 3.2-6.4 6.4-6.4h96c3.2 0 6.4 3.2 6.4 6.4v80c0-3.2 0-3.2 0 0zM726.4 435.2c0 0 0 0 0 0-3.2 3.2-3.2 3.2-3.2 3.2s-3.2 0-3.2 0h-96c-3.2 0-6.4-3.2-6.4-6.4v-76.8c0-3.2 3.2-6.4 6.4-6.4h96c3.2 0 6.4 3.2 6.4 6.4v80c0-3.2 0-3.2 0 0zM406.4 304c0 0 0 3.2 0 0-3.2 3.2-3.2 3.2-3.2 3.2s-3.2 0-3.2 0h-96c-3.2 0-6.4-3.2-6.4-6.4v-76.8c0-3.2 3.2-6.4 6.4-6.4h96c3.2 0 6.4 3.2 6.4 6.4v80c3.2 0 0 0 0 0zM566.4 304c0 0 0 3.2 0 0-3.2 3.2-3.2 3.2-3.2 3.2s-3.2 0-3.2 0h-96c-3.2 0-6.4-3.2-6.4-6.4v-76.8c0-3.2 3.2-6.4 6.4-6.4h96c3.2 0 6.4 3.2 6.4 6.4v80c0 0 0 0 0 0zM726.4 304c0 0 0 3.2 0 0-3.2 3.2-3.2 3.2-3.2 3.2s-3.2 0-3.2 0h-96c-3.2 0-6.4-3.2-6.4-6.4v-76.8c0-3.2 3.2-6.4 6.4-6.4h96c3.2 0 6.4 3.2 6.4 6.4v80c0 0 0 0 0 0z" />
<glyph unicode="&#x68;" d="M967.328 776.864c0 20.416-16.704 37.088-37.088 37.088h-836.448c-20.416 0-37.088-16.704-37.088-37.088v-64.064c0-20.416 16.704-37.088 37.088-37.088h836.448c20.416 0 37.088 16.704 37.088 37.088v64.064zM967.328 183.2c0 20.416-16.704 37.088-37.088 37.088h-836.448c-20.416 0-37.088-16.704-37.088-37.088v-64.064c0-20.416 16.704-37.088 37.088-37.088h836.448c20.416 0 37.088 16.704 37.088 37.088v64.064zM967.328 480.032c0 20.416-16.704 37.088-37.088 37.088h-836.448c-20.416 0-37.088-16.704-37.088-37.088v-64.064c0-20.416 16.704-37.088 37.088-37.088h836.448c20.416 0 37.088 16.704 37.088 37.088v64.064z" />
<glyph unicode="&#x69;" d="M819.2 789.12v51.2h-614.4v-51.2c0-28.288 22.912-51.2 51.2-51.2v-409.6c-28.288 0-51.2-22.912-51.2-51.2v-51.2h256v-153.6c0-28.288 22.912-51.2 51.2-51.2s51.2 22.912 51.2 51.2v153.6h256v51.2c0 28.288-22.912 51.2-51.2 51.2v409.6c28.288 0 51.2 22.912 51.2 51.2zM665.6 328.32h-307.2v409.6h307.2v-409.6z" />
<glyph unicode="&#x6a;" d="M812.8 748.8h-601.6v-448h323.2l124.8-73.6v73.6h150.4v448zM912 297.6v-51.2c0-28.8-22.4-51.2-51.2-51.2h-102.4v-150.4l-224 150.4h-371.2c-28.8 0-51.2 22.4-51.2 51.2v550.4c0 28.8 22.4 51.2 51.2 51.2h697.6c28.8 0 51.2-22.4 51.2-51.2v-499.2z" />
<glyph unicode="&#x6b;" d="M892.48 173.664v-40.32c0-22.272-18.048-40.32-40.32-40.32h-40.32c0 0 0 0 0 0h-640c-22.272 0-40.32 18.048-40.32 40.32v548.64c0 22.272 18.048 40.32 40.32 40.32h122.24v40.32c0 22.272 18.048 40.32 40.32 40.32h517.728c22.272 0 40.32-18.048 40.32-40.32v-588.96h0.032zM292.832 601.344v0 40.32h-80.64v-468h80.672v427.68zM811.808 214.016v508.32h-438.304v-548.672h438.304v40.352zM654.624 616h47.904v-80.672h-224v80.672h47.872zM654.624 488.32h47.904v-80.64h-224v80.64h47.872zM654.624 360.672h47.904v-80.672h-224v80.672h47.872z" />
<glyph unicode="&#x6c;" d="M852.032 787.968c-8.384 8.416-19.968 13.6-32.768 13.6l-244.16-0.128c-25.536 0-46.272-20.736-46.272-46.272s20.704-46.24 46.24-46.24l132.672 0.064-296.704-296.704c-18.048-18.048-18.048-47.296-0.032-65.312s47.264-18.016 65.312 0.032l296.704 296.704-0.064-132.672c0-25.536 20.704-46.24 46.24-46.24s46.272 20.736 46.272 46.272l0.128 244.16c0.032 12.768-5.152 24.352-13.568 32.736zM819.424 339.616c-25.504 0-46.208-20.672-46.208-46.208v-83.488c0-12.768-10.336-23.104-23.104-23.104h-476.224c-12.768 0-23.104 10.336-23.104 23.104v476.16c0 12.768 10.336 23.104 23.104 23.104h83.52c25.504 0 46.208 20.672 46.208 46.208 0 25.504-20.672 46.208-46.208 46.208h-152.832c-25.504 0-46.208-20.672-46.208-46.208v-614.752c0-25.504 20.672-46.208 46.208-46.208h614.88c25.504 0 46.208 20.672 46.208 46.208v152.8c-0.032 25.472-20.704 46.176-46.24 46.176z" />
<glyph unicode="&#x6d;" d="M874.88 85.12c-28.16-28.16-73.824-28.16-101.984 0l-127.296 127.296c-52.352-33.536-114.208-53.568-180.992-53.568-185.92 0-336.608 150.688-336.608 336.576s150.688 336.576 336.576 336.576c185.888 0 336.576-150.688 336.576-336.576 0-66.784-20.032-128.672-53.568-180.992l127.296-127.296c28.16-28.192 28.16-73.856 0-102.016zM464.576 735.84c-132.768 0-240.416-107.648-240.416-240.416s107.648-240.416 240.416-240.416c132.768 0 240.416 107.648 240.416 240.416s-107.616 240.416-240.416 240.416z" />
<glyph unicode="&#x6e;" d="M855.744 742.624h-687.488c-27.104 0-49.12-21.984-49.12-49.12v-491.072c0-27.136 21.984-49.12 49.12-49.12h687.488c27.136 0 49.12 21.984 49.12 49.12v491.104c-0.032 27.104-22.016 49.088-49.12 49.088zM787.872 644.416l-275.872-188.128-275.872 188.128h551.744zM806.624 276.128c0-13.568-11.008-24.544-24.544-24.544h-540.16c-13.568 0-24.544 11.008-24.544 24.544v263.328l269.92-182.816c7.648-4.576 16.16-6.848 24.704-6.848s17.088 2.272 24.704 6.848l269.92 182.816v-263.328z" />
<glyph unicode="&#x6f;" d="M835.392 355.616h-46.208v184.8c0 153.088-124.096 277.184-277.184 277.184s-277.184-124.096-277.184-277.184v-184.8h-46.208c-25.504 0-46.208-20.672-46.208-46.208 0-25.504 20.672-46.208 46.208-46.208h646.752c25.504 0 46.208 20.672 46.208 46.208 0 25.504-20.672 46.208-46.176 46.208zM696.8 355.616h-369.6v184.8c0 101.888 82.912 184.8 184.8 184.8s184.8-82.912 184.8-184.8v-184.8zM419.616 170.816c0-51.040 41.376-92.384 92.384-92.384s92.384 41.376 92.384 92.384v46.208h-184.8v-46.208z" />
<glyph unicode="&#x70;" d="M937.44 673.728l-130.368 130.368c-8.992 8.992-20.8 13.504-32.608 13.504s-23.584-4.512-32.608-13.504l-345.376-332.992v-207.872h207.904l333.024 345.344c18.016 17.984 18.016 47.136 0.032 65.152zM565.12 355.616h-76.256v76.224l284.992 274.752 66.048-66.048-274.784-284.928zM766.144 170.816c0 0-620.96 1.856-646.496 1.856h-0.384c-25.504 0-46.208-20.672-46.208-46.208v-1.856c0-25.504 20.672-46.208 46.208-46.208h646.88c25.504 0 46.208 20.672 46.208 46.208s-20.704 46.208-46.208 46.208z" />
<glyph unicode="&#x71;" d="M181.152 379.648c-0.064-1.696-0.256-3.36-0.256-5.088 0-0.576 0.256-4.928 0.256-4.928 2.624-76.032 64.96-136.896 141.664-136.896 78.368 0 141.92 63.488 141.92 141.824 0 71.456-52.96 130.432-121.792 140.224 17.12 56.64 69.664 97.888 131.968 97.888v50.592c-159.008 0-288.32-125.984-293.76-283.616zM549.344 379.648c-0.064-1.696 0-10.016 0-10.016 2.624-76.032 64.96-136.896 141.664-136.896 78.4 0 141.92 63.488 141.92 141.824 0 71.456-52.96 130.432-121.792 140.224 17.12 56.64 69.664 97.888 131.968 97.888v50.592c-159.104 0-288.384-125.984-293.76-283.616z" />
<glyph unicode="&#x72;" d="M842.56 484.352l-216.512 216.32c-20.032 20.032-52.512 20.032-72.512 0-20.032-20.032-20.032-52.48 0-72.48l129.12-128.992h-465.056c-28.288 0-51.2-22.912-51.2-51.168s22.912-51.168 51.2-51.168h465.024l-129.12-128.992c-20.032-20.032-20.032-52.48 0-72.48 20.032-20.032 52.512-20.032 72.512 0l216.512 216.32c10.080 9.984 15.072 23.136 15.072 36.288s-4.992 26.304-15.040 36.352z" />
<glyph unicode="&#x73;" d="M413.536 546.464l196.032-0.096c0.32 0 0.608 0.096 0.928 0.096h79.008l-163.424 163.488c-18.784 18.784-18.784 49.248 0 68.064l0.672 0.704c18.784 18.784 49.216 18.784 68 0l242.112-242.24c1.696-1.312 3.424-2.528 4.992-4.064l0.256-0.256c0.064-0.064 0.128-0.128 0.192-0.192l0.256-0.256c1.664-1.664 3.008-3.52 4.352-5.344 0.416-0.576 0.96-1.056 1.344-1.632 5.6-8.224 8.416-17.728 8.352-27.264 0-0.064 0.032-0.16 0.032-0.224s-0.032-0.16-0.032-0.224c0.032-9.536-2.752-19.072-8.352-27.264-0.384-0.576-0.896-1.056-1.312-1.6-1.376-1.856-2.72-3.712-4.384-5.376l-0.256-0.256c-0.064-0.064-0.128-0.128-0.16-0.16l-0.256-0.256c-1.568-1.568-3.296-2.784-4.992-4.064l-242.112-242.24c-18.784-18.784-49.248-18.784-68 0l-0.672 0.672c-18.784 18.784-18.784 49.248 0 68.064l163.392 163.488h-79.008c-0.32 0-0.608 0.096-0.928 0.096v-0.096h-196.032c-81.44 0-147.712-66.304-147.712-147.808v-147.648c0-27.2-22.048-49.28-49.248-49.28s-49.248 22.048-49.248 49.28v147.648c0.032 135.968 110.24 246.24 246.208 246.24z" />
<glyph unicode="&#x75;" d="M448.448 292.224l-62.016-62.048c-25.44-25.408-66.784-25.408-92.224 0-25.44 25.44-25.44 66.816 0 92.256l142.208 142.144c11.296 11.296 25.76 17.28 40.544 18.56 12 1.024 27.168-1.664 35.104-6.88s14.56-9.536 14.56-9.536c16.128-13.056 36.16-13.76 49.952 0.064l25.888 25.92c13.792 13.792 13.76 36.16-0.064 49.952l-21.184 16.416c-10.24 7.2-21.056 13.248-32.352 17.952-49.888 20.8-107.52 16.96-154.592-11.2-11.872-7.104-23.136-15.552-33.312-25.76l-142.208-142.176c-67.040-67.040-67.040-176.128 0-243.168s176.096-67.040 243.136 0l119.168 119.168c-44.544-8.576-91.328-2.368-132.608 18.336zM805.28 741.28c-67.040 67.040-176.128 67.040-243.168 0l-119.168-119.168c44.544 8.576 91.296 2.368 132.608-18.336l62.016 62.048c25.44 25.44 66.816 25.44 92.256 0 25.408-25.44 25.408-66.816-0.032-92.224l-142.144-142.144c-11.296-11.264-25.76-17.248-40.512-18.528-12.032-1.024-24.16 1.28-35.136 6.88-5.952 3.040-11.616 6.72-16.544 11.68l0.192-0.128c-13.696 13.696-35.904 13.728-49.632 0l-25.728-25.728c-13.696-13.696-13.696-35.904 0-49.632l-0.256 0.032c7.168-7.168 14.88-13.376 22.912-19.008 10.24-7.232 21.056-13.28 32.352-17.952 49.856-20.768 107.52-16.992 154.592 11.232 11.84 7.104 23.104 15.552 33.312 25.76l23.008 22.976 119.168 119.168c66.944 66.976 66.976 176.032-0.096 243.072z" />
<glyph unicode="&#x76;" d="M604.48 356.672h-37.6v150.432c0 11.872-9.632 21.504-21.504 21.504h-102.112c-11.872 0-21.472-9.632-21.472-21.504v-43.008c0-11.872 9.6-21.504 21.472-21.504h37.6v-85.952h-37.6c-11.872 0-21.472-9.632-21.472-21.504v-43.008c0-11.872 9.6-21.504 21.472-21.504h161.216c11.872 0 21.504 9.632 21.504 21.504v43.008c0 11.904-9.632 21.536-21.504 21.536zM884.416 792.992c-1.248 6.080-3.68 11.744-7.008 16.672-3.328 4.992-7.616 9.248-12.608 12.608-7.456 5.056-16.416 8-26.112 8h-653.376c-25.792 0-46.688-20.896-46.688-46.688v-671.232c0-25.792 20.896-46.656 46.688-46.656h653.376c25.792 0 46.656 20.896 46.656 46.656v671.232c0 3.232-0.288 6.368-0.928 9.408zM792.064 507.104v-324.704c0-12.896-10.464-23.328-23.328-23.328h-513.408c-12.896 0-23.328 10.432-23.328 23.328v420c0 12.896 10.432 23.328 23.328 23.328h513.408c12.864 0 23.328-10.432 23.328-23.328v-95.296z" />
<glyph unicode="&#x78;" d="M697.12 337.536v0l-110.464 110.464 159.616 159.616c13.568 13.568 13.568 35.584 0 49.152l-25.504 25.504c-13.568 13.568-35.584 13.568-49.152 0l-159.616-159.616-159.616 159.616c-13.568 13.568-35.584 13.568-49.152 0l-25.504-25.472c-13.568-13.568-13.568-35.584 0-49.152l159.616-159.616-159.616-159.616c-13.568-13.568-13.568-35.584 0-49.152l25.504-25.504c13.568-13.568 35.584-13.568 49.152 0l24.576 24.576c0 0 0 0 0 0l135.040 135.040 159.616-159.616c13.568-13.568 35.584-13.568 49.152 0l25.504 25.504c13.568 13.568 13.568 35.584 0 49.152l-49.152 49.12z" />
<glyph unicode="&#x79;" d="M852.128 597.408c-7.264 62.816-44.96 106.016-101.664 110.368 0 0-169.856 4.096-237.6 4.096-0.256 0-0.576 0-0.832 0-0.288 0-0.608 0-0.864 0-67.744 0-237.6-4.096-237.6-4.096-56.736-4.352-94.4-47.584-101.664-110.368 0 0-7.552-81.12-7.552-147.36 0-66.272 7.552-147.36 7.552-147.36 5.92-63.104 41.184-106.080 101.664-110.368 0 0 138.368-8.192 237.6-8.192 0.256 0 0.576 0 0.864 0 0.256 0 0.576 0 0.832 0 99.232 0 237.6 8.192 237.6 8.192 60.48 4.32 95.744 47.264 101.664 110.368 0 0 7.552 81.12 7.552 147.36s-7.552 147.36-7.552 147.36zM604.256 436.384l-162.432-92.48v210.752l11.264-6.432 173.824-98.944-22.656-12.896z" />
<glyph unicode="&#x7a;" d="M583.68 180.736v-0.928c0-25.248 20.48-45.728 45.728-45.728h92.864v-92.864c0-25.248 20.48-45.728 45.728-45.728h0.928c25.248 0 45.728 20.48 45.728 45.728v92.864h92.864c25.248 0 45.728 20.48 45.728 45.728v0.928c0 25.248-20.48 45.728-45.728 45.728h-92.864v92.864c0 25.248-20.48 45.728-45.728 45.728h-0.928c-25.248 0-45.728-20.48-45.728-45.728v-92.864h-92.864c-25.248 0-45.728-20.448-45.728-45.728zM453.536 231.584h-253.984v542.752c0 26.080-21.152 47.2-47.2 47.2s-47.232-21.152-47.232-47.2v-637.152h348.416c26.080 0 47.2 21.152 47.2 47.2 0 26.080-21.12 47.2-47.2 47.2zM869.6 737.152c-18.432 18.432-48.32 18.432-66.752 0l-201.536-201.504-124.928 124.928-178.944-178.976c-18.432-18.432-18.432-48.32 0-66.752 9.216-9.216 21.28-13.824 33.376-13.824 12.064 0 24.16 4.608 33.376 13.824l112.192 112.192 124.928-124.928 268.288 268.256c18.432 18.464 18.432 48.352 0 66.784z" />
<glyph unicode="&#xe600;" d="M865.568 317.632h-80.896v80.896c0 22.016-17.856 39.84-39.84 39.84h-0.832c-22.016 0-39.84-17.856-39.84-39.84v-80.896h-80.896c-22.016 0-39.84-17.856-39.84-39.84v-0.8c0-22.016 17.856-39.84 39.84-39.84h80.896v-80.896c0-22.016 17.856-39.84 39.84-39.84h0.8c22.016 0 39.84 17.856 39.84 39.84v80.896h80.896c22.016 0 39.84 17.856 39.84 39.84v0.8c0.032 22.016-17.792 39.84-39.808 39.84zM108.8 840.32v-51.2c0-28.288 22.912-51.2 51.2-51.2v-409.6c-28.288 0-51.2-22.912-51.2-51.2v-51.2h256v-153.6c0-28.288 22.912-51.2 51.2-51.2s51.2 22.912 51.2 51.2v153.6h15.968v0.544h22.592c28 0 50.912 22.912 50.912 50.912s-22.912 50.912-50.912 50.912h-243.36v409.632h307.2v-240.832l0.16-72.864c0-28 22.912-50.912 50.912-50.912h0.384c28 0 50.912 22.912 50.912 50.912v313.696c28.288 0 51.2 22.912 51.2 51.2v51.2h-614.368z" />
<glyph unicode="&#xe601;" d="M764.672 406.464c-20.032 20.032-52.48 20.032-72.48 0l-128.992-129.12v465.056c0 28.288-22.912 51.2-51.168 51.2s-51.168-22.912-51.168-51.2v-465.024l-128.992 129.12c-20.032 20.032-52.48 20.032-72.48 0-20.032-20.032-20.032-52.512 0-72.512l216.32-216.512c9.984-10.080 23.136-15.072 36.288-15.072 13.152-0.032 26.304 4.96 36.352 15.008l216.32 216.512c20 20.032 20 52.512 0 72.544z" />
<glyph unicode="&#xe609;" d="M843.040 748.384h-109.728v46.688c0 25.248-20.48 45.728-45.728 45.728h-0.928c-25.248 0-45.728-20.48-45.728-45.728v-46.656h-257.824v46.656c0 25.248-20.48 45.728-45.728 45.728h-0.928c-25.248 0-45.728-20.48-45.728-45.728v-46.656h-109.76c-25.504 0-46.208-20.672-46.208-46.208v-574.112c0-25.504 20.672-46.208 46.208-46.208h662.048c25.504 0 46.208 20.672 46.208 46.208v574.112c0 25.504-20.672 46.176-46.176 46.176zM796.832 197.376c0-12.768-10.336-23.104-23.104-23.104h-523.456c-12.768 0-23.104 10.336-23.104 23.104v435.52c0 12.768 10.336 23.104 23.104 23.104h523.456c12.768 0 23.104-10.336 23.104-23.104v-435.52zM627.488 368.16h-69.28v161.696c0 12.768-10.336 23.104-23.104 23.104h-138.592c-12.768 0-23.104-10.336-23.104-23.104v-46.208c0-12.768 10.336-23.104 23.104-23.104h69.28v-92.384h-69.28c-12.768 0-23.104-10.336-23.104-23.104v-46.208c0-12.768 10.336-23.104 23.104-23.104h230.976c12.768 0 23.104 10.336 23.104 23.104v46.208c0 12.768-10.336 23.104-23.104 23.104z" />
</font>
</defs>
</svg>
