<?xml version="1.0" standalone="no"?>
<!DOCTYPE svg PUBLIC "-//W3C//DTD SVG 1.1//EN" "http://www.w3.org/Graphics/SVG/1.1/DTD/svg11.dtd" >
<svg xmlns="http://www.w3.org/2000/svg">
<metadata>
Created by FontPrep 20130207 at Wed Oct  8 23:05:03 2014
 By Aaron Hitchcock
Copyright (c) 2009 by TypeTogether. All rights reserved.
</metadata>
<defs>
<font id="c0e1fa2165fee45abc3a74ff7feb0488" horiz-adv-x='1024' >
  <font-face 
    font-family="Adelle-Bold"
    font-weight="700"
    font-stretch="normal"
    units-per-em="2048"
    panose-1="2 0 8 3 0 0 0 2 0 4"
    ascent="1546"
    descent="-502"
    x-height="1067"
    cap-height="1483"
    bbox="-215 -524 2122 1964"
    underline-thickness="102"
    underline-position="-102"
    unicode-range="U+0020-FB04"
  />
<missing-glyph horiz-adv-x="1024" 
 />
    <glyph glyph-name=".notdef" horiz-adv-x="1024" 
 />
    <glyph glyph-name=".null" horiz-adv-x="0" 
 />
    <glyph glyph-name="nonmarkingreturn" horiz-adv-x="682" 
 />
    <glyph glyph-name="space" unicode=" " horiz-adv-x="413" 
 />
    <glyph glyph-name="exclam" unicode="!" horiz-adv-x="569" 
d="M119 1483h330v-363l-35 -719h-258l-37 719v363zM109 135q0 160 176 160t176 -160t-176 -160t-176 160z" />
    <glyph glyph-name="quotedbl" unicode="&#x22;" horiz-adv-x="825" 
d="M467 915v531h276v-531h-276zM82 915v531h276v-531h-276z" />
    <glyph glyph-name="numbersign" unicode="#" horiz-adv-x="1243" 
d="M510 455h178l35 231h-176zM61 248l45 207h193l35 231h-205l43 209h193l32 217h213l-32 -217h176l32 217h213l-32 -217h207l-41 -209h-197l-35 -231h207l-41 -207h-199l-37 -248h-210l34 248h-176l-37 -248h-213l37 248h-205z" />
    <glyph glyph-name="dollar" unicode="$" horiz-adv-x="1083" 
d="M70 403h223l26 -143q4 -23 22.5 -43t168.5 -20q207 0 207 145q0 72 -65.5 114t-159 66.5t-186.5 58t-158.5 113.5t-65.5 224t93 240.5t251 129.5v160h256v-150q152 -10 293 -59v-350l-225 22l-25 136q-6 35 -41 45q-41 10 -117 10q-203 0 -202 -137q0 -68 65.5 -109
t158.5 -67.5t186 -61.5t158.5 -118t65.5 -225t-85 -238.5t-234 -129.5v-180h-254v166q-227 11 -356 74v327z" />
    <glyph glyph-name="percent" unicode="%" horiz-adv-x="1818" 
d="M1286 350q0 -106 26.5 -156.5t90 -50.5t90.5 50.5t27 155.5t-26 152.5t-89 47.5q-119 0 -119 -199zM1051 345q0 171 90 272.5t270 101.5q342 -1 342 -357q0 -180 -91 -283.5t-270 -103.5t-260 99.5t-81 270.5zM377 -35l772 1307h283l-770 -1307h-285zM301 897
q0 -203 118 -203t118 207q0 104 -27 151.5t-88 47.5q-121 0 -121 -203zM66 896q0 171 90 272.5t270 101.5q342 0 342 -357q0 -180 -91 -283.5t-270 -103.5t-260 99.5t-81 270.5z" />
    <glyph glyph-name="ampersand" unicode="&#x26;" horiz-adv-x="1470" 
d="M369 412q0 -82 47 -136.5t145 -54.5q135 0 223 96l-270 308q-145 -61 -145 -213zM72 397q0 295 295 418q-76 119 -76 238q0 156 109.5 247t285.5 91q104 0 206.5 -28t158.5 -63v-321l-220 8l-24 137q-4 25 -29 33q-28 8 -80 8t-83 -30.5t-31 -81.5q0 -86 112 -217
l230 -271q29 88 47 228h352v-158l-94 -19q-18 -4 -25.5 -9t-23.5 -81t-62 -176l129 -147q18 -23 39 -25l121 -18v-160h-346l-113 131q-166 -156 -395 -156t-356 111.5t-127 310.5z" />
    <glyph glyph-name="quotesingle" unicode="'" horiz-adv-x="442" 
d="M82 915v531h276v-531h-276z" />
    <glyph glyph-name="parenleft" unicode="(" horiz-adv-x="729" 
d="M86 573q0 485 352 951l232 -138q-131 -195 -192.5 -388t-61.5 -428t59.5 -410.5t179.5 -380.5l-235 -133q-145 190 -239.5 429.5t-94.5 497.5z" />
    <glyph glyph-name="parenright" unicode=")" horiz-adv-x="729" 
d="M315 586q0 234 -59 416t-186 387l233 135q147 -188 243.5 -433t96.5 -501q0 -483 -346 -944l-231 135q125 190 187 380.5t62 424.5z" />
    <glyph glyph-name="asterisk" unicode="*" horiz-adv-x="976" 
d="M379 1546h215v-143l-72 -199l164 133l137 45l68 -204l-137 -45l-211 8l178 -115l88 -115l-174 -129l-86 117l-62 201l-59 -201l-86 -117l-174 129l88 115l178 115l-213 -8l-137 45l70 204l137 -45l162 -133l-74 199v143zM543 1141l-21 63h-69l-19 -63l53 -41z" />
    <glyph glyph-name="plus" unicode="+" horiz-adv-x="1167" 
d="M186 543v237h273v287h246v-287h274v-237h-274v-295h-246v295h-273z" />
    <glyph glyph-name="comma" unicode="," horiz-adv-x="516" 
d="M434 131q0 -55 -43 -141l-110 -234l-140 41l56 219q6 18 -11 25l-84 29l45 221q141 -2 214 -33t73 -127z" />
    <glyph glyph-name="hyphen" unicode="-" horiz-adv-x="636" 
d="M41 465v260h555v-260h-555z" />
    <glyph glyph-name="period" unicode="." horiz-adv-x="555" 
d="M102 135q0 160 176 160t176 -160t-176 -160t-176 160z" />
    <glyph glyph-name="slash" unicode="/" horiz-adv-x="929" 
d="M23 -188l575 1734h291l-574 -1734h-292z" />
    <glyph glyph-name="zero" unicode="0" horiz-adv-x="1232" 
d="M408 591q0 -212 47 -304t161 -92t162.5 93t48.5 308t-45.5 303t-159.5 88t-164 -92t-50 -304zM78 594q0 616 553 616q287 0 405.5 -155.5t118.5 -452.5t-128 -462t-420 -165t-410.5 160t-118.5 459z" />
    <glyph glyph-name="one" unicode="1" horiz-adv-x="831" 
d="M72 0v162l176 14q20 2 26.5 9.5t6.5 31.5v715q0 35 -27 43l-178 37l22 168h492v-963q0 -25 5 -32t28 -9l168 -14v-162h-719z" />
    <glyph glyph-name="two" unicode="2" horiz-adv-x="1073" 
d="M516 1210q430 0 430 -327q0 -90 -45 -178.5t-92 -139.5t-145 -145l-232 -221h301q29 0 33 24l29 162h217v-385h-946v190l274 269q129 125 212 211.5t83 187.5q0 131 -146 131q-88 0 -123.5 -38t-35.5 -144l-279 24q2 379 465 379z" />
    <glyph glyph-name="three" unicode="3" horiz-adv-x="1062" 
d="M686 248q0 176 -205 176q-66 0 -151 -14v204l100 13q227 29 227 221q0 141 -149 141q-88 0 -126 -39t-38 -143l-281 24q0 379 459 379q229 0 332.5 -85t103.5 -255q0 -123 -66.5 -205.5t-168.5 -113.5v-8q270 -41 270 -316q0 -197 -134 -297t-361 -100q-154 0 -285 50
t-211 138l164 181q139 -135 307 -136q213 0 213 185z" />
    <glyph glyph-name="four" unicode="4" horiz-adv-x="1140" 
d="M53 127v211l420 879l268 -123l-387 -727h297v329l283 43v-372h170v-240h-170v-264h-283v264h-598z" />
    <glyph glyph-name="five" unicode="5" horiz-adv-x="1110" 
d="M496 66q96 0 158.5 56t62.5 165t-57.5 151.5t-133.5 42.5q-113 0 -196 -88l-203 84l45 703h535q20 0 26 24l27 113l182 12v-407h-543l-28 -281q106 70 275 70t274.5 -106.5t105.5 -308.5t-133 -334t-371 -132q-340 0 -516 188l164 187q139 -139 326 -139z" />
    <glyph glyph-name="six" unicode="6" horiz-adv-x="1157" 
d="M604 201q172 0 172 217q0 104 -37 147t-133 43t-203 -65q7 -249 73.5 -295.5t127.5 -46.5zM171 1053.5q83 156.5 196.5 222t271.5 65.5q428 0 428 -337l-289 -35q0 92 -31.5 127t-113.5 35q-217 0 -230 -383q135 80 303 80t276 -100.5t108 -312.5t-134.5 -326
t-357.5 -114q-288 0 -399 186.5t-111 461.5q0 274 83 430.5z" />
    <glyph glyph-name="seven" unicode="7" horiz-adv-x="1089" 
d="M80 1180h989v-232q-186 -199 -311 -491.5t-133 -593.5h-326q53 625 446 1059h-391q-14 0 -18 -5.5t-8 -21.5l-33 -172l-215 -16v473z" />
    <glyph glyph-name="eight" unicode="8" horiz-adv-x="1105" 
d="M405 1017q0 -87 62.5 -133.5t150.5 -88.5q106 111 107 204q0 139 -164 140q-76 0 -116 -37t-40 -85zM324 346q0 -166 213 -166q94 0 142 43t48 108t-32 97l-31 34q-12 13 -47 33l-47 26q-69 37 -111 54q-135 -125 -135 -229zM68 330q0 111 51 192.5t143 157.5
q-152 104 -152 284t125 278.5t325 98.5t312.5 -87.5t112.5 -251.5t-162 -306q215 -122 215 -320t-139 -299.5t-365 -101.5t-346 90.5t-120 264.5z" />
    <glyph glyph-name="nine" unicode="9" horiz-adv-x="1167" 
d="M395 770q0 -113 37 -167t134 -54t202 74q-14 271 -78.5 317.5t-124.5 46.5q-170 0 -170 -217zM82 762q0 211 129 329.5t356 118.5q518 0 518 -659q0 -719 -546 -719q-123 0 -241 40t-189 110l131 188q131 -111 275 -111t195.5 90.5t57.5 251.5q-121 -77 -292 -77
t-282.5 113.5t-111.5 324.5z" />
    <glyph glyph-name="colon" unicode=":" horiz-adv-x="555" 
d="M102 913.5q0 159.5 176 159.5t176 -159.5t-176 -159.5t-176 159.5zM102 135q0 160 176 160t176 -160t-176 -160t-176 160z" />
    <glyph glyph-name="semicolon" unicode=";" horiz-adv-x="522" 
d="M111 913.5q0 159.5 175 159.5t175 -159.5t-175 -159.5t-175 159.5zM434 131q0 -55 -43 -141l-110 -234l-140 41l56 219q6 18 -11 25l-84 29l45 221q141 -2 214 -33t73 -127z" />
    <glyph glyph-name="less" unicode="&#x3c;" horiz-adv-x="1167" 
d="M141 453v286l795 291l70 -231l-598 -201l602 -201l-70 -225z" />
    <glyph glyph-name="equal" unicode="=" horiz-adv-x="1167" 
d="M188 647v240h791v-240h-791zM188 266v240h791v-240h-791z" />
    <glyph glyph-name="greater" unicode="&#x3e;" horiz-adv-x="1167" 
d="M141 397l602 201l-596 201l68 231l795 -291v-286l-799 -281z" />
    <glyph glyph-name="question" unicode="?" horiz-adv-x="1081" 
d="M270 135q0 160 175 160t176 -160t-175 -160t-176 160zM549 1483q496 0 495 -422q0 -199 -113.5 -322t-330.5 -149v-189h-309v373q240 21 324.5 86.5t84.5 199.5q0 77 -43 124t-121 47t-139 -25q-23 -8 -26 -41l-19 -131l-250 -18v377q236 90 447 90z" />
    <glyph glyph-name="at" unicode="@" horiz-adv-x="1722" 
d="M705 306q0 -152 81.5 -152t176.5 108l59 377q-35 25 -90 25q-92 0 -159.5 -103t-67.5 -255zM117 352q0 360 220 585.5t558 225.5t531.5 -171t193.5 -480q0 -272 -108.5 -404.5t-293.5 -132.5t-237 142q-145 -141 -252 -141t-169 74.5t-62 213.5q0 229 121.5 389
t328.5 160q145 0 285 -65l-47 -302q-27 -147 -27 -217q0 -80 76 -80q51 0 89 36t64.5 118.5t26.5 192.5q0 231 -124.5 357t-396.5 126t-421 -184.5t-149 -451.5t144 -408.5t409 -141.5q168 0 342 64l49 -168q-164 -72 -416 -72q-340 0 -537.5 187.5t-197.5 547.5z" />
    <glyph glyph-name="A" unicode="A" 
d="M551 612h383l-182 557h-13zM6 0v160l90 22q41 10 51 39l449 1262h362l447 -1266q8 -25 49 -35l94 -22v-160h-647v160l168 18l-74 213h-508l-71 -213l162 -18v-160h-572z" />
    <glyph glyph-name="B" unicode="B" horiz-adv-x="1376" 
d="M555 860h82q129 0 203.5 45t74.5 162t-62 155t-185 38h-113v-400zM555 221h141q141 0 213 47t72 172q0 215 -254 215h-172v-434zM78 0v160l129 14q20 2 26.5 10.5t6.5 30.5v1049q0 25 -6.5 32t-26.5 9l-129 14v164h690q449 0 449 -363q0 -135 -72 -222t-178 -122v-6
q342 -39 342 -362q0 -408 -559 -408h-672z" />
    <glyph glyph-name="C" unicode="C" horiz-adv-x="1386" 
d="M63 748q0 342 197 551.5t565 209.5q287 0 465 -116v-402l-225 19l-33 200q-6 29 -33 37q-78 25 -182 25q-199 0 -312.5 -134t-113.5 -395t108.5 -397.5t303.5 -136.5q119 0 205 27q18 4 25 12t11 31l31 190h219v-381q-184 -113 -512 -113q-719 1 -719 773z" />
    <glyph glyph-name="D" unicode="D" horiz-adv-x="1540" 
d="M557 221h117q481 0 481 524q0 279 -110.5 398t-358.5 119h-129v-1041zM78 0v164l129 14q20 2 26.5 9.5t6.5 31.5v1047q0 23 -6.5 31t-26.5 10l-129 14v162h663q375 0 555.5 -187.5t180.5 -536.5t-192.5 -554t-577.5 -205h-629z" />
    <glyph glyph-name="E" unicode="E" horiz-adv-x="1284" 
d="M78 0v160l129 14q20 2 26.5 10.5t6.5 30.5v1051q0 25 -6.5 32t-26.5 9l-129 14v162h1089v-414l-225 10l-29 156q-6 27 -34 27h-322v-404h479v-227h-479v-412h367q29 0 32 23l33 180h223v-422h-1134z" />
    <glyph glyph-name="F" unicode="F" horiz-adv-x="1234" 
d="M78 0v160l129 14q20 2 26.5 10.5t6.5 30.5v1051q0 25 -6.5 32t-26.5 9l-129 14v162h1081v-414l-225 10l-29 156q-6 27 -35 27h-313v-402h471v-227h-471v-414q0 -25 5 -32t28 -9l301 -16v-162h-813z" />
    <glyph glyph-name="G" unicode="G" horiz-adv-x="1478" 
d="M829 1509q119 0 247 -30.5t216 -87.5v-387l-227 16l-31 184q-8 35 -33 41q-94 27 -188 27q-197 0 -309.5 -140t-112.5 -390t109.5 -390.5t326.5 -140.5q88 0 170 14q33 6 33 37v268h-227l28 185h629v-164l-84 -8q-33 -2 -33 -29v-440q-207 -98 -530 -99q-410 0 -581 214
t-171 556t197 553t571 211z" />
    <glyph glyph-name="H" unicode="H" horiz-adv-x="1675" 
d="M78 0v160l129 14q20 2 26.5 10.5t6.5 30.5v1049q0 25 -6.5 32t-26.5 9l-129 14v164h649v-164l-137 -16q-23 -2 -28 -9.5t-5 -29.5v-387h561v387q0 25 -6 32t-27 9l-129 14v164h648v-164l-138 -16q-23 -2 -27.5 -9.5t-4.5 -29.5v-1047q0 -25 5 -32t27 -9l138 -16v-160
h-648v160l129 14q20 2 26.5 10.5t6.5 30.5v432h-561v-430q0 -25 5 -32t28 -9l137 -16v-160h-649z" />
    <glyph glyph-name="I" unicode="I" horiz-adv-x="827" 
d="M74 0v160l149 14q20 2 26.5 9t6.5 32v1049q0 25 -6 32t-27 9l-149 14v164h688v-164l-158 -16q-23 -2 -28 -9.5t-5 -29.5v-1047q0 -25 5.5 -32t27.5 -9l158 -16v-160h-688z" />
    <glyph glyph-name="J" unicode="J" horiz-adv-x="1056" 
d="M526 336v930q0 23 -6 30t-26 9l-185 14v164h705v-164l-137 -16q-23 -2 -28 -8.5t-5 -28.5v-932q0 -182 -92.5 -270.5t-294.5 -88.5q-117 0 -227.5 24.5t-157.5 55.5v365l229 -17l21 -147q4 -39 109 -39q50 0 72.5 26.5t22.5 92.5z" />
    <glyph glyph-name="K" unicode="K" horiz-adv-x="1540" 
d="M78 0v162l129 14q20 2 26.5 9.5t6.5 31.5v1049q0 23 -6.5 31t-26.5 10l-129 14v162h649v-162l-137 -16q-23 -2 -28 -9.5t-5 -29.5v-512l483 549l-127 16v164h537v-164l-86 -14q-41 -6 -64 -35l-376 -426l411 -629q18 -29 60 -33l127 -20v-162h-453l-383 592l-129 -154
v-219q0 -25 5 -32t28 -9l158 -16v-162h-670z" />
    <glyph glyph-name="L" unicode="L" horiz-adv-x="1277" 
d="M78 0v162l129 14q20 2 26.5 10.5t6.5 30.5v1049q0 25 -6.5 32t-26.5 9l-129 14v162h682v-162l-170 -16q-23 -2 -28 -9.5t-5 -29.5v-1047h365q29 0 32 23l33 204h225v-446h-1134z" />
    <glyph glyph-name="M" unicode="M" horiz-adv-x="1970" 
d="M78 0v160l129 14q20 2 26.5 10.5t6.5 30.5v1051q0 23 -6.5 31t-26.5 10l-129 14v162h549l356 -928h8l375 928h532v-160l-137 -16q-23 -2 -27.5 -9.5t-4.5 -29.5v-1053q0 -35 32 -39l137 -16v-160h-673v160l168 14q20 2 26 10.5t6 30.5v778h-8l-293 -698h-333l-289 700
h-10v-778q0 -25 5 -32t27 -9l176 -16v-160h-622z" />
    <glyph glyph-name="N" unicode="N" horiz-adv-x="1693" 
d="M78 0v160l129 14q20 2 26.5 10.5t6.5 30.5v1053q0 25 -6.5 32t-26.5 9l-129 14v160h508l643 -1071v852q0 25 -6 32t-27 9l-129 14v164h569v-164l-137 -16q-23 -2 -28 -9.5t-5 -29.5v-1264h-336l-653 1069v-852q0 -25 5 -32t28 -9l137 -16v-160h-569z" />
    <glyph glyph-name="O" unicode="O" 
d="M391 743q0 -516 387 -516t387 512t-372 512q-184 0 -293 -127t-109 -381zM63 733q0 346 190.5 561t540.5 215t523.5 -207.5t173.5 -557.5t-183.5 -559.5t-539.5 -209.5t-530.5 206t-174.5 552z" />
    <glyph glyph-name="P" unicode="P" horiz-adv-x="1323" 
d="M555 766h102q205 0 245 90t40 172q0 135 -69.5 183.5t-196.5 48.5h-121v-494zM78 0v162l129 14q20 2 26.5 10.5t6.5 30.5v1047q0 25 -6.5 32t-26.5 9l-129 14v164h694q264 0 379 -120t115 -316q0 -500 -561 -500h-150v-328q0 -25 5 -32t28 -9l293 -16v-162h-803z" />
    <glyph glyph-name="Q" unicode="Q" horiz-adv-x="1552" 
d="M383 743q0 -516 391 -516q385 0 385 512t-373 512q-186 0 -294.5 -127t-108.5 -381zM55 750q0 330 190.5 544.5t542.5 214.5q236 0 465.5 -147t229.5 -598q0 -326 -143.5 -528.5t-421.5 -245.5q-4 -25 -4 -79q-1 -118 120 -118q72 0 148 31l59 -180q-143 -76 -291 -76
q-324 0 -323 305q0 55 6 111q-291 35 -434.5 235.5t-143.5 530.5z" />
    <glyph glyph-name="R" unicode="R" horiz-adv-x="1406" 
d="M555 819h94q131 0 205 49.5t74 175.5t-64.5 171t-206.5 45h-102v-441zM78 0v164l129 14q20 2 26.5 9.5t6.5 31.5v1047q0 23 -6.5 31t-26.5 10l-129 14v162h698q256 0 366.5 -115t110.5 -295q0 -274 -270 -393q70 -33 119 -164l112 -293q18 -33 62 -39l127 -20v-164h-447
l-184 514q-18 53 -44 72.5t-77 19.5h-96v-385q0 -25 5 -32t28 -9l143 -16v-164h-653z" />
    <glyph glyph-name="S" unicode="S" horiz-adv-x="1214" 
d="M92 459h230l40 -195q4 -31 35 -37q90 -23 172 -22q258 0 258 190q0 95 -65.5 135t-227.5 87q-162 46 -235 90q-178 105 -178 337t151.5 348.5t387.5 116.5t430 -82v-399l-232 21l-24 165q-4 31 -25 39q-71 23 -167 23t-154 -47t-58 -121t51.5 -122t243.5 -103
q94 -29 149.5 -52.5t159 -96.5t103.5 -301q0 -229 -161 -343.5t-415 -114.5q-129 0 -266 26.5t-203 57.5v400z" />
    <glyph glyph-name="T" unicode="T" horiz-adv-x="1421" 
d="M51 1059v424h1319v-424h-223l-33 178q-4 23 -33 23h-211v-1043q0 -23 5.5 -30t27.5 -9l225 -16v-162h-819v162l211 14q20 2 26.5 9.5t6.5 31.5v1043h-211q-29 0 -33 -23l-33 -178h-225z" />
    <glyph glyph-name="U" unicode="U" horiz-adv-x="1607" 
d="M1386 530q0 -555 -594 -555q-292 0 -431.5 137.5t-139.5 426.5v727q0 25 -6 32t-27 9l-127 14v162h648v-162l-138 -16q-23 -2 -27.5 -9.5t-4.5 -29.5v-670q0 -188 58 -275.5t220 -87.5t228.5 80t66.5 275v678q0 25 -6 32t-27 9l-129 14v162h606v-162l-137 -16
q-23 -2 -28 -9.5t-5 -29.5v-736z" />
    <glyph glyph-name="V" unicode="V" horiz-adv-x="1505" 
d="M651 1483v-160l-166 -18l308 -1024h16l297 1024l-164 18l21 160h530v-160l-86 -23q-45 -10 -51 -38l-375 -1262h-418l-411 1266q-8 25 -50 34l-92 23l21 160h620z" />
    <glyph glyph-name="W" unicode="W" horiz-adv-x="2136" 
d="M659 1483v-160l-172 -20l209 -1002h17l235 907h312l233 -913h16l211 1008l-172 20l21 160h553v-160l-97 -23q-37 -6 -47 -36l-290 -1264h-414l-201 750h-12l-189 -750h-401l-309 1264q-6 27 -45 36l-105 23l21 160h626z" />
    <glyph glyph-name="X" unicode="X" horiz-adv-x="1583" 
d="M713 1483v-160l-160 -18l266 -373l279 373l-158 18l21 160h540v-160l-100 -23q-29 -8 -51 -38l-383 -496l419 -545q31 -33 52 -39l110 -22v-160h-671v160l161 18l-278 375l-277 -375l158 -18v-160h-586v160l119 22q35 8 53 39l389 504l-409 541q-16 27 -49 34l-107 23
l21 160h641z" />
    <glyph glyph-name="Y" unicode="Y" horiz-adv-x="1384" 
d="M641 1483v-160l-160 -18l248 -484h16l248 484l-157 18l20 160h522v-160l-86 -23q-39 -10 -51 -38l-371 -705v-340q0 -23 5.5 -30t27.5 -9l217 -16v-162h-803v162l205 14q20 2 26.5 9.5t6.5 31.5v336l-408 713q-14 23 -49 34l-92 23l21 160h614z" />
    <glyph glyph-name="Z" unicode="Z" horiz-adv-x="1376" 
d="M104 0v199l766 1063h-454q-29 0 -33 -23l-39 -192l-221 -7v443h1124v-207l-755 -1057h499q29 0 33 23l39 219h221v-461h-1180z" />
    <glyph glyph-name="bracketleft" unicode="[" horiz-adv-x="630" 
d="M98 -293v1776h459v-156l-127 -22q-33 -4 -33 -41v-1336q0 -39 33 -43l127 -22v-156h-459z" />
    <glyph glyph-name="backslash" unicode="\" horiz-adv-x="921" 
d="M41 1546h281l575 -1734h-283z" />
    <glyph glyph-name="bracketright" unicode="]" horiz-adv-x="630" 
d="M233 1223q0 76 -32 82l-133 22v156h464v-1776h-464v156l133 22q33 4 32 43v1295z" />
    <glyph glyph-name="asciicircum" unicode="^" horiz-adv-x="1247" 
d="M61 612l404 748h313l408 -748h-295l-273 492l-266 -492h-291z" />
    <glyph glyph-name="underscore" unicode="_" horiz-adv-x="1024" 
d="M0 -152h1024v-219h-1024v219z" />
    <glyph glyph-name="grave" unicode="`" horiz-adv-x="1024" 
d="M281 1448l168 160l313 -357l-117 -102z" />
    <glyph glyph-name="a" unicode="a" horiz-adv-x="1140" 
d="M383 309q0 -113 117 -112q86 0 186 73v170l-139 -10q-90 -6 -127 -33t-37 -88zM68 279q0 152 94 227.5t289 87.5l235 16v113q0 84 -24.5 123t-109.5 39t-119 -25.5t-34 -111.5l-288 24q0 315 440 315q240 0 338 -79.5t98 -290.5v-498q0 -25 5 -32t28 -9l98 -16v-162h-377
l-20 111l-10 2q-141 -137 -344 -138q-299 1 -299 304z" />
    <glyph glyph-name="b" unicode="b" horiz-adv-x="1247" 
d="M653 215q199 0 199 332q0 131 -46 215t-139 84t-202 -72v-479q88 -80 188 -80zM463 1546v-567l8 -2q135 111 311 111t285 -127t109 -414t-115 -429.5t-309 -142.5t-308 129l-10 -2l-14 -102h-293q31 197 31 299v999q0 35 -27 43l-113 39l23 166h422z" />
    <glyph glyph-name="c" unicode="c" horiz-adv-x="1044" 
d="M55 534q0 262 152.5 407.5t408.5 145.5q113 0 212.5 -25.5t152.5 -60.5v-321l-219 10l-25 135q-4 27 -24 33q-43 14 -105 14q-100 0 -163.5 -77.5t-63.5 -245.5q0 -342 264 -342q119 0 256 59l80 -190q-167 -100 -411 -100t-379.5 148t-135.5 410z" />
    <glyph glyph-name="d" unicode="d" horiz-adv-x="1251" 
d="M395 526q0 -309 187 -309q98 0 200 88v483q-90 62 -188 62t-148.5 -88.5t-50.5 -235.5zM72 520q0 289 122.5 428t311.5 139q156 0 289 -98v311q0 33 -27 41l-113 39l23 166h412v-1331q0 -23 5 -30t27 -9l99 -14v-162h-381l-21 115l-14 2q-145 -141 -336 -142
q-397 0 -397 545z" />
    <glyph glyph-name="e" unicode="e" horiz-adv-x="1075" 
d="M555 866q-154 0 -170 -217h326q-2 217 -156 217zM55 544q0 263 142.5 403t360.5 140t337 -119.5t119 -375.5q0 -55 -4 -137h-627q16 -242 242 -242q117 0 305 70l76 -203q-215 -104 -420 -105q-281 0 -406 153t-125 416z" />
    <glyph glyph-name="f" unicode="f" horiz-adv-x="894" 
d="M49 862v205h154v113q0 203 110.5 297t327.5 94q265 0 316 -102.5t51 -192.5l-287 -35v13q0 64 -21 90t-83 26t-83.5 -36t-21.5 -117v-130q0 -20 16 -20h324v-205h-340v-637q0 -25 7 -32t30 -9l250 -22v-162h-744v164l115 12q20 2 26.5 10.5t6.5 32.5v623q0 20 -17 20
h-137z" />
    <glyph glyph-name="g" unicode="g" horiz-adv-x="1165" 
d="M373 696q0 -170 190 -170q86 0 139.5 48t53.5 132t-49.5 131.5t-138.5 47.5t-142 -46.5t-53 -142.5zM291 -164q1 -106 265 -106t263 118q0 25 -17 47.5t-159 28.5l-299 21q-53 -66 -53 -109zM49 -209q0 63 25.5 107.5t87.5 101.5q-90 39 -90 135q0 61 53 117t133 131
q-80 39 -128 119t-48 188q0 182 120 289.5t349 107.5q111 0 188 -20h400v-174l-189 -14q76 -96 76 -207q0 -168 -120 -264.5t-316 -96.5q-96 0 -162 19l-68 -109l201 -12q299 -18 391 -51q172 -56 172 -243t-147.5 -283.5t-415.5 -96.5q-512 0 -512 256z" />
    <glyph glyph-name="h" unicode="h" horiz-adv-x="1277" 
d="M483 1546v-579l11 -2q150 123 318 123t237 -83t69 -249v-539q0 -25 5 -32t28 -9l102 -14v-162h-444v668q0 174 -108.5 174t-213.5 -76v-549q0 -25 5.5 -32t27.5 -9l98 -14v-162h-565v162l92 14q20 2 26.5 10.5t6.5 30.5v1081q0 35 -26 43l-113 39l22 166h422z" />
    <glyph glyph-name="i" unicode="i" horiz-adv-x="647" 
d="M121 1415q0 88 48 134t137 46t137.5 -46t48.5 -134t-49.5 -136t-137.5 -48t-136 48t-48 136zM41 0v162l104 14q20 2 26.5 10.5t6.5 30.5v602q0 35 -26 43l-111 39l22 166h424v-850q0 -25 5.5 -32t27.5 -9l105 -14v-162h-584z" />
    <glyph glyph-name="j" unicode="j" horiz-adv-x="622" 
d="M117 1414q0 87 49 134t138 47t137 -46t48 -134t-49 -136t-137 -48t-137 48t-49 135zM174 -57v876q0 35 -27 43l-116 39l24 166h428v-1176q0 -348 -356 -348q-113 0 -206 34t-136 71l88 170q86 -54 165 -54t107.5 38t28.5 141z" />
    <glyph glyph-name="k" unicode="k" horiz-adv-x="1269" 
d="M487 1546v-874l375 395h283v-162l-107 -20q-27 -4 -51 -31l-145 -154l262 -489q16 -31 61 -37l90 -14v-160h-397l-260 522l-111 -121v-184q0 -25 5.5 -32t27.5 -9l123 -14v-162h-600v162l102 14q20 2 26.5 10.5t6.5 30.5v1081q0 35 -26 43l-113 39l22 166h426z" />
    <glyph glyph-name="l" unicode="l" horiz-adv-x="647" 
d="M487 1546v-1329q0 -25 5.5 -32t27.5 -9l101 -14v-162h-578v162l102 14q20 2 26.5 10.5t6.5 30.5v1081q0 35 -26 43l-113 39l22 166h426z" />
    <glyph glyph-name="m" unicode="m" horiz-adv-x="1820" 
d="M782 1087q172 0 246 -122q156 123 324 123t237.5 -83t69.5 -264v-524q0 -25 5 -33t28 -10l102 -12v-162h-444v662q0 51 -5.5 83.5t-33 62.5t-93.5 30t-149 -56q6 -49 6 -100v-465q0 -27 5 -34t28 -9l82 -12v-162h-424v672q0 122 -36 144t-73 22q-92 0 -170 -66v-555
q0 -25 4.5 -31t28.5 -10l101 -14v-162h-568v162l92 14q20 2 26.5 10.5t6.5 30.5v602q0 35 -26 43l-111 39l22 166h361l16 -106l11 -3q159 129 331 129z" />
    <glyph glyph-name="n" unicode="n" horiz-adv-x="1277" 
d="M799 1087q174 0 246.5 -87t72.5 -261v-522q0 -25 5 -32t28 -9l102 -14v-162h-444v662q0 59 -5 91.5t-29.5 60.5t-76.5 28t-113 -23.5t-98 -52.5v-549q0 -25 5.5 -32t27.5 -9l98 -14v-162h-565v164l92 12q20 2 26.5 10.5t6.5 30.5v602q0 35 -26 43l-111 39l25 166h358
l16 -106l9 -5q176 131 350 131z" />
    <glyph glyph-name="o" unicode="o" horiz-adv-x="1189" 
d="M379 529q0 -338 217 -339q215 0 215 349q0 176 -51 251.5t-156 75.5q-225 1 -225 -337zM55 530q0 258 139.5 407.5t411.5 149.5t400.5 -144t128.5 -403t-139.5 -412t-410.5 -153t-400.5 148.5t-129.5 406.5z" />
    <glyph glyph-name="p" unicode="p" horiz-adv-x="1259" 
d="M670 215q195 0 194 332q0 297 -174 297q-104 0 -213 -74v-477q90 -78 193 -78zM792 1087q186 0 291 -125.5t105 -398.5q0 -168 -41 -280.5t-86 -172t-122 -97.5t-173 -38q-164 0 -293 105v-293q0 -25 5 -32t28 -9l213 -18v-162h-668v164l82 12q23 4 30 12t7 31v1034
q0 35 -27 43l-108 39l22 166h361l18 -104l10 -5q160 129 346 129z" />
    <glyph glyph-name="q" unicode="q" horiz-adv-x="1220" 
d="M393 526q0 -309 193 -309q96 0 194 84v483q-96 66 -190 66t-145.5 -89.5t-51.5 -234.5zM72 520q0 284 126 425.5t300 141.5t309 -116l31 96h268q-16 -154 -16 -332v-954q0 -23 5 -30t27 -9l97 -14v-162h-623v164l176 14q25 2 33 9t8 28v321l-10 4q-154 -131 -334 -131
t-288.5 130.5t-108.5 414.5z" />
    <glyph glyph-name="r" unicode="r" horiz-adv-x="968" 
d="M750 1087q113 0 178 -18v-373l-246 9l-20 108q-4 23 -27 23q-66 0 -148 -72v-543q0 -25 5.5 -32t27.5 -9l203 -16v-164h-670v166l92 12q20 2 26.5 10.5t6.5 30.5v600q0 35 -26 43l-111 39l22 166h361l25 -164h12q119 184 289 184z" />
    <glyph glyph-name="s" unicode="s" horiz-adv-x="997" 
d="M496 162q170 0 170 106q0 55 -48 82t-120 40t-96.5 17.5t-75 18.5t-109 44t-97 96t-38.5 163q0 178 130 268t339 90t360 -59v-297l-219 14l-20 107q-2 25 -21 29q-53 16 -131 16q-160 0 -160 -104q0 -37 32 -61.5t87.5 -41t123.5 -30.5q127 -25 233 -92t106 -242
q0 -176 -127 -263.5t-336 -87.5q-127 0 -249.5 25.5t-155.5 48.5v297l219 -16l20 -117q2 -27 25 -31q61 -20 158 -20z" />
    <glyph glyph-name="t" unicode="t" horiz-adv-x="892" 
d="M16 862v182q135 14 196.5 90t78.5 244h194v-291q0 -20 17 -20h289v-205h-306v-489q0 -94 29 -131t109 -37t168 33l55 -181q-168 -82 -341 -82t-251 78t-78 252v537q0 20 -16 20h-144z" />
    <glyph glyph-name="u" unicode="u" horiz-adv-x="1275" 
d="M481 1067v-678q0 -96 22.5 -134t86.5 -38q109 0 211 94v527q0 25 -5 30.5t-28 10.5l-88 20l22 168h408v-850q0 -23 5 -30t24 -9l102 -14v-164h-381l-16 111l-10 2q-53 -41 -94.5 -65.5t-115 -48.5t-155.5 -24q-158 0 -227.5 89.5t-69.5 271.5v500q0 25 -5 31.5t-28 11.5
l-98 20l20 168h420z" />
    <glyph glyph-name="v" unicode="v" horiz-adv-x="1275" 
d="M594 1067v-166l-131 -16l209 -584h14l217 584l-133 16l27 166h473v-166l-74 -12q-41 -10 -51 -35l-326 -854h-358l-326 848q-10 27 -43 35l-86 18l33 166h555z" />
    <glyph glyph-name="w" unicode="w" horiz-adv-x="1800" 
d="M557 1067v-170l-115 -12l164 -576h15l182 731h309l176 -731h12l154 576l-117 12l27 170h430v-166l-74 -14q-39 -6 -49 -41l-252 -846h-323l-160 686h-12l-162 -686h-369l-258 848q-8 27 -43 35l-86 18l33 166h518z" />
    <glyph glyph-name="x" unicode="x" horiz-adv-x="1234" 
d="M27 0v160l92 18q27 4 53 35l270 299l-278 332q-25 27 -49 35l-82 22l20 166h545v-166l-100 -16l151 -191l168 191l-112 16l20 166h453v-166l-95 -20q-12 -4 -51 -39l-250 -277l287 -350q33 -33 53 -37l92 -16v-162h-581v160l96 18l-156 205l-170 -203l115 -18v-162h-491z
" />
    <glyph glyph-name="y" unicode="y" horiz-adv-x="1267" 
d="M582 1067v-166l-129 -16l227 -541h14l217 541l-133 16l27 166h457v-166l-66 -12q-39 -6 -51 -35l-451 -1102l213 -22v-164h-682v166l160 18q33 2 51 45l88 195l-391 856q-8 27 -43 35l-84 20l33 166h543z" />
    <glyph glyph-name="z" unicode="z" horiz-adv-x="1058" 
d="M70 1067h899v-176l-539 -701h301q18 0 23 27l24 141l223 11v-369h-929v172l549 702h-287q-18 0 -23 -26l-24 -115l-217 -12v346z" />
    <glyph glyph-name="braceleft" unicode="{" horiz-adv-x="677" 
d="M178 820q0 81 -14 206t-14 178q0 160 97 220.5t343 64.5l20 -164q-86 -20 -115.5 -47t-29.5 -89t16.5 -181t16.5 -185q0 -178 -129 -233q129 -55 129 -232q0 -63 -16.5 -182.5t-16.5 -181.5t29.5 -88.5t115.5 -46.5l-20 -164q-246 4 -343 64.5t-97 220.5q0 53 14 177.5
t14 204.5t-33.5 112t-109.5 36v162q76 4 109.5 35.5t33.5 112.5z" />
    <glyph glyph-name="bar" unicode="|" horiz-adv-x="573" 
d="M145 -293v1839h281v-1839h-281z" />
    <glyph glyph-name="braceright" unicode="}" horiz-adv-x="677" 
d="M213 -6q0 62 -16.5 181.5t-16.5 182.5q0 176 129 232q-129 55 -129 233q0 66 16.5 184.5t16.5 181.5t-29.5 89.5t-115.5 46.5l20 164q246 -4 343 -64.5t97 -220.5q0 -53 -14 -178t-14 -206t33.5 -112.5t109.5 -35.5v-162q-76 -4 -109.5 -36t-33.5 -113t14 -204.5
t14 -176.5q0 -160 -97 -220.5t-343 -64.5l-20 164q86 20 115.5 46.5t29.5 88.5z" />
    <glyph glyph-name="asciitilde" unicode="~" horiz-adv-x="1073" 
d="M1028 883q-49 -289 -222 -289q-87 0 -246 47t-213 47t-86 -20.5t-62 -77.5l-152 74q33 121 101.5 196.5t156.5 75.5t237.5 -47t205.5 -47t78 21.5t42 78.5z" />
    <glyph glyph-name="uni00A0" unicode="&#xa0;" horiz-adv-x="413" 
 />
    <glyph glyph-name="exclamdown" unicode="&#xa1;" horiz-adv-x="569" 
d="M449 -440h-330v362l37 719h258l35 -719v-362zM109 907.5q0 159.5 176 159.5t176 -159.5t-176 -159.5t-176 159.5z" />
    <glyph glyph-name="cent" unicode="&#xa2;" horiz-adv-x="1060" 
d="M86 582q0 209 101.5 341t285.5 167v217h258v-209q150 -18 260 -80v-307l-211 10l-20 121q-6 29 -27 35q-39 14 -102 14q-213 0 -213 -297q0 -164 51 -239.5t162 -75.5q70 0 106 12q16 6 21 31l24 129l211 8v-307q-113 -68 -278 -80v-209h-256v217q-373 68 -373 502z" />
    <glyph glyph-name="sterling" unicode="&#xa3;" horiz-adv-x="1153" 
d="M207 555v16h-144v226h144v84q0 461 483 460q227 0 319.5 -88t92.5 -249l-281 -37q0 78 -27.5 115.5t-99.5 37.5q-180 0 -180 -205v-118h299v-226h-299q0 -129 -25.5 -216t-95.5 -156h428q20 0 25 24l33 162h217v-385h-1004l-33 184q94 55 121 122t27 249z" />
    <glyph glyph-name="currency" unicode="&#xa4;" horiz-adv-x="1167" 
d="M371 571.5q0 -106.5 52.5 -174t152.5 -67.5t154 69t54 177t-53 170.5t-155 62.5t-153.5 -65.5t-51.5 -172zM115 564q0 128 53 222l-178 181l168 170l168 -170q106 69 254 69t256 -65l163 164l162 -166l-172 -172q49 -113 49 -227t-59 -230l180 -180l-170 -166l-178 176
q-106 -61 -248 -61t-241 59l-175 -174l-163 164l180 182q-49 96 -49 224z" />
    <glyph glyph-name="yen" unicode="&#xa5;" horiz-adv-x="1239" 
d="M594 1303v-160l-133 -19l196 -317h13l207 317l-140 19l21 160h491v-160l-86 -23q-31 -8 -51 -39l-272 -401h209v-240h-265v-223q0 -23 5.5 -30t27.5 -9l217 -16v-162h-803v162l205 14q29 4 31 22.5t2 41.5v200h-254v240h197l-281 405q-16 27 -49 35l-92 23l20 160h584z
" />
    <glyph glyph-name="brokenbar" unicode="&#xa6;" horiz-adv-x="573" 
d="M145 836v710h281v-710h-281zM145 -293v795h281v-795h-281z" />
    <glyph glyph-name="section" unicode="&#xa7;" horiz-adv-x="1165" 
d="M385 524q0 -55 47 -82.5t141 -54.5l123 -35q82 49 82 133q0 57 -52 81.5t-155 54.5l-112 30q-74 -47 -74 -127zM135 455q0 166 150 280q-103 82 -103 236t123 239.5t333 85.5t355 -61v-297l-219 12l-20 115q-9 45 -152 45q-74 0 -115 -30.5t-41 -82t60.5 -82t145.5 -50
t171 -49.5t146.5 -100.5t60.5 -169.5t-41 -171t-98 -113q92 -74 92 -205q0 -176 -120 -262t-322 -86q-123 0 -246 25.5t-156 48.5v291l219 -17l21 -118q4 -18 24 -29q59 -25 154 -25q162 0 162 111q0 57 -60.5 88t-146.5 48t-171 44t-145.5 96.5t-60.5 182.5z" />
    <glyph glyph-name="dieresis" unicode="&#xa8;" horiz-adv-x="1024" 
d="M575 1366q0 64 40 102.5t105.5 38.5t105.5 -38.5t40 -104.5t-40 -104.5t-105.5 -38.5t-105.5 40.5t-40 104.5zM150 1366q0 64 39.5 102.5t105 38.5t105.5 -38.5t40 -104.5t-40 -104.5t-105.5 -38.5t-105 40.5t-39.5 104.5z" />
    <glyph glyph-name="copyright" unicode="&#xa9;" horiz-adv-x="1576" 
d="M428 643q0 182 100.5 290.5t290.5 108.5q121 0 230 -41v-227l-111 8l-16 84q-6 25 -21 31q-35 14 -92 14q-199 0 -199 -268t211 -268q89 0 99 33l24 104h103v-217q-84 -49 -234 -49q-199 0 -292 107.5t-93 289.5zM268 632q0 -245 138.5 -381t383.5 -136t384 141t139 387
t-143.5 382t-375.5 136t-379 -142t-147 -387zM102 636q0 302 197 487.5t503 185.5t489.5 -177.5t183.5 -481.5t-190.5 -493.5t-508.5 -189.5t-496 183.5t-178 485.5z" />
    <glyph glyph-name="ordfeminine" unicode="&#xaa;" horiz-adv-x="813" 
d="M307 776q1 -55 63 -55t109 37v102l-69 -6q-103 -8 -103 -78zM61 758q0 100 67 149t206 60l145 12v72q0 45 -14.5 68.5t-64.5 23.5t-68.5 -16.5t-18.5 -67.5l-225 16q0 215 315 215q168 0 240 -53t72 -190v-316q0 -16 4 -20t18 -6l66 -11v-119h-281l-12 72l-8 2
q-94 -90 -232 -90q-209 0 -209 199z" />
    <glyph glyph-name="guillemotleft" unicode="&#xab;" horiz-adv-x="966" 
d="M463 526l182 310h250l-164 -285q-12 -18 -2 -39l156 -301h-246zM72 526l182 310h250l-164 -285q-12 -18 -2 -39l156 -301h-246z" />
    <glyph glyph-name="logicalnot" unicode="&#xac;" horiz-adv-x="1167" 
d="M174 545v239h793v-432h-228v193h-565z" />
    <glyph glyph-name="uni00AD" unicode="&#xad;" horiz-adv-x="636" 
d="M41 465v260h555v-260h-555z" />
    <glyph glyph-name="registered" unicode="&#xae;" horiz-adv-x="927" 
d="M428 1006h29q68 0 67 55q0 47 -61 47h-35v-102zM295 786v50l29 4q10 2 10 14v252q0 12 -10 14l-29 4v54h182q141 0 141 -111q0 -80 -71 -104q27 -8 39 -39l28 -70q4 -10 17 -12l30 -6v-50h-124l-41 109q-8 25 -17.5 34t-25.5 9h-25v-84q0 -10 10 -12l31 -6v-50h-174z
M182 973q0 -131 76 -205t207 -74t205.5 76t74.5 209t-77.5 207t-201.5 74t-204 -78t-80 -209zM82 974q0 167 109.5 272.5t278.5 105.5t272.5 -101.5t103.5 -268.5t-106.5 -273.5t-282.5 -106.5t-275.5 102.5t-99.5 269.5z" />
    <glyph glyph-name="macron" unicode="&#xaf;" horiz-adv-x="1024" 
d="M186 1227v205h650v-205h-650z" />
    <glyph glyph-name="degree" unicode="&#xb0;" horiz-adv-x="618" 
d="M213 1364q0 -45 27.5 -72.5t69.5 -27.5t69 29.5t27 74.5t-27 72.5t-68 27.5t-69.5 -29.5t-28.5 -74.5zM74 1364q0 104 68.5 169.5t169 65.5t167 -62.5t66.5 -168.5t-65.5 -170.5t-169.5 -64.5t-170 63.5t-66 167.5z" />
    <glyph glyph-name="plusminus" unicode="&#xb1;" horiz-adv-x="1167" 
d="M186 543v237h273v287h246v-287h274v-237h-274v-264h-246v264h-273zM186 0v238h793v-238h-793z" />
    <glyph glyph-name="uni00B2" unicode="&#xb2;" horiz-adv-x="811" 
d="M53 717v147l273 314q88 102 114.5 144t26.5 83q0 68 -84 68q-92 0 -92 -115l-236 22q0 272 351 273q324 0 323 -232q0 -74 -33.5 -136t-99.5 -138l-240 -275h189q8 0 16 19l17 98h182v-272h-707z" />
    <glyph glyph-name="uni00B3" unicode="&#xb3;" horiz-adv-x="827" 
d="M378 889q120 0 120 108q0 98 -125 99q-47 0 -99 -11v168l62 7q76 8 112.5 35.5t36.5 93.5q0 84 -85 84t-87 -107l-241 23q0 264 337 264t336 -236q0 -80 -44 -139t-117 -80v-4q186 -35 186 -215q0 -131 -106.5 -205t-272.5 -74q-111 0 -207 34t-151 91l125 152
q100 -88 220 -88z" />
    <glyph glyph-name="acute" unicode="&#xb4;" horiz-adv-x="1024" 
d="M281 1251l313 357l168 -160l-367 -299z" />
    <glyph glyph-name="uni00B5" unicode="&#xb5;" horiz-adv-x="1288" 
d="M166 -360v1427h309v-678q0 -47 4 -76.5t32 -60.5t79 -31q109 0 205 90v756h309v-850q0 -37 29 -39l102 -14v-164h-379l-16 111h-13q-113 -135 -264 -136q-61 0 -110 25l-7 -8l39 -352h-319z" />
    <glyph glyph-name="paragraph" unicode="&#xb6;" horiz-adv-x="1302" 
d="M70 811q0 388 226 449t351 61h563v-162l-137 -16q-23 -2 -28 -9.5t-5 -29.5v-1172q0 -23 6.5 -28.5t26.5 -9.5l137 -17v-149h-376v1405h-115v-1405h-371v149l133 17q31 4 31 38v406q-221 14 -331.5 137t-110.5 336z" />
    <glyph glyph-name="periodcentered" unicode="&#xb7;" horiz-adv-x="487" 
d="M68 661.5q0 159.5 176 159.5t176 -159.5t-176 -159.5t-176 159.5z" />
    <glyph glyph-name="cedilla" unicode="&#xb8;" horiz-adv-x="1024" 
d="M344 -383q141 0 141 102q0 82 -135 86l33 256l147 -16l-18 -137q68 -12 115 -59t47 -139t-77 -163t-232 -71q-59 0 -84 6l12 139q33 -4 51 -4z" />
    <glyph glyph-name="uni00B9" unicode="&#xb9;" horiz-adv-x="630" 
d="M469 1632v-745q0 -16 4 -20.5t19 -6.5l108 -12v-131h-534v131l102 12q27 2 27 27v553q0 23 -19 28l-115 25l21 139h387z" />
    <glyph glyph-name="ordmasculine" unicode="&#xba;" horiz-adv-x="843" 
d="M305 928q0 -113 33 -160t96.5 -47t95 47t31.5 162q0 201 -123 200q-133 1 -133 -202zM53 920q0 169 100.5 269.5t289.5 100.5t278.5 -95t89.5 -265t-94.5 -270.5t-286.5 -100.5t-284.5 96t-92.5 265z" />
    <glyph glyph-name="guillemotright" unicode="&#xbb;" horiz-adv-x="966" 
d="M463 836h250l182 -312l-176 -313h-248l158 295q10 20 -2 39zM72 836h250l182 -312l-176 -313h-248l158 295q10 20 -2 39z" />
    <glyph glyph-name="onequarter" unicode="&#xbc;" horiz-adv-x="2007" 
d="M1530 352v307h-6l-199 -307h205zM1118 176v166l398 571h262v-561h110v-174h-110v-178h-248v176h-412zM473 -35l733 1518h271l-732 -1518h-272zM526 1491v-746q0 -16 4.5 -20t18.5 -6l108 -12v-132h-534v132l102 12q27 2 27 26v553q0 23 -19 29l-114 25l20 139h387z" />
    <glyph glyph-name="onehalf" unicode="&#xbd;" horiz-adv-x="2007" 
d="M1184 0v147l272 314q88 102 114.5 144t26.5 83q0 68 -84 68q-92 0 -92 -115l-235 23q0 272 350 272q324 0 324 -231q0 -74 -34 -136.5t-100 -138.5l-239 -274h188q8 0 17 18l16 98h182v-272h-706zM434 -35l733 1518h271l-731 -1518h-273zM522 1491v-746q0 -16 4 -20
t19 -6l108 -12v-132h-534v132l102 12q27 2 27 26v553q0 23 -19 29l-114 25l20 139h387z" />
    <glyph glyph-name="threequarters" unicode="&#xbe;" horiz-adv-x="2007" 
d="M1565 352v307h-6l-199 -307h205zM1153 176v166l397 571h262v-561h111v-174h-111v-178h-247v176h-412zM539 -35l733 1518h270l-731 -1518h-272zM429 748q120 0 120 108q0 98 -125 98q-47 0 -98 -10v168l61 6q76 8 113 36t37 93q0 84 -85 84t-87 -106l-242 22
q0 264 337 264t337 -235q0 -80 -44 -139.5t-118 -79.5v-4q186 -35 186 -215q0 -131 -106.5 -205t-272.5 -74q-111 0 -207 34t-151 91l125 152q100 -88 220 -88z" />
    <glyph glyph-name="questiondown" unicode="&#xbf;" horiz-adv-x="1081" 
d="M500 907.5q0 159.5 175 159.5t175 -159.5t-175 -159.5t-175 159.5zM76 -18q0 199 113.5 321.5t330.5 149.5v188h309v-373q-239 -21 -324 -85.5t-85 -200.5q0 -76 43 -123t122 -47t138 24q23 8 27 41l18 131l250 19v-377q-236 -90 -447 -90q-495 0 -495 422z" />
    <glyph glyph-name="Agrave" unicode="&#xc0;" 
d="M551 612h383l-182 557h-13zM496 1753l104 203l422 -250l-72 -137zM6 0v160l90 22q41 10 51 39l449 1262h362l447 -1266q8 -25 49 -35l94 -22v-160h-647v160l168 18l-74 213h-508l-71 -213l162 -18v-160h-572z" />
    <glyph glyph-name="Aacute" unicode="&#xc1;" 
d="M553 1706l422 250l104 -203l-454 -182zM551 612h383l-182 557h-13zM6 0v160l90 22q41 10 51 39l449 1262h362l447 -1266q8 -25 49 -35l94 -22v-160h-647v160l168 18l-74 213h-508l-71 -213l162 -18v-160h-572z" />
    <glyph glyph-name="Acircumflex" unicode="&#xc2;" 
d="M551 612h383l-182 557h-13zM424 1686l248 229h213l248 -229l-113 -115l-242 166l-241 -166zM6 0v160l90 22q41 10 51 39l449 1262h362l447 -1266q8 -25 49 -35l94 -22v-160h-647v160l168 18l-74 213h-508l-71 -213l162 -18v-160h-572z" />
    <glyph glyph-name="Atilde" unicode="&#xc3;" 
d="M551 612h383l-182 557h-13zM606 1876q46 0 160 -32t154 -41t51 5l59 64l121 -74l-45 -82q-35 -63 -63.5 -90t-64.5 -27t-194 39t-166 39t-28 -16l-68 -64l-112 72l61 105q61 102 135 102zM6 0v160l90 22q41 10 51 39l449 1262h362l447 -1266q8 -25 49 -35l94 -22v-160
h-647v160l168 18l-74 213h-508l-71 -213l162 -18v-160h-572z" />
    <glyph glyph-name="Adieresis" unicode="&#xc4;" 
d="M844 1742q0 64 40 103t105.5 39t105.5 -39t40 -103t-40 -103.5t-105.5 -39.5t-105.5 39.5t-40 103.5zM551 612h383l-182 557h-13zM418 1742q0 64 40 103t105.5 39t105.5 -39t40 -103t-40 -103.5t-105.5 -39.5t-105.5 39.5t-40 103.5zM6 0v160l90 22q41 10 51 39l449 1262
h362l447 -1266q8 -25 49 -35l94 -22v-160h-647v160l168 18l-74 213h-508l-71 -213l162 -18v-160h-572z" />
    <glyph glyph-name="Aring" unicode="&#xc5;" 
d="M692 1612q0 -86 85 -86t85 86q0 43 -23.5 66.5t-61.5 23.5t-61.5 -23.5t-23.5 -66.5zM551 612h383l-182 557h-13zM6 0v160l90 22q41 10 51 39l449 1260q-43 61 -43 144t63.5 143.5t162 60.5t160.5 -58.5t62 -142.5t-43 -145l447 -1266q8 -25 49 -35l94 -22v-160h-647v160
l168 18l-74 213h-508l-71 -213l162 -18v-160h-572z" />
    <glyph glyph-name="AE" unicode="&#xc6;" horiz-adv-x="2031" 
d="M1001 848v414h-100l-196 -414h296zM6 0v160l86 22q41 10 70 68l495 1050l-151 21v162h1409v-414l-225 10l-29 150q-8 33 -49 33h-307v-416h479v-228h-479v-399h366q29 0 33 23l33 180h223v-422h-1120v160l114 12q34 4 40.5 17.5t6.5 31.5v397h-389l-204 -440l159 -18
v-160h-561z" />
    <glyph glyph-name="Ccedilla" unicode="&#xc7;" horiz-adv-x="1386" 
d="M63 748q0 342 197 551.5t565 209.5q287 0 465 -116v-402l-225 19l-33 200q-6 29 -33 37q-78 25 -182 25q-199 0 -312.5 -134t-113.5 -395t108.5 -397.5t303.5 -136.5q119 0 205 27q18 4 25 12t11 31l31 190h219v-381q-158 -96 -446 -111l-8 -69q68 -12 114.5 -59
t46.5 -139t-76.5 -163t-232.5 -71q-59 0 -84 6l13 139q33 -4 51 -4q141 0 141 102q0 82 -135 86l22 175q-637 41 -637 768z" />
    <glyph glyph-name="Egrave" unicode="&#xc8;" horiz-adv-x="1284" 
d="M365 1753l104 203l422 -250l-72 -137zM78 0v160l129 14q20 2 26.5 10.5t6.5 30.5v1051q0 25 -6.5 32t-26.5 9l-129 14v162h1089v-414l-225 10l-29 156q-6 27 -34 27h-322v-404h479v-227h-479v-412h367q29 0 32 23l33 180h223v-422h-1134z" />
    <glyph glyph-name="Eacute" unicode="&#xc9;" horiz-adv-x="1284" 
d="M422 1706l422 250l104 -203l-454 -182zM78 0v160l129 14q20 2 26.5 10.5t6.5 30.5v1051q0 25 -6.5 32t-26.5 9l-129 14v162h1089v-414l-225 10l-29 156q-6 27 -34 27h-322v-404h479v-227h-479v-412h367q29 0 32 23l33 180h223v-422h-1134z" />
    <glyph glyph-name="Ecircumflex" unicode="&#xca;" horiz-adv-x="1284" 
d="M293 1686l248 229h213l247 -229l-112 -115l-242 166l-241 -166zM78 0v160l129 14q20 2 26.5 10.5t6.5 30.5v1051q0 25 -6.5 32t-26.5 9l-129 14v162h1089v-414l-225 10l-29 156q-6 27 -34 27h-322v-404h479v-227h-479v-412h367q29 0 32 23l33 180h223v-422h-1134z" />
    <glyph glyph-name="Edieresis" unicode="&#xcb;" horiz-adv-x="1284" 
d="M713 1742q0 64 40 103t105.5 39t105.5 -39t40 -103t-40 -103.5t-105.5 -39.5t-105.5 39.5t-40 103.5zM287 1742q0 64 40 103t105.5 39t105.5 -39t40 -103t-40 -103.5t-105.5 -39.5t-105.5 39.5t-40 103.5zM78 0v160l129 14q20 2 26.5 10.5t6.5 30.5v1051q0 25 -6.5 32
t-26.5 9l-129 14v162h1089v-414l-225 10l-29 156q-6 27 -34 27h-322v-404h479v-227h-479v-412h367q29 0 32 23l33 180h223v-422h-1134z" />
    <glyph glyph-name="Igrave" unicode="&#xcc;" horiz-adv-x="827" 
d="M135 1753l105 203l422 -250l-72 -137zM74 0v160l149 14q20 2 26.5 9t6.5 32v1049q0 25 -6 32t-27 9l-149 14v164h688v-164l-158 -16q-23 -2 -28 -9.5t-5 -29.5v-1047q0 -25 5.5 -32t27.5 -9l158 -16v-160h-688z" />
    <glyph glyph-name="Iacute" unicode="&#xcd;" horiz-adv-x="827" 
d="M193 1706l421 250l105 -203l-455 -182zM74 0v160l149 14q20 2 26.5 9t6.5 32v1049q0 25 -6 32t-27 9l-149 14v164h688v-164l-158 -16q-23 -2 -28 -9.5t-5 -29.5v-1047q0 -25 5.5 -32t27.5 -9l158 -16v-160h-688z" />
    <glyph glyph-name="Icircumflex" unicode="&#xce;" horiz-adv-x="827" 
d="M74 0v160l149 14q20 2 26.5 9t6.5 32v1049q0 25 -6 32t-27 9l-149 14v164h688v-164l-158 -16q-23 -2 -28 -9.5t-5 -29.5v-1047q0 -25 5.5 -32t27.5 -9l158 -16v-160h-688zM63 1686l248 229h213l248 -229l-113 -115l-241 166l-242 -166z" />
    <glyph glyph-name="Idieresis" unicode="&#xcf;" horiz-adv-x="827" 
d="M483 1742q0 64 40 103t105.5 39t105.5 -39t40 -103t-40 -103.5t-105.5 -39.5t-105.5 39.5t-40 103.5zM74 0v160l149 14q20 2 26.5 9t6.5 32v1049q0 25 -6 32t-27 9l-149 14v164h688v-164l-158 -16q-23 -2 -28 -9.5t-5 -29.5v-1047q0 -25 5.5 -32t27.5 -9l158 -16v-160
h-688zM57 1742q0 64 40 103t105.5 39t105.5 -39t40 -103t-40 -103.5t-105.5 -39.5t-105.5 39.5t-40 103.5z" />
    <glyph glyph-name="Eth" unicode="&#xd0;" horiz-adv-x="1540" 
d="M557 221h117q481 0 481 524q0 279 -110.5 398t-358.5 119h-129v-408h291v-219h-291v-414zM78 0v164l129 14q20 2 26.5 9.5t6.5 31.5v416h-131v219h131v412q0 23 -6.5 31t-26.5 10l-129 14v162h663q375 0 555.5 -187.5t180.5 -536.5t-192.5 -554t-577.5 -205h-629z" />
    <glyph glyph-name="Ntilde" unicode="&#xd1;" horiz-adv-x="1693" 
d="M657 1876q47 0 161 -32t154 -41t50 5l59 64l121 -74l-45 -82q-35 -63 -63.5 -90t-64.5 -27t-194 39q-159 39 -167 39t-27 -16l-68 -64l-112 72l61 105q61 102 135 102zM78 0v160l129 14q20 2 26.5 10.5t6.5 30.5v1053q0 25 -6.5 32t-26.5 9l-129 14v160h508l643 -1071
v852q0 25 -6 32t-27 9l-129 14v164h569v-164l-137 -16q-23 -2 -28 -9.5t-5 -29.5v-1264h-336l-653 1069v-852q0 -25 5 -32t28 -9l137 -16v-160h-569z" />
    <glyph glyph-name="Ograve" unicode="&#xd2;" 
d="M510 1761l104 203l422 -250l-71 -137zM391 743q0 -516 387 -516t387 512t-372 512q-184 0 -293 -127t-109 -381zM63 733q0 346 190.5 561t540.5 215t523.5 -207.5t173.5 -557.5t-183.5 -559.5t-539.5 -209.5t-530.5 206t-174.5 552z" />
    <glyph glyph-name="Oacute" unicode="&#xd3;" 
d="M567 1714l422 250l105 -203l-455 -182zM391 743q0 -516 387 -516t387 512t-372 512q-184 0 -293 -127t-109 -381zM63 733q0 346 190.5 561t540.5 215t523.5 -207.5t173.5 -557.5t-183.5 -559.5t-539.5 -209.5t-530.5 206t-174.5 552z" />
    <glyph glyph-name="Ocircumflex" unicode="&#xd4;" 
d="M438 1694l248 229h213l248 -229l-113 -115l-241 166l-242 -166zM391 743q0 -516 387 -516t387 512t-372 512q-184 0 -293 -127t-109 -381zM63 733q0 346 190.5 561t540.5 215t523.5 -207.5t173.5 -557.5t-183.5 -559.5t-539.5 -209.5t-530.5 206t-174.5 552z" />
    <glyph glyph-name="Otilde" unicode="&#xd5;" 
d="M988 1608q-40 0 -351 78q-14 0 -33 -17l-67 -63l-113 71l61 105q61 102 136 102q47 0 161 -32t153 -40q40 -10 50 5l59 63l121 -74l-45 -82q-35 -63 -63.5 -89.5t-68.5 -26.5zM391 743q0 -516 387 -516t387 512t-372 512q-184 0 -293 -127t-109 -381zM63 733
q0 346 190.5 561t540.5 215t523.5 -207.5t173.5 -557.5t-183.5 -559.5t-539.5 -209.5t-530.5 206t-174.5 552z" />
    <glyph glyph-name="Odieresis" unicode="&#xd6;" 
d="M858 1750q0 64 40 103t105.5 39t105.5 -38.5t40 -103.5t-40 -103.5t-105.5 -38.5t-105.5 39t-40 103zM432 1750q0 64 40 103t105.5 39t105.5 -38.5t40 -103.5t-40 -103.5t-105.5 -38.5t-105.5 39t-40 103zM391 743q0 -516 387 -516t387 512t-372 512q-184 0 -293 -127
t-109 -381zM63 733q0 346 190.5 561t540.5 215t523.5 -207.5t173.5 -557.5t-183.5 -559.5t-539.5 -209.5t-530.5 206t-174.5 552z" />
    <glyph glyph-name="multiply" unicode="&#xd7;" horiz-adv-x="1167" 
d="M209 455l203 202l-203 205l172 172l203 -203l202 203l172 -172l-202 -205l202 -202l-172 -172l-202 202l-203 -202z" />
    <glyph glyph-name="Oslash" unicode="&#xd8;" 
d="M780 227q385 0 385 518q0 252 -96 381l-373 -893q41 -6 84 -6zM391 736q0 -261 107 -390l376 897q-35 8 -81 8q-184 0 -293 -127t-109 -388zM63 737q0 342 190.5 557t543.5 215q96 0 180 -18l53 125h244l-86 -207q152 -94 227.5 -262t75.5 -383q0 -371 -183.5 -580
t-539.5 -209q-80 0 -174 15l-62 -150h-245l94 226q-318 175 -318 671z" />
    <glyph glyph-name="Ugrave" unicode="&#xd9;" horiz-adv-x="1607" 
d="M551 1753l104 203l422 -250l-71 -137zM1386 530q0 -555 -594 -555q-292 0 -431.5 137.5t-139.5 426.5v727q0 25 -6 32t-27 9l-127 14v162h648v-162l-138 -16q-23 -2 -27.5 -9.5t-4.5 -29.5v-670q0 -188 58 -275.5t220 -87.5t228.5 80t66.5 275v678q0 25 -6 32t-27 9
l-129 14v162h606v-162l-137 -16q-23 -2 -28 -9.5t-5 -29.5v-736z" />
    <glyph glyph-name="Uacute" unicode="&#xda;" horiz-adv-x="1607" 
d="M608 1706l422 250l105 -203l-455 -182zM1386 530q0 -555 -594 -555q-292 0 -431.5 137.5t-139.5 426.5v727q0 25 -6 32t-27 9l-127 14v162h648v-162l-138 -16q-23 -2 -27.5 -9.5t-4.5 -29.5v-670q0 -188 58 -275.5t220 -87.5t228.5 80t66.5 275v678q0 25 -6 32t-27 9
l-129 14v162h606v-162l-137 -16q-23 -2 -28 -9.5t-5 -29.5v-736z" />
    <glyph glyph-name="Ucircumflex" unicode="&#xdb;" horiz-adv-x="1607" 
d="M479 1685l248 230h213l248 -230l-113 -114l-241 166l-242 -166zM1386 530q0 -555 -594 -555q-292 0 -431.5 137.5t-139.5 426.5v727q0 25 -6 32t-27 9l-127 14v162h648v-162l-138 -16q-23 -2 -27.5 -9.5t-4.5 -29.5v-670q0 -188 58 -275.5t220 -87.5t228.5 80t66.5 275
v678q0 25 -6 32t-27 9l-129 14v162h606v-162l-137 -16q-23 -2 -28 -9.5t-5 -29.5v-736z" />
    <glyph glyph-name="Udieresis" unicode="&#xdc;" horiz-adv-x="1607" 
d="M899 1742q0 64 40 103t105.5 39t105.5 -39t40 -103t-40 -103.5t-105.5 -39.5t-105.5 39.5t-40 103.5zM473 1742q0 64 40 103t105.5 39t105.5 -39t40 -103t-40 -103.5t-105.5 -39.5t-105.5 39.5t-40 103.5zM1386 530q0 -555 -594 -555q-292 0 -431.5 137.5t-139.5 426.5
v727q0 25 -6 32t-27 9l-127 14v162h648v-162l-138 -16q-23 -2 -27.5 -9.5t-4.5 -29.5v-670q0 -188 58 -275.5t220 -87.5t228.5 80t66.5 275v678q0 25 -6 32t-27 9l-129 14v162h606v-162l-137 -16q-23 -2 -28 -9.5t-5 -29.5v-736z" />
    <glyph glyph-name="Yacute" unicode="&#xdd;" horiz-adv-x="1384" 
d="M498 1706l422 250l104 -203l-455 -182zM641 1483v-160l-160 -18l248 -484h16l248 484l-157 18l20 160h522v-160l-86 -23q-39 -10 -51 -38l-371 -705v-340q0 -23 5.5 -30t27.5 -9l217 -16v-162h-803v162l205 14q20 2 26.5 9.5t6.5 31.5v336l-408 713q-14 23 -49 34l-92 23
l21 160h614z" />
    <glyph glyph-name="Thorn" unicode="&#xde;" horiz-adv-x="1329" 
d="M555 559h102q206 0 245.5 77t39.5 146q0 123 -69.5 165t-196.5 42h-121v-430zM78 0v162l129 14q20 2 26.5 10.5t6.5 30.5v1047q0 25 -6.5 32t-26.5 9l-129 14v164h651v-164l-141 -14q-33 -2 -33 -39v-58h217q494 0 494 -411q0 -461 -561 -461h-150v-117q0 -25 5 -32
t28 -9l293 -16v-162h-803z" />
    <glyph glyph-name="germandbls" unicode="&#xdf;" horiz-adv-x="1325" 
d="M41 0v162l100 14q20 2 26.5 10.5t6.5 30.5v897q0 242 130 349.5t392 107.5q481 0 482 -391q0 -141 -68 -226.5t-158 -119.5v-9q138 -27 224 -108.5t86 -285.5t-99 -330t-291 -126t-315 70l68 186q94 -43 170 -43q145 0 145 252q0 137 -56.5 195.5t-146.5 59.5t-133 -5
v213l78 10q176 23 176 235t-180 212q-102 0 -148.5 -47t-46.5 -180v-1133h-442z" />
    <glyph glyph-name="agrave" unicode="&#xe0;" horiz-adv-x="1140" 
d="M383 309q0 -113 117 -112q86 0 186 73v170l-139 -10q-90 -6 -127 -33t-37 -88zM311 1448l168 160l314 -357l-117 -102zM68 279q0 152 94 227.5t289 87.5l235 16v113q0 84 -24.5 123t-109.5 39t-119 -25.5t-34 -111.5l-288 24q0 315 440 315q240 0 338 -79.5t98 -290.5
v-498q0 -25 5 -32t28 -9l98 -16v-162h-377l-20 111l-10 2q-141 -137 -344 -138q-299 1 -299 304z" />
    <glyph glyph-name="aacute" unicode="&#xe1;" horiz-adv-x="1140" 
d="M383 309q0 -113 117 -112q86 0 186 73v170l-139 -10q-90 -6 -127 -33t-37 -88zM324 1251l313 357l168 -160l-367 -299zM68 279q0 152 94 227.5t289 87.5l235 16v113q0 84 -24.5 123t-109.5 39t-119 -25.5t-34 -111.5l-288 24q0 315 440 315q240 0 338 -79.5t98 -290.5
v-498q0 -25 5 -32t28 -9l98 -16v-162h-377l-20 111l-10 2q-141 -137 -344 -138q-299 1 -299 304z" />
    <glyph glyph-name="acircumflex" unicode="&#xe2;" horiz-adv-x="1140" 
d="M383 309q0 -113 117 -112q86 0 186 73v170l-139 -10q-90 -6 -127 -33t-37 -88zM193 1257l251 265h213l252 -265l-123 -106l-235 190l-236 -190zM68 279q0 152 94 227.5t289 87.5l235 16v113q0 84 -24.5 123t-109.5 39t-119 -25.5t-34 -111.5l-288 24q0 315 440 315
q240 0 338 -79.5t98 -290.5v-498q0 -25 5 -32t28 -9l98 -16v-162h-377l-20 111l-10 2q-141 -137 -344 -138q-299 1 -299 304z" />
    <glyph glyph-name="atilde" unicode="&#xe3;" horiz-adv-x="1140" 
d="M383 309q0 -113 117 -112q86 0 186 73v170l-139 -10q-90 -6 -127 -33t-37 -88zM379 1470q47 0 161 -32t154 -40q40 -9 49 5l60 63l121 -73l-45 -82q-35 -63 -64 -90t-65 -27t-194 39t-166 39q-9 0 -28 -17l-67 -63l-113 72l62 104q61 102 135 102zM68 279q0 152 94 227.5
t289 87.5l235 16v113q0 84 -24.5 123t-109.5 39t-119 -25.5t-34 -111.5l-288 24q0 315 440 315q240 0 338 -79.5t98 -290.5v-498q0 -25 5 -32t28 -9l98 -16v-162h-377l-20 111l-10 2q-141 -137 -344 -138q-299 1 -299 304z" />
    <glyph glyph-name="adieresis" unicode="&#xe4;" horiz-adv-x="1140" 
d="M616 1366q0 64 40 102.5t105.5 38.5t105.5 -38.5t40 -104.5t-40 -104.5t-105.5 -38.5t-105.5 40.5t-40 104.5zM383 309q0 -113 117 -112q86 0 186 73v170l-139 -10q-90 -6 -127 -33t-37 -88zM190 1366q0 64 40 102.5t105.5 38.5t105.5 -38.5t40 -104.5t-40 -104.5
t-105.5 -38.5t-105.5 40.5t-40 104.5zM68 279q0 152 94 227.5t289 87.5l235 16v113q0 84 -24.5 123t-109.5 39t-119 -25.5t-34 -111.5l-288 24q0 315 440 315q240 0 338 -79.5t98 -290.5v-498q0 -25 5 -32t28 -9l98 -16v-162h-377l-20 111l-10 2q-141 -137 -344 -138
q-299 1 -299 304z" />
    <glyph glyph-name="aring" unicode="&#xe5;" horiz-adv-x="1140" 
d="M561 1458q-84 0 -84 -84t84 -84q78 0 78 84t-78 84zM383 309q0 -113 117 -112q86 0 186 73v170l-139 -10q-90 -6 -127 -33t-37 -88zM340 1371q0 91 64.5 148.5t155.5 57.5t153.5 -55.5t62.5 -146.5t-60.5 -148.5t-155.5 -57.5t-157.5 55.5t-62.5 146.5zM68 279
q0 152 94 227.5t289 87.5l235 16v113q0 84 -24.5 123t-109.5 39t-119 -25.5t-34 -111.5l-288 24q0 315 440 315q240 0 338 -79.5t98 -290.5v-498q0 -25 5 -32t28 -9l98 -16v-162h-377l-20 111l-10 2q-141 -137 -344 -138q-299 1 -299 304z" />
    <glyph glyph-name="ae" unicode="&#xe6;" horiz-adv-x="1685" 
d="M1159 866q-160 0 -172 -221h326q-2 127 -42 174t-112 47zM383 307q0 -113 120 -113t222 91q-29 84 -37 159l-141 -10q-90 -6 -127 -35t-37 -92zM68 279q0 152 94 230.5t289 90.5l235 16v107q0 84 -24.5 123t-109.5 39t-119 -25.5t-34 -111.5l-288 24q0 315 419 315
q256 0 344 -137q111 137 320 137t316.5 -114.5t107.5 -370.5q0 -74 -6 -135h-625q6 -129 63.5 -190.5t178.5 -61.5t305 68l76 -203q-214 -104 -438 -104t-349 145q-201 -145 -409 -146q-346 1 -346 304z" />
    <glyph glyph-name="ccedilla" unicode="&#xe7;" horiz-adv-x="1044" 
d="M55 518q0 279 152.5 424t408.5 145q113 0 212.5 -25.5t152.5 -60.5v-321l-219 10l-25 135q-4 27 -24 33q-43 14 -105 14q-100 0 -163.5 -77.5t-63.5 -245.5q0 -342 264 -342q119 0 256 59l80 -190q-154 -94 -365 -101l-8 -67q68 -12 115 -59t47 -139t-77 -163t-232 -71
q-59 0 -84 6l12 139q33 -4 51 -4q141 0 142 102q0 82 -136 86l23 181q-207 33 -310.5 175t-103.5 357z" />
    <glyph glyph-name="egrave" unicode="&#xe8;" horiz-adv-x="1075" 
d="M555 866q-154 0 -170 -217h326q-2 217 -156 217zM313 1448l168 160l314 -357l-117 -102zM55 544q0 263 142.5 403t360.5 140t337 -119.5t119 -375.5q0 -55 -4 -137h-627q16 -242 242 -242q117 0 305 70l76 -203q-215 -104 -420 -105q-281 0 -406 153t-125 416z" />
    <glyph glyph-name="eacute" unicode="&#xe9;" horiz-adv-x="1075" 
d="M555 866q-154 0 -170 -217h326q-2 217 -156 217zM326 1251l313 357l168 -160l-367 -299zM55 544q0 263 142.5 403t360.5 140t337 -119.5t119 -375.5q0 -55 -4 -137h-627q16 -242 242 -242q117 0 305 70l76 -203q-215 -104 -420 -105q-281 0 -406 153t-125 416z" />
    <glyph glyph-name="ecircumflex" unicode="&#xea;" horiz-adv-x="1075" 
d="M555 866q-154 0 -170 -217h326q-2 217 -156 217zM195 1257l251 265h213l252 -265l-123 -106l-235 190l-236 -190zM55 544q0 263 142.5 403t360.5 140t337 -119.5t119 -375.5q0 -55 -4 -137h-627q16 -242 242 -242q117 0 305 70l76 -203q-215 -104 -420 -105
q-281 0 -406 153t-125 416z" />
    <glyph glyph-name="edieresis" unicode="&#xeb;" horiz-adv-x="1075" 
d="M618 1366q0 64 40 102.5t105.5 38.5t105.5 -39t40 -104.5t-40 -104t-105.5 -38.5t-105.5 40.5t-40 104.5zM555 866q-154 0 -170 -217h326q-2 217 -156 217zM193 1366q0 64 39.5 102.5t105 38.5t105.5 -39t40 -104.5t-40 -104t-105.5 -38.5t-105 40.5t-39.5 104.5zM55 544
q0 263 142.5 403t360.5 140t337 -119.5t119 -375.5q0 -55 -4 -137h-627q16 -242 242 -242q117 0 305 70l76 -203q-215 -104 -420 -105q-281 0 -406 153t-125 416z" />
    <glyph glyph-name="igrave" unicode="&#xec;" horiz-adv-x="647" 
d="M47 1444l168 160l313 -357l-116 -102zM41 0v162l104 14q20 2 26.5 10.5t6.5 30.5v602q0 35 -26 43l-111 39l22 166h424v-850q0 -25 5.5 -32t27.5 -9l105 -14v-162h-584z" />
    <glyph glyph-name="iacute" unicode="&#xed;" horiz-adv-x="647" 
d="M59 1247l314 357l168 -160l-367 -299zM41 0v162l104 14q20 2 26.5 10.5t6.5 30.5v602q0 35 -26 43l-111 39l22 166h424v-850q0 -25 5.5 -32t27.5 -9l105 -14v-162h-584z" />
    <glyph glyph-name="icircumflex" unicode="&#xee;" horiz-adv-x="647" 
d="M41 0v162l104 14q20 2 26.5 10.5t6.5 30.5v602q0 35 -26 43l-111 39l22 166h424v-850q0 -25 5.5 -32t27.5 -9l105 -14v-162h-584zM-47 1266l227 264h213l228 -264l-123 -107l-211 191l-211 -191z" />
    <glyph glyph-name="idieresis" unicode="&#xef;" horiz-adv-x="647" 
d="M342 1338q0 64 40 103.5t105.5 39.5t105.5 -39t40 -104.5t-40 -104.5t-105.5 -39t-105.5 40t-40 104zM41 0v162l104 14q20 2 26.5 10.5t6.5 30.5v602q0 35 -26 43l-111 39l22 166h424v-850q0 -25 5.5 -32t27.5 -9l105 -14v-162h-584zM-63 1338q0 64 39.5 103.5t105 39.5
t105.5 -39t40 -104.5t-40 -104.5t-105.5 -39t-105 40t-39.5 104z" />
    <glyph glyph-name="eth" unicode="&#xf0;" horiz-adv-x="1198" 
d="M385 519q0 -167 51 -244.5t158 -77.5q233 0 233 419q0 55 -10 134q-96 76 -209 76t-168 -70t-55 -237zM61 498q0 240 126 389t368 149q152 0 256 -82q-63 178 -207.5 276.5t-314.5 129.5l102 237q195 -37 338 -124l223 141l150 -223l-166 -101q195 -244 194 -635
q0 -317 -132 -498.5t-405 -181.5t-402.5 141.5t-129.5 381.5z" />
    <glyph glyph-name="ntilde" unicode="&#xf1;" horiz-adv-x="1277" 
d="M444 1470q46 0 160 -32t154 -40q40 -9 51 5l59 63l121 -73l-45 -82q-35 -63 -63.5 -90t-64.5 -27t-194 39t-166 39q-9 0 -28 -17l-68 -63l-112 72l61 104q61 102 135 102zM799 1087q174 0 246.5 -87t72.5 -261v-522q0 -25 5 -32t28 -9l102 -14v-162h-444v662
q0 59 -5 91.5t-29.5 60.5t-76.5 28t-113 -23.5t-98 -52.5v-549q0 -25 5.5 -32t27.5 -9l98 -14v-162h-565v164l92 12q20 2 26.5 10.5t6.5 30.5v602q0 35 -26 43l-111 39l25 166h358l16 -106l9 -5q176 131 350 131z" />
    <glyph glyph-name="ograve" unicode="&#xf2;" horiz-adv-x="1189" 
d="M379 529q0 -338 217 -339q215 0 215 349q0 176 -51 251.5t-156 75.5q-225 1 -225 -337zM369 1448l168 160l313 -357l-117 -102zM55 530q0 258 139.5 407.5t411.5 149.5t400.5 -144t128.5 -403t-139.5 -412t-410.5 -153t-400.5 148.5t-129.5 406.5z" />
    <glyph glyph-name="oacute" unicode="&#xf3;" horiz-adv-x="1189" 
d="M381 1251l313 357l168 -160l-366 -299zM379 529q0 -338 217 -339q215 0 215 349q0 176 -51 251.5t-156 75.5q-225 1 -225 -337zM55 530q0 258 139.5 407.5t411.5 149.5t400.5 -144t128.5 -403t-139.5 -412t-410.5 -153t-400.5 148.5t-129.5 406.5z" />
    <glyph glyph-name="ocircumflex" unicode="&#xf4;" horiz-adv-x="1189" 
d="M379 529q0 -338 217 -339q215 0 215 349q0 176 -51 251.5t-156 75.5q-225 1 -225 -337zM250 1257l252 265h213l252 -265l-123 -106l-236 190l-235 -190zM55 530q0 258 139.5 407.5t411.5 149.5t400.5 -144t128.5 -403t-139.5 -412t-410.5 -153t-400.5 148.5t-129.5 406.5
z" />
    <glyph glyph-name="otilde" unicode="&#xf5;" horiz-adv-x="1189" 
d="M379 529q0 -338 217 -339q215 0 215 349q0 176 -51 251.5t-156 75.5q-225 1 -225 -337zM436 1470q46 0 160 -32t154 -40q40 -9 51 5l59 63l121 -73l-45 -82q-35 -63 -63.5 -90t-64.5 -27t-194 39t-166 39t-28 -17l-68 -63l-112 72l61 104q61 102 135 102zM55 530
q0 258 139.5 407.5t411.5 149.5t400.5 -144t128.5 -403t-139.5 -412t-410.5 -153t-400.5 148.5t-129.5 406.5z" />
    <glyph glyph-name="odieresis" unicode="&#xf6;" horiz-adv-x="1189" 
d="M674 1366q0 64 40 102.5t105.5 38.5t105.5 -38.5t40 -104.5t-40 -104.5t-105.5 -38.5t-105.5 40.5t-40 104.5zM379 529q0 -338 217 -339q215 0 215 349q0 176 -51 251.5t-156 75.5q-225 1 -225 -337zM248 1366q0 64 40 102.5t105.5 38.5t105.5 -38.5t40 -104.5
t-40 -104.5t-105.5 -38.5t-105.5 40.5t-40 104.5zM55 530q0 258 139.5 407.5t411.5 149.5t400.5 -144t128.5 -403t-139.5 -412t-410.5 -153t-400.5 148.5t-129.5 406.5z" />
    <glyph glyph-name="divide" unicode="&#xf7;" horiz-adv-x="1167" 
d="M416 995q0 68 41 109t120 41t119.5 -40t40.5 -110q-1 -147 -161 -147t-160 147zM416 319q0 68 42 109t119.5 41t118.5 -41t41 -109q-1 -150 -161 -150t-160 150zM186 539v237h793v-237h-793z" />
    <glyph glyph-name="oslash" unicode="&#xf8;" horiz-adv-x="1189" 
d="M811 539q0 117 -27 196l-237 -540q29 -4 49 -5q215 0 215 349zM379 537q0 -115 20 -183l226 510q-6 2 -21 2q-225 1 -225 -329zM55 526q0 262 139.5 411.5t413.5 149.5q66 0 113 -8l61 140h217l-88 -201q223 -127 224 -469q0 -268 -139.5 -421t-413.5 -153q-61 0 -129 11
l-66 -152h-219l98 221q-211 131 -211 471z" />
    <glyph glyph-name="ugrave" unicode="&#xf9;" horiz-adv-x="1275" 
d="M334 1448l168 160l313 -357l-117 -102zM481 1067v-678q0 -96 22.5 -134t86.5 -38q109 0 211 94v527q0 25 -5 30.5t-28 10.5l-88 20l22 168h408v-850q0 -23 5 -30t24 -9l102 -14v-164h-381l-16 111l-10 2q-53 -41 -94.5 -65.5t-115 -48.5t-155.5 -24q-158 0 -227.5 89.5
t-69.5 271.5v500q0 25 -5 31.5t-28 11.5l-98 20l20 168h420z" />
    <glyph glyph-name="uacute" unicode="&#xfa;" horiz-adv-x="1275" 
d="M418 1251l313 357l168 -160l-367 -299zM481 1067v-678q0 -96 22.5 -134t86.5 -38q109 0 211 94v527q0 25 -5 30.5t-28 10.5l-88 20l22 168h408v-850q0 -23 5 -30t24 -9l102 -14v-164h-381l-16 111l-10 2q-53 -41 -94.5 -65.5t-115 -48.5t-155.5 -24q-158 0 -227.5 89.5
t-69.5 271.5v500q0 25 -5 31.5t-28 11.5l-98 20l20 168h420z" />
    <glyph glyph-name="ucircumflex" unicode="&#xfb;" horiz-adv-x="1275" 
d="M254 1257l252 265h213l252 -265l-123 -106l-236 190l-235 -190zM481 1067v-678q0 -96 22.5 -134t86.5 -38q109 0 211 94v527q0 25 -5 30.5t-28 10.5l-88 20l22 168h408v-850q0 -23 5 -30t24 -9l102 -14v-164h-381l-16 111l-10 2q-53 -41 -94.5 -65.5t-115 -48.5
t-155.5 -24q-158 0 -227.5 89.5t-69.5 271.5v500q0 25 -5 31.5t-28 11.5l-98 20l20 168h420z" />
    <glyph glyph-name="udieresis" unicode="&#xfc;" horiz-adv-x="1275" 
d="M678 1366q0 64 40 102.5t105.5 38.5t105.5 -38.5t40 -104.5t-40 -104.5t-105.5 -38.5t-105.5 40.5t-40 104.5zM252 1366q0 64 40 102.5t105.5 38.5t105.5 -38.5t40 -104.5t-40 -104.5t-105.5 -38.5t-105.5 40.5t-40 104.5zM481 1067v-678q0 -96 22.5 -134t86.5 -38
q109 0 211 94v527q0 25 -5 30.5t-28 10.5l-88 20l22 168h408v-850q0 -23 5 -30t24 -9l102 -14v-164h-381l-16 111l-10 2q-53 -41 -94.5 -65.5t-115 -48.5t-155.5 -24q-158 0 -227.5 89.5t-69.5 271.5v500q0 25 -5 31.5t-28 11.5l-98 20l20 168h420z" />
    <glyph glyph-name="yacute" unicode="&#xfd;" horiz-adv-x="1267" 
d="M426 1251l313 357l168 -160l-366 -299zM582 1067v-166l-129 -16l227 -541h14l217 541l-133 16l27 166h457v-166l-66 -12q-39 -6 -51 -35l-451 -1102l213 -22v-164h-682v166l160 18q33 2 51 45l88 195l-391 856q-8 27 -43 35l-84 20l33 166h543z" />
    <glyph glyph-name="thorn" unicode="&#xfe;" horiz-adv-x="1239" 
d="M659 215q193 0 193 332q0 299 -188 299q-92 0 -199 -76v-479q100 -76 194 -76zM461 1546v-581l8 -4q162 127 317 126q389 0 390 -524q0 -222 -71 -353.5t-154 -183t-191 -51.5q-172 0 -301 105v-293q0 -25 6 -32t29 -9l213 -18v-162h-670v164l82 12q23 4 30 12t7 31v1513
q0 35 -27 43l-111 39l23 166h420z" />
    <glyph glyph-name="ydieresis" unicode="&#xff;" horiz-adv-x="1267" 
d="M719 1366q0 64 40 102.5t105.5 38.5t105.5 -38.5t40 -104.5t-40 -104.5t-105.5 -38.5t-105.5 40.5t-40 104.5zM293 1366q0 64 40 102.5t105.5 38.5t105.5 -38.5t40 -104.5t-40 -104.5t-105.5 -38.5t-105.5 40.5t-40 104.5zM582 1067v-166l-129 -16l227 -541h14l217 541
l-133 16l27 166h457v-166l-66 -12q-39 -6 -51 -35l-451 -1102l213 -22v-164h-682v166l160 18q33 2 51 45l88 195l-391 856q-8 27 -43 35l-84 20l33 166h543z" />
    <glyph glyph-name="OE" unicode="&#x152;" horiz-adv-x="2041" 
d="M401 736q0 -488 238 -488t316.5 119.5t78.5 377.5q0 492 -301 492q-160 0 -246 -128t-86 -373zM63 737q0 348 167 560t505 212q109 0 209 -26h981v-414l-225 10l-29 156q-6 27 -35 27h-399q117 -152 129 -404h434v-227h-436q-18 -266 -139 -412h456q29 0 33 23l33 180
h223v-422h-1052q-94 -25 -211 -25q-644 0 -644 762z" />
    <glyph glyph-name="oe" unicode="&#x153;" horiz-adv-x="1816" 
d="M1446 645q0 221 -157 221t-169 -221h326zM385 529q0 -332 211 -332t211 332t-203 331q-219 1 -219 -331zM55 534q0 257 135.5 405t396.5 148t380 -165q121 166 362 165q190 0 305 -121.5t115 -379.5q0 -57 -6 -119h-625q6 -129 63.5 -191.5t178.5 -62.5t305 68l76 -201
q-219 -104 -400 -105q-264 0 -387 170q-135 -170 -394 -170t-382 151t-123 408z" />
    <glyph glyph-name="Ydieresis" unicode="&#x178;" horiz-adv-x="1384" 
d="M788 1742q0 64 40 103t105.5 39t105.5 -39t40 -103t-40 -103.5t-105.5 -39.5t-105.5 39.5t-40 103.5zM362 1742q0 64 40 103t105.5 39t105.5 -39t40 -103t-40 -103.5t-105.5 -39.5t-105.5 39.5t-40 103.5zM641 1483v-160l-160 -18l248 -484h16l248 484l-157 18l20 160
h522v-160l-86 -23q-39 -10 -51 -38l-371 -705v-340q0 -23 5.5 -30t27.5 -9l217 -16v-162h-803v162l205 14q20 2 26.5 9.5t6.5 31.5v336l-408 713q-14 23 -49 34l-92 23l21 160h614z" />
    <glyph glyph-name="circumflex" unicode="&#x2c6;" horiz-adv-x="1024" 
d="M154 1257l252 265h212l252 -265l-122 -106l-236 190l-236 -190z" />
    <glyph glyph-name="tilde" unicode="&#x2dc;" horiz-adv-x="1024" 
d="M338 1470q46 0 160 -32t154 -40q40 -9 50 5l60 63l121 -73l-45 -82q-35 -63 -64 -90t-65 -27q-35 0 -193 39t-167 39t-27 -17l-68 -63l-113 72l62 104q61 102 135 102z" />
    <glyph glyph-name="endash" unicode="&#x2013;" horiz-adv-x="1024" 
d="M0 465v219h1022v-219h-1022z" />
    <glyph glyph-name="emdash" unicode="&#x2014;" horiz-adv-x="2048" 
d="M0 465v219h2048v-219h-2048z" />
    <glyph glyph-name="quoteleft" unicode="&#x2018;" horiz-adv-x="460" 
d="M82 1245q0 57 39 135l98 207l129 -39l-47 -202q-2 -16 10 -23l78 -27l-41 -196q-86 2 -137 10t-90 43t-39 92z" />
    <glyph glyph-name="quoteright" unicode="&#x2019;" horiz-adv-x="460" 
d="M379 1433q0 -52 -37 -126l-98 -207l-131 39l47 202q6 18 -10 25l-78 25l41 196q203 0 234.5 -51t31.5 -103z" />
    <glyph glyph-name="quotesinglbase" unicode="&#x201a;" horiz-adv-x="473" 
d="M401 61q0 -49 -39 -133l-98 -204l-129 38l45 199q6 20 -10 27l-78 26l41 197q131 -2 199.5 -30.5t68.5 -119.5z" />
    <glyph glyph-name="quotedblleft" unicode="&#x201c;" horiz-adv-x="829" 
d="M451 1245q0 57 38 135l99 207l129 -39l-47 -202q-2 -16 10 -23l78 -27l-41 -196q-86 2 -137.5 10t-90 43t-38.5 92zM82 1245q0 57 39 135l98 207l129 -39l-47 -202q-2 -16 10 -23l78 -27l-41 -196q-86 2 -137 10t-90 43t-39 92z" />
    <glyph glyph-name="quotedblright" unicode="&#x201d;" horiz-adv-x="829" 
d="M748 1433q0 -52 -37 -126l-99 -207l-131 39l47 202q6 18 -10 25l-78 25l41 196q204 0 235.5 -51t31.5 -103zM379 1433q0 -52 -37 -126l-98 -207l-131 39l47 202q6 18 -10 25l-78 25l41 196q203 0 234.5 -51t31.5 -103z" />
    <glyph glyph-name="quotedblbase" unicode="&#x201e;" horiz-adv-x="841" 
d="M770 61q0 -49 -39 -133l-98 -204l-129 38l45 199q6 20 -10 27l-78 26l41 197q131 -2 199.5 -30.5t68.5 -119.5zM401 61q0 -49 -39 -133l-98 -204l-129 38l45 199q6 20 -10 27l-78 26l41 197q131 -2 199.5 -30.5t68.5 -119.5z" />
    <glyph glyph-name="bullet" unicode="&#x2022;" horiz-adv-x="843" 
d="M113 571q0 299 307 299q152 0 231.5 -75.5t79.5 -223t-80 -223.5t-231 -76q-307 0 -307 299z" />
    <glyph glyph-name="ellipsis" unicode="&#x2026;" horiz-adv-x="1443" 
d="M1012 135q0 160 175 160t175 -160t-175 -160t-175 160zM549 135q0 160 175 160t175 -160t-175 -160t-175 160zM82 135q0 160 175 160t175 -160t-175 -160t-175 160z" />
    <glyph glyph-name="guilsinglleft" unicode="&#x2039;" horiz-adv-x="575" 
d="M72 526l182 310h250l-164 -285q-12 -18 -2 -39l156 -301h-246z" />
    <glyph glyph-name="guilsinglright" unicode="&#x203a;" horiz-adv-x="575" 
d="M72 836h250l182 -312l-176 -313h-248l158 295q10 20 -2 39z" />
    <glyph glyph-name="Euro" unicode="&#x20ac;" horiz-adv-x="1144" 
d="M702 1341q111 0 219.5 -27.5t163.5 -62.5v-348l-213 10l-30 158q-2 27 -31 38t-96 11q-217 0 -244 -338h307l-39 -239h-266q14 -178 74.5 -260t171.5 -82q59 0 98 14q20 8 23 31l32 164l211 10v-357q-51 -33 -167.5 -60.5t-229.5 -27.5q-496 0 -543 568h-155l41 239h114
q29 281 182.5 420t376.5 139z" />
    <glyph glyph-name="trademark" unicode="&#x2122;" horiz-adv-x="1734" 
d="M782 713v102l74 10v549l-74 8v101h267l192 -453l186 453h259v-101l-78 -8v-549l82 -10v-102h-336v102l102 10v377l-141 -323h-162l-143 325v-379l108 -10v-102h-336zM49 1245v238h680v-238h-104l-11 105h-137v-523l117 -10v-104h-406v104l111 10v523h-133l-12 -105h-105z
" />
    <glyph glyph-name="uniE000" unicode="&#xe000;" horiz-adv-x="1065" 
d="M0 1065h1065v-1065h-1065v1065z" />
    <glyph glyph-name="uniFB01" unicode="&#xfb01;" horiz-adv-x="1327" 
d="M49 862v205h154v102q0 219 125 310.5t357 91.5t345 -60t117 -264l-291 -35q0 96 -31 127t-131 31t-141 -35t-41 -123v-125q0 -12 4 -16t19 -4h632v-850q0 -25 5.5 -32t27.5 -9l105 -14v-162h-447v838q0 25 -20 24h-326v-637q0 -27 6 -33t31 -10l143 -20v-162h-637v162
l111 14q25 2 31 10.5t6 38.5v617q0 20 -17 20h-137z" />
    <glyph glyph-name="uniFB02" unicode="&#xfb02;" horiz-adv-x="1327" 
d="M49 862v205h154v92q0 221 126 316.5t384 95.5q127 0 204.5 -11.5t138 -45t86 -98t25.5 -169.5v-1030q0 -25 5.5 -32t27.5 -9l100 -14v-162h-442v1212q0 98 -25.5 128t-125.5 30t-147.5 -36t-47.5 -122v-125q0 -12 4 -16t19 -4h235v-205h-258v-637q0 -27 6 -33t31 -10
l143 -20v-162h-637v162l111 14q25 2 31 10.5t6 38.5v617q0 20 -17 20h-137z" />
    <glyph glyph-name="uniFB03" unicode="&#xfb03;" horiz-adv-x="1982" 
d="M512 1087q0 -20 16 -20h330v125q0 82 -34 110.5t-132 28.5t-139 -33.5t-41 -121.5v-89zM49 862v205h154v72q0 213 121.5 306t371.5 93q178 0 287 -57q119 90 354 90t348 -59.5t117 -264.5l-291 -35q0 96 -30.5 127t-130.5 31t-141.5 -35t-41.5 -123v-125q0 -12 4.5 -16
t18.5 -4h633v-850q0 -25 5 -32t27 -9l105 -14v-162h-447v838q0 25 -20 24h-326v-637q0 -27 6.5 -33t30.5 -10l144 -20v-162h-490v842q0 20 -16 20h-330v-639q0 -23 5 -30t24 -9l172 -22v-162h-658v164l115 12q20 2 26.5 10.5t6.5 32.5v623q0 20 -17 20h-137z" />
    <glyph glyph-name="uniFB04" unicode="&#xfb04;" horiz-adv-x="1982" 
d="M512 1087q0 -20 16 -20h330v115q0 88 -32 118.5t-132 30.5t-141 -33.5t-41 -121.5v-89zM49 862v205h154v72q0 213 121.5 306t371.5 93q182 0 291 -61q123 94 378 94t355.5 -61.5t102.5 -262.5v-1030q0 -25 5 -32t27 -9l101 -14v-162h-443v1212q0 98 -25.5 128t-125.5 30
t-147.5 -36t-47.5 -122v-125q0 -12 4.5 -16t18.5 -4h235v-205h-258v-637q0 -27 6.5 -33t30.5 -10l144 -20v-162h-490v842q0 20 -16 20h-330v-639q0 -23 5 -30t24 -9l172 -22v-162h-658v164l115 12q20 2 26.5 10.5t6.5 32.5v623q0 20 -17 20h-137z" />
    <glyph glyph-name="CR" horiz-adv-x="1024" 
 />
  </font>
</defs>
</svg>
