<?xml version="1.0" encoding="utf-8"?>
<!-- Generator: Adobe Illustrator 18.1.0, SVG Export Plug-In . SVG Version: 6.00 Build 0)  -->
<svg version="1.1" id="Layer_1" xmlns="http://www.w3.org/2000/svg" xmlns:xlink="http://www.w3.org/1999/xlink" x="0px" y="0px"
	 viewBox="0 0 15.2 8.6" enable-background="new 0 0 15.2 8.6" xml:space="preserve">
<g>
	<defs>
		<rect id="SVGID_1_" x="0" width="15.2" height="8.6"/>
	</defs>
	<clipPath id="SVGID_2_">
		<use xlink:href="#SVGID_1_"  overflow="visible"/>
	</clipPath>
	<path clip-path="url(#SVGID_2_)" fill="#185C82" d="M14.9,0.3C15,0.4,15,0.5,15.1,0.7c0.1,0.1,0.1,0.3,0.1,0.4c0,0.1,0,0.3-0.1,0.4
		C15,1.6,15,1.7,14.9,1.8L8.3,8.3C8.3,8.4,8.1,8.5,8,8.6c-0.1,0-0.3,0.1-0.4,0.1s-0.3,0-0.4-0.1c-0.1,0-0.3-0.1-0.4-0.2L0.3,1.8
		C0.2,1.7,0.2,1.6,0.1,1.5C0,1.3,0,1.2,0,1.1c0-0.2,0-0.3,0.1-0.4c0.1-0.1,0.1-0.2,0.2-0.4c0.1-0.1,0.2-0.2,0.4-0.2C0.8,0,1,0,1.1,0
		c0.1,0,0.2,0,0.4,0.1c0.1,0,0.2,0.1,0.4,0.2L7.6,6l5.7-5.8c0.1-0.1,0.2-0.2,0.4-0.2S13.9,0,14.1,0c0.2,0,0.3,0,0.4,0.1
		S14.7,0.2,14.9,0.3"/>
</g>
</svg>
